<svg width="1358px" height="620px"
 viewBox="0.00 0.00 1358.00 620.00" xmlns="http://www.w3.org/2000/svg" xmlns:xlink="http://www.w3.org/1999/xlink">
<g id="graph0" class="graph" transform="scale(1.0 1.0) rotate(0.0) translate(4.0 616.0)">
<polygon fill="white" stroke="none" points="-4,4 -4,-616 1354,-616 1354,4 -4,4"/>
<!-- 0 -->
<g id="node1" class="node">
<title>0</title>
<ellipse fill="none" stroke="black" cx="423" cy="-594" rx="27" ry="18"/>
<text text-anchor="middle" x="423" y="-588.58" font-family="Times New Roman,serif" font-size="14.00">C</text>
</g>
<!-- 1 -->
<g id="node2" class="node">
<title>1</title>
<ellipse fill="none" stroke="black" cx="243" cy="-522" rx="27" ry="18"/>
<text text-anchor="middle" x="243" y="-516.58" font-family="Times New Roman,serif" font-size="14.00">E</text>
</g>
<!-- 0&#45;&#45;1 -->
<g id="edge1" class="edge">
<title>0&#45;&#45;1</title>
<path fill="none" stroke="black" d="M400.2,-584.13C365.67,-570.71 300.48,-545.35 265.9,-531.9"/>
</g>
<!-- 18 -->
<g id="node3" class="node">
<title>18</title>
<ellipse fill="none" stroke="black" cx="603" cy="-522" rx="27" ry="18"/>
<text text-anchor="middle" x="603" y="-516.58" font-family="Times New Roman,serif" font-size="14.00">C&#39;</text>
</g>
<!-- 0&#45;&#45;18 -->
<g id="edge2" class="edge">
<title>0&#45;&#45;18</title>
<path fill="none" stroke="black" d="M445.8,-584.13C480.33,-570.71 545.52,-545.35 580.1,-531.9"/>
</g>
<!-- 2 -->
<g id="node4" class="node">
<title>2</title>
<ellipse fill="none" stroke="black" cx="99" cy="-450" rx="27" ry="18"/>
<text text-anchor="middle" x="99" y="-444.57" font-family="Times New Roman,serif" font-size="14.00">T</text>
</g>
<!-- 1&#45;&#45;2 -->
<g id="edge3" class="edge">
<title>1&#45;&#45;2</title>
<path fill="none" stroke="black" d="M221.44,-510.52C194.14,-497.25 147.39,-474.52 120.24,-461.32"/>
</g>
<!-- 8 -->
<g id="node5" class="node">
<title>8</title>
<ellipse fill="none" stroke="black" cx="243" cy="-450" rx="27" ry="18"/>
<text text-anchor="middle" x="243" y="-444.57" font-family="Times New Roman,serif" font-size="14.00">E&#39;</text>
</g>
<!-- 1&#45;&#45;8 -->
<g id="edge4" class="edge">
<title>1&#45;&#45;8</title>
<path fill="none" stroke="black" d="M243,-503.7C243,-492.85 243,-478.92 243,-468.1"/>
</g>
<!-- 19 -->
<g id="node20" class="node">
<title>19</title>
<ellipse fill="none" stroke="black" cx="459" cy="-450" rx="27" ry="18"/>
<text text-anchor="middle" x="459" y="-444.57" font-family="Times New Roman,serif" font-size="14.00">==</text>
</g>
<!-- 18&#45;&#45;19 -->
<g id="edge5" class="edge">
<title>18&#45;&#45;19</title>
<path fill="none" stroke="black" d="M581.44,-510.52C554.14,-497.25 507.39,-474.52 480.24,-461.32"/>
</g>
<!-- 20 -->
<g id="node21" class="node">
<title>20</title>
<ellipse fill="none" stroke="black" cx="531" cy="-450" rx="27" ry="18"/>
<text text-anchor="middle" x="531" y="-444.57" font-family="Times New Roman,serif" font-size="14.00">E</text>
</g>
<!-- 18&#45;&#45;20 -->
<g id="edge6" class="edge">
<title>18&#45;&#45;20</title>
<path fill="none" stroke="black" d="M588.08,-506.5C575.72,-494.48 558.25,-477.49 545.9,-465.49"/>
</g>
<!-- 34 -->
<g id="node22" class="node">
<title>34</title>
<ellipse fill="none" stroke="black" cx="603" cy="-450" rx="27" ry="18"/>
<text text-anchor="middle" x="603" y="-444.57" font-family="Times New Roman,serif" font-size="14.00">?</text>
</g>
<!-- 18&#45;&#45;34 -->
<g id="edge7" class="edge">
<title>18&#45;&#45;34</title>
<path fill="none" stroke="black" d="M603,-503.7C603,-492.85 603,-478.92 603,-468.1"/>
</g>
<!-- 35 -->
<g id="node23" class="node">
<title>35</title>
<ellipse fill="none" stroke="black" cx="675" cy="-450" rx="27" ry="18"/>
<text text-anchor="middle" x="675" y="-444.57" font-family="Times New Roman,serif" font-size="14.00">E</text>
</g>
<!-- 18&#45;&#45;35 -->
<g id="edge8" class="edge">
<title>18&#45;&#45;35</title>
<path fill="none" stroke="black" d="M617.92,-506.5C630.28,-494.48 647.75,-477.49 660.1,-465.49"/>
</g>
<!-- 60 -->
<g id="node24" class="node">
<title>60</title>
<ellipse fill="none" stroke="black" cx="747" cy="-450" rx="27" ry="18"/>
<text text-anchor="middle" x="747" y="-444.57" font-family="Times New Roman,serif" font-size="14.00">:</text>
</g>
<!-- 18&#45;&#45;60 -->
<g id="edge9" class="edge">
<title>18&#45;&#45;60</title>
<path fill="none" stroke="black" d="M624.56,-510.52C651.86,-497.25 698.61,-474.52 725.76,-461.32"/>
</g>
<!-- 61 -->
<g id="node25" class="node">
<title>61</title>
<ellipse fill="none" stroke="black" cx="1125" cy="-450" rx="27" ry="18"/>
<text text-anchor="middle" x="1125" y="-444.57" font-family="Times New Roman,serif" font-size="14.00">E</text>
</g>
<!-- 18&#45;&#45;61 -->
<g id="edge10" class="edge">
<title>18&#45;&#45;61</title>
<path fill="none" stroke="black" d="M629.6,-517.43C719.15,-505.42 1008.98,-466.56 1098.45,-454.56"/>
</g>
<!-- 3 -->
<g id="node6" class="node">
<title>3</title>
<ellipse fill="none" stroke="black" cx="27" cy="-378" rx="27" ry="18"/>
<text text-anchor="middle" x="27" y="-372.57" font-family="Times New Roman,serif" font-size="14.00">S</text>
</g>
<!-- 2&#45;&#45;3 -->
<g id="edge11" class="edge">
<title>2&#45;&#45;3</title>
<path fill="none" stroke="black" d="M84.08,-434.5C71.72,-422.48 54.25,-405.49 41.9,-393.49"/>
</g>
<!-- 6 -->
<g id="node7" class="node">
<title>6</title>
<ellipse fill="none" stroke="black" cx="99" cy="-378" rx="27" ry="18"/>
<text text-anchor="middle" x="99" y="-372.57" font-family="Times New Roman,serif" font-size="14.00">T&#39;</text>
</g>
<!-- 2&#45;&#45;6 -->
<g id="edge12" class="edge">
<title>2&#45;&#45;6</title>
<path fill="none" stroke="black" d="M99,-431.7C99,-420.85 99,-406.92 99,-396.1"/>
</g>
<!-- 9 -->
<g id="node11" class="node">
<title>9</title>
<ellipse fill="none" stroke="black" cx="171" cy="-378" rx="27" ry="18"/>
<text text-anchor="middle" x="171" y="-372.57" font-family="Times New Roman,serif" font-size="14.00">+</text>
</g>
<!-- 8&#45;&#45;9 -->
<g id="edge13" class="edge">
<title>8&#45;&#45;9</title>
<path fill="none" stroke="black" d="M228.08,-434.5C215.72,-422.48 198.25,-405.49 185.9,-393.49"/>
</g>
<!-- 10 -->
<g id="node12" class="node">
<title>10</title>
<ellipse fill="none" stroke="black" cx="243" cy="-378" rx="27" ry="18"/>
<text text-anchor="middle" x="243" y="-372.57" font-family="Times New Roman,serif" font-size="14.00">T</text>
</g>
<!-- 8&#45;&#45;10 -->
<g id="edge14" class="edge">
<title>8&#45;&#45;10</title>
<path fill="none" stroke="black" d="M243,-431.7C243,-420.85 243,-406.92 243,-396.1"/>
</g>
<!-- 16 -->
<g id="node13" class="node">
<title>16</title>
<ellipse fill="none" stroke="black" cx="315" cy="-378" rx="27" ry="18"/>
<text text-anchor="middle" x="315" y="-372.57" font-family="Times New Roman,serif" font-size="14.00">E&#39;</text>
</g>
<!-- 8&#45;&#45;16 -->
<g id="edge15" class="edge">
<title>8&#45;&#45;16</title>
<path fill="none" stroke="black" d="M257.92,-434.5C270.28,-422.48 287.75,-405.49 300.1,-393.49"/>
</g>
<!-- 4 -->
<g id="node8" class="node">
<title>4</title>
<ellipse fill="none" stroke="black" cx="27" cy="-306" rx="27" ry="18"/>
<text text-anchor="middle" x="27" y="-300.57" font-family="Times New Roman,serif" font-size="14.00">F</text>
</g>
<!-- 3&#45;&#45;4 -->
<g id="edge16" class="edge">
<title>3&#45;&#45;4</title>
<path fill="none" stroke="black" d="M27,-359.7C27,-348.85 27,-334.92 27,-324.1"/>
</g>
<!-- 7 -->
<g id="node10" class="node">
<title>7</title>
<ellipse fill="none" stroke="black" cx="99" cy="-306" rx="27" ry="18"/>
<text text-anchor="middle" x="99" y="-300.57" font-family="Times New Roman,serif" font-size="14.00">eps</text>
</g>
<!-- 6&#45;&#45;7 -->
<g id="edge17" class="edge">
<title>6&#45;&#45;7</title>
<path fill="none" stroke="black" d="M99,-359.7C99,-348.85 99,-334.92 99,-324.1"/>
</g>
<!-- 5 -->
<g id="node9" class="node">
<title>5</title>
<ellipse fill="none" stroke="black" cx="27" cy="-234" rx="27" ry="18"/>
<text text-anchor="middle" x="27" y="-228.57" font-family="Times New Roman,serif" font-size="14.00">n</text>
</g>
<!-- 4&#45;&#45;5 -->
<g id="edge18" class="edge">
<title>4&#45;&#45;5</title>
<path fill="none" stroke="black" d="M27,-287.7C27,-276.85 27,-262.92 27,-252.1"/>
</g>
<!-- 11 -->
<g id="node14" class="node">
<title>11</title>
<ellipse fill="none" stroke="black" cx="171" cy="-306" rx="27" ry="18"/>
<text text-anchor="middle" x="171" y="-300.57" font-family="Times New Roman,serif" font-size="14.00">S</text>
</g>
<!-- 10&#45;&#45;11 -->
<g id="edge19" class="edge">
<title>10&#45;&#45;11</title>
<path fill="none" stroke="black" d="M228.08,-362.5C215.72,-350.48 198.25,-333.49 185.9,-321.49"/>
</g>
<!-- 14 -->
<g id="node15" class="node">
<title>14</title>
<ellipse fill="none" stroke="black" cx="243" cy="-306" rx="27" ry="18"/>
<text text-anchor="middle" x="243" y="-300.57" font-family="Times New Roman,serif" font-size="14.00">T&#39;</text>
</g>
<!-- 10&#45;&#45;14 -->
<g id="edge20" class="edge">
<title>10&#45;&#45;14</title>
<path fill="none" stroke="black" d="M243,-359.7C243,-348.85 243,-334.92 243,-324.1"/>
</g>
<!-- 17 -->
<g id="node19" class="node">
<title>17</title>
<ellipse fill="none" stroke="black" cx="315" cy="-306" rx="27" ry="18"/>
<text text-anchor="middle" x="315" y="-300.57" font-family="Times New Roman,serif" font-size="14.00">eps</text>
</g>
<!-- 16&#45;&#45;17 -->
<g id="edge21" class="edge">
<title>16&#45;&#45;17</title>
<path fill="none" stroke="black" d="M315,-359.7C315,-348.85 315,-334.92 315,-324.1"/>
</g>
<!-- 12 -->
<g id="node16" class="node">
<title>12</title>
<ellipse fill="none" stroke="black" cx="171" cy="-234" rx="27" ry="18"/>
<text text-anchor="middle" x="171" y="-228.57" font-family="Times New Roman,serif" font-size="14.00">F</text>
</g>
<!-- 11&#45;&#45;12 -->
<g id="edge22" class="edge">
<title>11&#45;&#45;12</title>
<path fill="none" stroke="black" d="M171,-287.7C171,-276.85 171,-262.92 171,-252.1"/>
</g>
<!-- 15 -->
<g id="node18" class="node">
<title>15</title>
<ellipse fill="none" stroke="black" cx="243" cy="-234" rx="27" ry="18"/>
<text text-anchor="middle" x="243" y="-228.57" font-family="Times New Roman,serif" font-size="14.00">eps</text>
</g>
<!-- 14&#45;&#45;15 -->
<g id="edge23" class="edge">
<title>14&#45;&#45;15</title>
<path fill="none" stroke="black" d="M243,-287.7C243,-276.85 243,-262.92 243,-252.1"/>
</g>
<!-- 13 -->
<g id="node17" class="node">
<title>13</title>
<ellipse fill="none" stroke="black" cx="171" cy="-162" rx="27" ry="18"/>
<text text-anchor="middle" x="171" y="-156.57" font-family="Times New Roman,serif" font-size="14.00">n</text>
</g>
<!-- 12&#45;&#45;13 -->
<g id="edge24" class="edge">
<title>12&#45;&#45;13</title>
<path fill="none" stroke="black" d="M171,-215.7C171,-204.85 171,-190.92 171,-180.1"/>
</g>
<!-- 21 -->
<g id="node26" class="node">
<title>21</title>
<ellipse fill="none" stroke="black" cx="459" cy="-378" rx="27" ry="18"/>
<text text-anchor="middle" x="459" y="-372.57" font-family="Times New Roman,serif" font-size="14.00">T</text>
</g>
<!-- 20&#45;&#45;21 -->
<g id="edge25" class="edge">
<title>20&#45;&#45;21</title>
<path fill="none" stroke="black" d="M516.08,-434.5C503.72,-422.48 486.25,-405.49 473.9,-393.49"/>
</g>
<!-- 32 -->
<g id="node27" class="node">
<title>32</title>
<ellipse fill="none" stroke="black" cx="531" cy="-378" rx="27" ry="18"/>
<text text-anchor="middle" x="531" y="-372.57" font-family="Times New Roman,serif" font-size="14.00">E&#39;</text>
</g>
<!-- 20&#45;&#45;32 -->
<g id="edge26" class="edge">
<title>20&#45;&#45;32</title>
<path fill="none" stroke="black" d="M531,-431.7C531,-420.85 531,-406.92 531,-396.1"/>
</g>
<!-- 36 -->
<g id="node39" class="node">
<title>36</title>
<ellipse fill="none" stroke="black" cx="675" cy="-378" rx="27" ry="18"/>
<text text-anchor="middle" x="675" y="-372.57" font-family="Times New Roman,serif" font-size="14.00">T</text>
</g>
<!-- 35&#45;&#45;36 -->
<g id="edge27" class="edge">
<title>35&#45;&#45;36</title>
<path fill="none" stroke="black" d="M675,-431.7C675,-420.85 675,-406.92 675,-396.1"/>
</g>
<!-- 42 -->
<g id="node40" class="node">
<title>42</title>
<ellipse fill="none" stroke="black" cx="783" cy="-378" rx="27" ry="18"/>
<text text-anchor="middle" x="783" y="-372.57" font-family="Times New Roman,serif" font-size="14.00">E&#39;</text>
</g>
<!-- 35&#45;&#45;42 -->
<g id="edge28" class="edge">
<title>35&#45;&#45;42</title>
<path fill="none" stroke="black" d="M693.81,-436.81C713.51,-424.04 744.28,-404.09 764.04,-391.29"/>
</g>
<!-- 62 -->
<g id="node63" class="node">
<title>62</title>
<ellipse fill="none" stroke="black" cx="1125" cy="-378" rx="27" ry="18"/>
<text text-anchor="middle" x="1125" y="-372.57" font-family="Times New Roman,serif" font-size="14.00">T</text>
</g>
<!-- 61&#45;&#45;62 -->
<g id="edge29" class="edge">
<title>61&#45;&#45;62</title>
<path fill="none" stroke="black" d="M1125,-431.7C1125,-420.85 1125,-406.92 1125,-396.1"/>
</g>
<!-- 73 -->
<g id="node64" class="node">
<title>73</title>
<ellipse fill="none" stroke="black" cx="1233" cy="-378" rx="27" ry="18"/>
<text text-anchor="middle" x="1233" y="-372.57" font-family="Times New Roman,serif" font-size="14.00">E&#39;</text>
</g>
<!-- 61&#45;&#45;73 -->
<g id="edge30" class="edge">
<title>61&#45;&#45;73</title>
<path fill="none" stroke="black" d="M1143.81,-436.81C1163.51,-424.04 1194.28,-404.09 1214.04,-391.29"/>
</g>
<!-- 22 -->
<g id="node28" class="node">
<title>22</title>
<ellipse fill="none" stroke="black" cx="387" cy="-306" rx="27" ry="18"/>
<text text-anchor="middle" x="387" y="-300.57" font-family="Times New Roman,serif" font-size="14.00">S</text>
</g>
<!-- 21&#45;&#45;22 -->
<g id="edge31" class="edge">
<title>21&#45;&#45;22</title>
<path fill="none" stroke="black" d="M444.08,-362.5C431.72,-350.48 414.25,-333.49 401.9,-321.49"/>
</g>
<!-- 25 -->
<g id="node29" class="node">
<title>25</title>
<ellipse fill="none" stroke="black" cx="459" cy="-306" rx="27" ry="18"/>
<text text-anchor="middle" x="459" y="-300.57" font-family="Times New Roman,serif" font-size="14.00">T&#39;</text>
</g>
<!-- 21&#45;&#45;25 -->
<g id="edge32" class="edge">
<title>21&#45;&#45;25</title>
<path fill="none" stroke="black" d="M459,-359.7C459,-348.85 459,-334.92 459,-324.1"/>
</g>
<!-- 33 -->
<g id="node38" class="node">
<title>33</title>
<ellipse fill="none" stroke="black" cx="531" cy="-306" rx="27" ry="18"/>
<text text-anchor="middle" x="531" y="-300.57" font-family="Times New Roman,serif" font-size="14.00">eps</text>
</g>
<!-- 32&#45;&#45;33 -->
<g id="edge33" class="edge">
<title>32&#45;&#45;33</title>
<path fill="none" stroke="black" d="M531,-359.7C531,-348.85 531,-334.92 531,-324.1"/>
</g>
<!-- 23 -->
<g id="node30" class="node">
<title>23</title>
<ellipse fill="none" stroke="black" cx="315" cy="-234" rx="27" ry="18"/>
<text text-anchor="middle" x="315" y="-228.57" font-family="Times New Roman,serif" font-size="14.00">F</text>
</g>
<!-- 22&#45;&#45;23 -->
<g id="edge34" class="edge">
<title>22&#45;&#45;23</title>
<path fill="none" stroke="black" d="M372.08,-290.5C359.72,-278.48 342.25,-261.49 329.9,-249.49"/>
</g>
<!-- 26 -->
<g id="node32" class="node">
<title>26</title>
<ellipse fill="none" stroke="black" cx="387" cy="-234" rx="27" ry="18"/>
<text text-anchor="middle" x="387" y="-228.57" font-family="Times New Roman,serif" font-size="14.00">*</text>
</g>
<!-- 25&#45;&#45;26 -->
<g id="edge35" class="edge">
<title>25&#45;&#45;26</title>
<path fill="none" stroke="black" d="M444.08,-290.5C431.72,-278.48 414.25,-261.49 401.9,-249.49"/>
</g>
<!-- 27 -->
<g id="node33" class="node">
<title>27</title>
<ellipse fill="none" stroke="black" cx="459" cy="-234" rx="27" ry="18"/>
<text text-anchor="middle" x="459" y="-228.57" font-family="Times New Roman,serif" font-size="14.00">S</text>
</g>
<!-- 25&#45;&#45;27 -->
<g id="edge36" class="edge">
<title>25&#45;&#45;27</title>
<path fill="none" stroke="black" d="M459,-287.7C459,-276.85 459,-262.92 459,-252.1"/>
</g>
<!-- 30 -->
<g id="node34" class="node">
<title>30</title>
<ellipse fill="none" stroke="black" cx="531" cy="-234" rx="27" ry="18"/>
<text text-anchor="middle" x="531" y="-228.57" font-family="Times New Roman,serif" font-size="14.00">T&#39;</text>
</g>
<!-- 25&#45;&#45;30 -->
<g id="edge37" class="edge">
<title>25&#45;&#45;30</title>
<path fill="none" stroke="black" d="M473.92,-290.5C486.28,-278.48 503.75,-261.49 516.1,-249.49"/>
</g>
<!-- 24 -->
<g id="node31" class="node">
<title>24</title>
<ellipse fill="none" stroke="black" cx="315" cy="-162" rx="27" ry="18"/>
<text text-anchor="middle" x="315" y="-156.57" font-family="Times New Roman,serif" font-size="14.00">n</text>
</g>
<!-- 23&#45;&#45;24 -->
<g id="edge38" class="edge">
<title>23&#45;&#45;24</title>
<path fill="none" stroke="black" d="M315,-215.7C315,-204.85 315,-190.92 315,-180.1"/>
</g>
<!-- 28 -->
<g id="node35" class="node">
<title>28</title>
<ellipse fill="none" stroke="black" cx="459" cy="-162" rx="27" ry="18"/>
<text text-anchor="middle" x="459" y="-156.57" font-family="Times New Roman,serif" font-size="14.00">F</text>
</g>
<!-- 27&#45;&#45;28 -->
<g id="edge39" class="edge">
<title>27&#45;&#45;28</title>
<path fill="none" stroke="black" d="M459,-215.7C459,-204.85 459,-190.92 459,-180.1"/>
</g>
<!-- 31 -->
<g id="node37" class="node">
<title>31</title>
<ellipse fill="none" stroke="black" cx="531" cy="-162" rx="27" ry="18"/>
<text text-anchor="middle" x="531" y="-156.57" font-family="Times New Roman,serif" font-size="14.00">eps</text>
</g>
<!-- 30&#45;&#45;31 -->
<g id="edge40" class="edge">
<title>30&#45;&#45;31</title>
<path fill="none" stroke="black" d="M531,-215.7C531,-204.85 531,-190.92 531,-180.1"/>
</g>
<!-- 29 -->
<g id="node36" class="node">
<title>29</title>
<ellipse fill="none" stroke="black" cx="459" cy="-90" rx="27" ry="18"/>
<text text-anchor="middle" x="459" y="-84.58" font-family="Times New Roman,serif" font-size="14.00">n</text>
</g>
<!-- 28&#45;&#45;29 -->
<g id="edge41" class="edge">
<title>28&#45;&#45;29</title>
<path fill="none" stroke="black" d="M459,-143.7C459,-132.85 459,-118.92 459,-108.1"/>
</g>
<!-- 37 -->
<g id="node41" class="node">
<title>37</title>
<ellipse fill="none" stroke="black" cx="603" cy="-306" rx="27" ry="18"/>
<text text-anchor="middle" x="603" y="-300.57" font-family="Times New Roman,serif" font-size="14.00">S</text>
</g>
<!-- 36&#45;&#45;37 -->
<g id="edge42" class="edge">
<title>36&#45;&#45;37</title>
<path fill="none" stroke="black" d="M660.08,-362.5C647.72,-350.48 630.25,-333.49 617.9,-321.49"/>
</g>
<!-- 40 -->
<g id="node42" class="node">
<title>40</title>
<ellipse fill="none" stroke="black" cx="675" cy="-306" rx="27" ry="18"/>
<text text-anchor="middle" x="675" y="-300.57" font-family="Times New Roman,serif" font-size="14.00">T&#39;</text>
</g>
<!-- 36&#45;&#45;40 -->
<g id="edge43" class="edge">
<title>36&#45;&#45;40</title>
<path fill="none" stroke="black" d="M675,-359.7C675,-348.85 675,-334.92 675,-324.1"/>
</g>
<!-- 43 -->
<g id="node46" class="node">
<title>43</title>
<ellipse fill="none" stroke="black" cx="747" cy="-306" rx="27" ry="18"/>
<text text-anchor="middle" x="747" y="-300.57" font-family="Times New Roman,serif" font-size="14.00">&#45;</text>
</g>
<!-- 42&#45;&#45;43 -->
<g id="edge44" class="edge">
<title>42&#45;&#45;43</title>
<path fill="none" stroke="black" d="M774.65,-360.76C768.83,-349.46 761.11,-334.44 755.3,-323.15"/>
</g>
<!-- 44 -->
<g id="node47" class="node">
<title>44</title>
<ellipse fill="none" stroke="black" cx="819" cy="-306" rx="27" ry="18"/>
<text text-anchor="middle" x="819" y="-300.57" font-family="Times New Roman,serif" font-size="14.00">T</text>
</g>
<!-- 42&#45;&#45;44 -->
<g id="edge45" class="edge">
<title>42&#45;&#45;44</title>
<path fill="none" stroke="black" d="M791.35,-360.76C797.17,-349.46 804.89,-334.44 810.7,-323.15"/>
</g>
<!-- 50 -->
<g id="node48" class="node">
<title>50</title>
<ellipse fill="none" stroke="black" cx="927" cy="-306" rx="27" ry="18"/>
<text text-anchor="middle" x="927" y="-300.57" font-family="Times New Roman,serif" font-size="14.00">E&#39;</text>
</g>
<!-- 42&#45;&#45;50 -->
<g id="edge46" class="edge">
<title>42&#45;&#45;50</title>
<path fill="none" stroke="black" d="M804.56,-366.52C831.86,-353.25 878.61,-330.52 905.76,-317.32"/>
</g>
<!-- 38 -->
<g id="node43" class="node">
<title>38</title>
<ellipse fill="none" stroke="black" cx="603" cy="-234" rx="27" ry="18"/>
<text text-anchor="middle" x="603" y="-228.57" font-family="Times New Roman,serif" font-size="14.00">F</text>
</g>
<!-- 37&#45;&#45;38 -->
<g id="edge47" class="edge">
<title>37&#45;&#45;38</title>
<path fill="none" stroke="black" d="M603,-287.7C603,-276.85 603,-262.92 603,-252.1"/>
</g>
<!-- 41 -->
<g id="node45" class="node">
<title>41</title>
<ellipse fill="none" stroke="black" cx="675" cy="-234" rx="27" ry="18"/>
<text text-anchor="middle" x="675" y="-228.57" font-family="Times New Roman,serif" font-size="14.00">eps</text>
</g>
<!-- 40&#45;&#45;41 -->
<g id="edge48" class="edge">
<title>40&#45;&#45;41</title>
<path fill="none" stroke="black" d="M675,-287.7C675,-276.85 675,-262.92 675,-252.1"/>
</g>
<!-- 39 -->
<g id="node44" class="node">
<title>39</title>
<ellipse fill="none" stroke="black" cx="603" cy="-162" rx="27" ry="18"/>
<text text-anchor="middle" x="603" y="-156.57" font-family="Times New Roman,serif" font-size="14.00">n</text>
</g>
<!-- 38&#45;&#45;39 -->
<g id="edge49" class="edge">
<title>38&#45;&#45;39</title>
<path fill="none" stroke="black" d="M603,-215.7C603,-204.85 603,-190.92 603,-180.1"/>
</g>
<!-- 45 -->
<g id="node49" class="node">
<title>45</title>
<ellipse fill="none" stroke="black" cx="747" cy="-234" rx="27" ry="18"/>
<text text-anchor="middle" x="747" y="-228.57" font-family="Times New Roman,serif" font-size="14.00">S</text>
</g>
<!-- 44&#45;&#45;45 -->
<g id="edge50" class="edge">
<title>44&#45;&#45;45</title>
<path fill="none" stroke="black" d="M804.08,-290.5C791.72,-278.48 774.25,-261.49 761.9,-249.49"/>
</g>
<!-- 48 -->
<g id="node50" class="node">
<title>48</title>
<ellipse fill="none" stroke="black" cx="819" cy="-234" rx="27" ry="18"/>
<text text-anchor="middle" x="819" y="-228.57" font-family="Times New Roman,serif" font-size="14.00">T&#39;</text>
</g>
<!-- 44&#45;&#45;48 -->
<g id="edge51" class="edge">
<title>44&#45;&#45;48</title>
<path fill="none" stroke="black" d="M819,-287.7C819,-276.85 819,-262.92 819,-252.1"/>
</g>
<!-- 51 -->
<g id="node54" class="node">
<title>51</title>
<ellipse fill="none" stroke="black" cx="891" cy="-234" rx="27" ry="18"/>
<text text-anchor="middle" x="891" y="-228.57" font-family="Times New Roman,serif" font-size="14.00">+</text>
</g>
<!-- 50&#45;&#45;51 -->
<g id="edge52" class="edge">
<title>50&#45;&#45;51</title>
<path fill="none" stroke="black" d="M918.65,-288.76C912.83,-277.46 905.11,-262.44 899.3,-251.15"/>
</g>
<!-- 52 -->
<g id="node55" class="node">
<title>52</title>
<ellipse fill="none" stroke="black" cx="963" cy="-234" rx="27" ry="18"/>
<text text-anchor="middle" x="963" y="-228.57" font-family="Times New Roman,serif" font-size="14.00">T</text>
</g>
<!-- 50&#45;&#45;52 -->
<g id="edge53" class="edge">
<title>50&#45;&#45;52</title>
<path fill="none" stroke="black" d="M935.35,-288.76C941.17,-277.46 948.89,-262.44 954.7,-251.15"/>
</g>
<!-- 58 -->
<g id="node56" class="node">
<title>58</title>
<ellipse fill="none" stroke="black" cx="1035" cy="-234" rx="27" ry="18"/>
<text text-anchor="middle" x="1035" y="-228.57" font-family="Times New Roman,serif" font-size="14.00">E&#39;</text>
</g>
<!-- 50&#45;&#45;58 -->
<g id="edge54" class="edge">
<title>50&#45;&#45;58</title>
<path fill="none" stroke="black" d="M945.81,-292.81C965.51,-280.04 996.28,-260.09 1016.04,-247.29"/>
</g>
<!-- 46 -->
<g id="node51" class="node">
<title>46</title>
<ellipse fill="none" stroke="black" cx="747" cy="-162" rx="27" ry="18"/>
<text text-anchor="middle" x="747" y="-156.57" font-family="Times New Roman,serif" font-size="14.00">F</text>
</g>
<!-- 45&#45;&#45;46 -->
<g id="edge55" class="edge">
<title>45&#45;&#45;46</title>
<path fill="none" stroke="black" d="M747,-215.7C747,-204.85 747,-190.92 747,-180.1"/>
</g>
<!-- 49 -->
<g id="node53" class="node">
<title>49</title>
<ellipse fill="none" stroke="black" cx="819" cy="-162" rx="27" ry="18"/>
<text text-anchor="middle" x="819" y="-156.57" font-family="Times New Roman,serif" font-size="14.00">eps</text>
</g>
<!-- 48&#45;&#45;49 -->
<g id="edge56" class="edge">
<title>48&#45;&#45;49</title>
<path fill="none" stroke="black" d="M819,-215.7C819,-204.85 819,-190.92 819,-180.1"/>
</g>
<!-- 47 -->
<g id="node52" class="node">
<title>47</title>
<ellipse fill="none" stroke="black" cx="747" cy="-90" rx="27" ry="18"/>
<text text-anchor="middle" x="747" y="-84.58" font-family="Times New Roman,serif" font-size="14.00">n</text>
</g>
<!-- 46&#45;&#45;47 -->
<g id="edge57" class="edge">
<title>46&#45;&#45;47</title>
<path fill="none" stroke="black" d="M747,-143.7C747,-132.85 747,-118.92 747,-108.1"/>
</g>
<!-- 53 -->
<g id="node57" class="node">
<title>53</title>
<ellipse fill="none" stroke="black" cx="891" cy="-162" rx="27" ry="18"/>
<text text-anchor="middle" x="891" y="-156.57" font-family="Times New Roman,serif" font-size="14.00">S</text>
</g>
<!-- 52&#45;&#45;53 -->
<g id="edge58" class="edge">
<title>52&#45;&#45;53</title>
<path fill="none" stroke="black" d="M948.08,-218.5C935.72,-206.48 918.25,-189.49 905.9,-177.49"/>
</g>
<!-- 56 -->
<g id="node58" class="node">
<title>56</title>
<ellipse fill="none" stroke="black" cx="963" cy="-162" rx="27" ry="18"/>
<text text-anchor="middle" x="963" y="-156.57" font-family="Times New Roman,serif" font-size="14.00">T&#39;</text>
</g>
<!-- 52&#45;&#45;56 -->
<g id="edge59" class="edge">
<title>52&#45;&#45;56</title>
<path fill="none" stroke="black" d="M963,-215.7C963,-204.85 963,-190.92 963,-180.1"/>
</g>
<!-- 59 -->
<g id="node62" class="node">
<title>59</title>
<ellipse fill="none" stroke="black" cx="1035" cy="-162" rx="27" ry="18"/>
<text text-anchor="middle" x="1035" y="-156.57" font-family="Times New Roman,serif" font-size="14.00">eps</text>
</g>
<!-- 58&#45;&#45;59 -->
<g id="edge60" class="edge">
<title>58&#45;&#45;59</title>
<path fill="none" stroke="black" d="M1035,-215.7C1035,-204.85 1035,-190.92 1035,-180.1"/>
</g>
<!-- 54 -->
<g id="node59" class="node">
<title>54</title>
<ellipse fill="none" stroke="black" cx="891" cy="-90" rx="27" ry="18"/>
<text text-anchor="middle" x="891" y="-84.58" font-family="Times New Roman,serif" font-size="14.00">F</text>
</g>
<!-- 53&#45;&#45;54 -->
<g id="edge61" class="edge">
<title>53&#45;&#45;54</title>
<path fill="none" stroke="black" d="M891,-143.7C891,-132.85 891,-118.92 891,-108.1"/>
</g>
<!-- 57 -->
<g id="node61" class="node">
<title>57</title>
<ellipse fill="none" stroke="black" cx="963" cy="-90" rx="27" ry="18"/>
<text text-anchor="middle" x="963" y="-84.58" font-family="Times New Roman,serif" font-size="14.00">eps</text>
</g>
<!-- 56&#45;&#45;57 -->
<g id="edge62" class="edge">
<title>56&#45;&#45;57</title>
<path fill="none" stroke="black" d="M963,-143.7C963,-132.85 963,-118.92 963,-108.1"/>
</g>
<!-- 55 -->
<g id="node60" class="node">
<title>55</title>
<ellipse fill="none" stroke="black" cx="891" cy="-18" rx="27" ry="18"/>
<text text-anchor="middle" x="891" y="-12.57" font-family="Times New Roman,serif" font-size="14.00">n</text>
</g>
<!-- 54&#45;&#45;55 -->
<g id="edge63" class="edge">
<title>54&#45;&#45;55</title>
<path fill="none" stroke="black" d="M891,-71.7C891,-60.85 891,-46.92 891,-36.1"/>
</g>
<!-- 63 -->
<g id="node65" class="node">
<title>63</title>
<ellipse fill="none" stroke="black" cx="1107" cy="-306" rx="27" ry="18"/>
<text text-anchor="middle" x="1107" y="-300.57" font-family="Times New Roman,serif" font-size="14.00">S</text>
</g>
<!-- 62&#45;&#45;63 -->
<g id="edge64" class="edge">
<title>62&#45;&#45;63</title>
<path fill="none" stroke="black" d="M1120.64,-360.05C1117.81,-349.05 1114.14,-334.76 1111.32,-323.79"/>
</g>
<!-- 66 -->
<g id="node66" class="node">
<title>66</title>
<ellipse fill="none" stroke="black" cx="1179" cy="-306" rx="27" ry="18"/>
<text text-anchor="middle" x="1179" y="-300.57" font-family="Times New Roman,serif" font-size="14.00">T&#39;</text>
</g>
<!-- 62&#45;&#45;66 -->
<g id="edge65" class="edge">
<title>62&#45;&#45;66</title>
<path fill="none" stroke="black" d="M1136.98,-361.46C1145.93,-349.86 1158.11,-334.08 1167.05,-322.49"/>
</g>
<!-- 74 -->
<g id="node75" class="node">
<title>74</title>
<ellipse fill="none" stroke="black" cx="1251" cy="-306" rx="27" ry="18"/>
<text text-anchor="middle" x="1251" y="-300.57" font-family="Times New Roman,serif" font-size="14.00">eps</text>
</g>
<!-- 73&#45;&#45;74 -->
<g id="edge66" class="edge">
<title>73&#45;&#45;74</title>
<path fill="none" stroke="black" d="M1237.36,-360.05C1240.19,-349.05 1243.86,-334.76 1246.68,-323.79"/>
</g>
<!-- 64 -->
<g id="node67" class="node">
<title>64</title>
<ellipse fill="none" stroke="black" cx="1107" cy="-234" rx="27" ry="18"/>
<text text-anchor="middle" x="1107" y="-228.57" font-family="Times New Roman,serif" font-size="14.00">F</text>
</g>
<!-- 63&#45;&#45;64 -->
<g id="edge67" class="edge">
<title>63&#45;&#45;64</title>
<path fill="none" stroke="black" d="M1107,-287.7C1107,-276.85 1107,-262.92 1107,-252.1"/>
</g>
<!-- 67 -->
<g id="node69" class="node">
<title>67</title>
<ellipse fill="none" stroke="black" cx="1179" cy="-234" rx="27" ry="18"/>
<text text-anchor="middle" x="1179" y="-228.57" font-family="Times New Roman,serif" font-size="14.00">*</text>
</g>
<!-- 66&#45;&#45;67 -->
<g id="edge68" class="edge">
<title>66&#45;&#45;67</title>
<path fill="none" stroke="black" d="M1179,-287.7C1179,-276.85 1179,-262.92 1179,-252.1"/>
</g>
<!-- 68 -->
<g id="node70" class="node">
<title>68</title>
<ellipse fill="none" stroke="black" cx="1251" cy="-234" rx="27" ry="18"/>
<text text-anchor="middle" x="1251" y="-228.57" font-family="Times New Roman,serif" font-size="14.00">S</text>
</g>
<!-- 66&#45;&#45;68 -->
<g id="edge69" class="edge">
<title>66&#45;&#45;68</title>
<path fill="none" stroke="black" d="M1193.92,-290.5C1206.28,-278.48 1223.75,-261.49 1236.1,-249.49"/>
</g>
<!-- 71 -->
<g id="node71" class="node">
<title>71</title>
<ellipse fill="none" stroke="black" cx="1323" cy="-234" rx="27" ry="18"/>
<text text-anchor="middle" x="1323" y="-228.57" font-family="Times New Roman,serif" font-size="14.00">T&#39;</text>
</g>
<!-- 66&#45;&#45;71 -->
<g id="edge70" class="edge">
<title>66&#45;&#45;71</title>
<path fill="none" stroke="black" d="M1200.56,-294.52C1227.86,-281.25 1274.61,-258.52 1301.76,-245.32"/>
</g>
<!-- 65 -->
<g id="node68" class="node">
<title>65</title>
<ellipse fill="none" stroke="black" cx="1107" cy="-162" rx="27" ry="18"/>
<text text-anchor="middle" x="1107" y="-156.57" font-family="Times New Roman,serif" font-size="14.00">n</text>
</g>
<!-- 64&#45;&#45;65 -->
<g id="edge71" class="edge">
<title>64&#45;&#45;65</title>
<path fill="none" stroke="black" d="M1107,-215.7C1107,-204.85 1107,-190.92 1107,-180.1"/>
</g>
<!-- 69 -->
<g id="node72" class="node">
<title>69</title>
<ellipse fill="none" stroke="black" cx="1251" cy="-162" rx="27" ry="18"/>
<text text-anchor="middle" x="1251" y="-156.57" font-family="Times New Roman,serif" font-size="14.00">F</text>
</g>
<!-- 68&#45;&#45;69 -->
<g id="edge72" class="edge">
<title>68&#45;&#45;69</title>
<path fill="none" stroke="black" d="M1251,-215.7C1251,-204.85 1251,-190.92 1251,-180.1"/>
</g>
<!-- 72 -->
<g id="node74" class="node">
<title>72</title>
<ellipse fill="none" stroke="black" cx="1323" cy="-162" rx="27" ry="18"/>
<text text-anchor="middle" x="1323" y="-156.57" font-family="Times New Roman,serif" font-size="14.00">eps</text>
</g>
<!-- 71&#45;&#45;72 -->
<g id="edge73" class="edge">
<title>71&#45;&#45;72</title>
<path fill="none" stroke="black" d="M1323,-215.7C1323,-204.85 1323,-190.92 1323,-180.1"/>
</g>
<!-- 70 -->
<g id="node73" class="node">
<title>70</title>
<ellipse fill="none" stroke="black" cx="1251" cy="-90" rx="27" ry="18"/>
<text text-anchor="middle" x="1251" y="-84.58" font-family="Times New Roman,serif" font-size="14.00">n</text>
</g>
<!-- 69&#45;&#45;70 -->
<g id="edge74" class="edge">
<title>69&#45;&#45;70</title>
<path fill="none" stroke="black" d="M1251,-143.7C1251,-132.85 1251,-118.92 1251,-108.1"/>
</g>
</g>
</svg>
