<svg width="1214px" height="908px"
 viewBox="0.00 0.00 1214.00 908.00" xmlns="http://www.w3.org/2000/svg" xmlns:xlink="http://www.w3.org/1999/xlink">
<g id="graph0" class="graph" transform="scale(1.0 1.0) rotate(0.0) translate(4.0 904.0)">
<polygon fill="white" stroke="none" points="-4,4 -4,-904 1210,-904 1210,4 -4,4"/>
<!-- 0 -->
<g id="node1" class="node">
<title>0</title>
<ellipse fill="none" stroke="black" cx="423" cy="-882" rx="27" ry="18"/>
<text text-anchor="middle" x="423" y="-876.58" font-family="Times New Roman,serif" font-size="14.00">C</text>
</g>
<!-- 1 -->
<g id="node2" class="node">
<title>1</title>
<ellipse fill="none" stroke="black" cx="243" cy="-810" rx="27" ry="18"/>
<text text-anchor="middle" x="243" y="-804.58" font-family="Times New Roman,serif" font-size="14.00">E</text>
</g>
<!-- 0&#45;&#45;1 -->
<g id="edge1" class="edge">
<title>0&#45;&#45;1</title>
<path fill="none" stroke="black" d="M400.2,-872.13C365.67,-858.71 300.48,-833.35 265.9,-819.9"/>
</g>
<!-- 18 -->
<g id="node3" class="node">
<title>18</title>
<ellipse fill="none" stroke="black" cx="603" cy="-810" rx="27" ry="18"/>
<text text-anchor="middle" x="603" y="-804.58" font-family="Times New Roman,serif" font-size="14.00">C&#39;</text>
</g>
<!-- 0&#45;&#45;18 -->
<g id="edge2" class="edge">
<title>0&#45;&#45;18</title>
<path fill="none" stroke="black" d="M445.8,-872.13C480.33,-858.71 545.52,-833.35 580.1,-819.9"/>
</g>
<!-- 2 -->
<g id="node4" class="node">
<title>2</title>
<ellipse fill="none" stroke="black" cx="99" cy="-738" rx="27" ry="18"/>
<text text-anchor="middle" x="99" y="-732.58" font-family="Times New Roman,serif" font-size="14.00">T</text>
</g>
<!-- 1&#45;&#45;2 -->
<g id="edge3" class="edge">
<title>1&#45;&#45;2</title>
<path fill="none" stroke="black" d="M221.44,-798.52C194.14,-785.25 147.39,-762.52 120.24,-749.32"/>
</g>
<!-- 8 -->
<g id="node5" class="node">
<title>8</title>
<ellipse fill="none" stroke="black" cx="243" cy="-738" rx="27" ry="18"/>
<text text-anchor="middle" x="243" y="-732.58" font-family="Times New Roman,serif" font-size="14.00">E&#39;</text>
</g>
<!-- 1&#45;&#45;8 -->
<g id="edge4" class="edge">
<title>1&#45;&#45;8</title>
<path fill="none" stroke="black" d="M243,-791.7C243,-780.85 243,-766.92 243,-756.1"/>
</g>
<!-- 19 -->
<g id="node20" class="node">
<title>19</title>
<ellipse fill="none" stroke="black" cx="459" cy="-738" rx="27" ry="18"/>
<text text-anchor="middle" x="459" y="-732.58" font-family="Times New Roman,serif" font-size="14.00">==</text>
</g>
<!-- 18&#45;&#45;19 -->
<g id="edge5" class="edge">
<title>18&#45;&#45;19</title>
<path fill="none" stroke="black" d="M581.44,-798.52C554.14,-785.25 507.39,-762.52 480.24,-749.32"/>
</g>
<!-- 20 -->
<g id="node21" class="node">
<title>20</title>
<ellipse fill="none" stroke="black" cx="531" cy="-738" rx="27" ry="18"/>
<text text-anchor="middle" x="531" y="-732.58" font-family="Times New Roman,serif" font-size="14.00">E</text>
</g>
<!-- 18&#45;&#45;20 -->
<g id="edge6" class="edge">
<title>18&#45;&#45;20</title>
<path fill="none" stroke="black" d="M588.08,-794.5C575.72,-782.48 558.25,-765.49 545.9,-753.49"/>
</g>
<!-- 34 -->
<g id="node22" class="node">
<title>34</title>
<ellipse fill="none" stroke="black" cx="603" cy="-738" rx="27" ry="18"/>
<text text-anchor="middle" x="603" y="-732.58" font-family="Times New Roman,serif" font-size="14.00">?</text>
</g>
<!-- 18&#45;&#45;34 -->
<g id="edge7" class="edge">
<title>18&#45;&#45;34</title>
<path fill="none" stroke="black" d="M603,-791.7C603,-780.85 603,-766.92 603,-756.1"/>
</g>
<!-- 35 -->
<g id="node23" class="node">
<title>35</title>
<ellipse fill="none" stroke="black" cx="675" cy="-738" rx="27" ry="18"/>
<text text-anchor="middle" x="675" y="-732.58" font-family="Times New Roman,serif" font-size="14.00">E</text>
</g>
<!-- 18&#45;&#45;35 -->
<g id="edge8" class="edge">
<title>18&#45;&#45;35</title>
<path fill="none" stroke="black" d="M617.92,-794.5C630.28,-782.48 647.75,-765.49 660.1,-753.49"/>
</g>
<!-- 86 -->
<g id="node24" class="node">
<title>86</title>
<ellipse fill="none" stroke="black" cx="747" cy="-738" rx="27" ry="18"/>
<text text-anchor="middle" x="747" y="-732.58" font-family="Times New Roman,serif" font-size="14.00">:</text>
</g>
<!-- 18&#45;&#45;86 -->
<g id="edge9" class="edge">
<title>18&#45;&#45;86</title>
<path fill="none" stroke="black" d="M624.56,-798.52C651.86,-785.25 698.61,-762.52 725.76,-749.32"/>
</g>
<!-- 87 -->
<g id="node25" class="node">
<title>87</title>
<ellipse fill="none" stroke="black" cx="837" cy="-738" rx="27" ry="18"/>
<text text-anchor="middle" x="837" y="-732.58" font-family="Times New Roman,serif" font-size="14.00">E</text>
</g>
<!-- 18&#45;&#45;87 -->
<g id="edge10" class="edge">
<title>18&#45;&#45;87</title>
<path fill="none" stroke="black" d="M627.5,-801.94C662.18,-791.92 727.53,-772.9 783,-756 792.78,-753.02 803.52,-749.66 812.84,-746.71"/>
</g>
<!-- 3 -->
<g id="node6" class="node">
<title>3</title>
<ellipse fill="none" stroke="black" cx="27" cy="-666" rx="27" ry="18"/>
<text text-anchor="middle" x="27" y="-660.58" font-family="Times New Roman,serif" font-size="14.00">S</text>
</g>
<!-- 2&#45;&#45;3 -->
<g id="edge11" class="edge">
<title>2&#45;&#45;3</title>
<path fill="none" stroke="black" d="M84.08,-722.5C71.72,-710.48 54.25,-693.49 41.9,-681.49"/>
</g>
<!-- 6 -->
<g id="node7" class="node">
<title>6</title>
<ellipse fill="none" stroke="black" cx="99" cy="-666" rx="27" ry="18"/>
<text text-anchor="middle" x="99" y="-660.58" font-family="Times New Roman,serif" font-size="14.00">T&#39;</text>
</g>
<!-- 2&#45;&#45;6 -->
<g id="edge12" class="edge">
<title>2&#45;&#45;6</title>
<path fill="none" stroke="black" d="M99,-719.7C99,-708.85 99,-694.92 99,-684.1"/>
</g>
<!-- 9 -->
<g id="node11" class="node">
<title>9</title>
<ellipse fill="none" stroke="black" cx="171" cy="-666" rx="27" ry="18"/>
<text text-anchor="middle" x="171" y="-660.58" font-family="Times New Roman,serif" font-size="14.00">+</text>
</g>
<!-- 8&#45;&#45;9 -->
<g id="edge13" class="edge">
<title>8&#45;&#45;9</title>
<path fill="none" stroke="black" d="M228.08,-722.5C215.72,-710.48 198.25,-693.49 185.9,-681.49"/>
</g>
<!-- 10 -->
<g id="node12" class="node">
<title>10</title>
<ellipse fill="none" stroke="black" cx="243" cy="-666" rx="27" ry="18"/>
<text text-anchor="middle" x="243" y="-660.58" font-family="Times New Roman,serif" font-size="14.00">T</text>
</g>
<!-- 8&#45;&#45;10 -->
<g id="edge14" class="edge">
<title>8&#45;&#45;10</title>
<path fill="none" stroke="black" d="M243,-719.7C243,-708.85 243,-694.92 243,-684.1"/>
</g>
<!-- 16 -->
<g id="node13" class="node">
<title>16</title>
<ellipse fill="none" stroke="black" cx="315" cy="-666" rx="27" ry="18"/>
<text text-anchor="middle" x="315" y="-660.58" font-family="Times New Roman,serif" font-size="14.00">E&#39;</text>
</g>
<!-- 8&#45;&#45;16 -->
<g id="edge15" class="edge">
<title>8&#45;&#45;16</title>
<path fill="none" stroke="black" d="M257.92,-722.5C270.28,-710.48 287.75,-693.49 300.1,-681.49"/>
</g>
<!-- 4 -->
<g id="node8" class="node">
<title>4</title>
<ellipse fill="none" stroke="black" cx="27" cy="-594" rx="27" ry="18"/>
<text text-anchor="middle" x="27" y="-588.58" font-family="Times New Roman,serif" font-size="14.00">F</text>
</g>
<!-- 3&#45;&#45;4 -->
<g id="edge16" class="edge">
<title>3&#45;&#45;4</title>
<path fill="none" stroke="black" d="M27,-647.7C27,-636.85 27,-622.92 27,-612.1"/>
</g>
<!-- 7 -->
<g id="node10" class="node">
<title>7</title>
<ellipse fill="none" stroke="black" cx="99" cy="-594" rx="27" ry="18"/>
<text text-anchor="middle" x="99" y="-588.58" font-family="Times New Roman,serif" font-size="14.00">eps</text>
</g>
<!-- 6&#45;&#45;7 -->
<g id="edge17" class="edge">
<title>6&#45;&#45;7</title>
<path fill="none" stroke="black" d="M99,-647.7C99,-636.85 99,-622.92 99,-612.1"/>
</g>
<!-- 5 -->
<g id="node9" class="node">
<title>5</title>
<ellipse fill="none" stroke="black" cx="27" cy="-522" rx="27" ry="18"/>
<text text-anchor="middle" x="27" y="-516.58" font-family="Times New Roman,serif" font-size="14.00">n</text>
</g>
<!-- 4&#45;&#45;5 -->
<g id="edge18" class="edge">
<title>4&#45;&#45;5</title>
<path fill="none" stroke="black" d="M27,-575.7C27,-564.85 27,-550.92 27,-540.1"/>
</g>
<!-- 11 -->
<g id="node14" class="node">
<title>11</title>
<ellipse fill="none" stroke="black" cx="171" cy="-594" rx="27" ry="18"/>
<text text-anchor="middle" x="171" y="-588.58" font-family="Times New Roman,serif" font-size="14.00">S</text>
</g>
<!-- 10&#45;&#45;11 -->
<g id="edge19" class="edge">
<title>10&#45;&#45;11</title>
<path fill="none" stroke="black" d="M228.08,-650.5C215.72,-638.48 198.25,-621.49 185.9,-609.49"/>
</g>
<!-- 14 -->
<g id="node15" class="node">
<title>14</title>
<ellipse fill="none" stroke="black" cx="243" cy="-594" rx="27" ry="18"/>
<text text-anchor="middle" x="243" y="-588.58" font-family="Times New Roman,serif" font-size="14.00">T&#39;</text>
</g>
<!-- 10&#45;&#45;14 -->
<g id="edge20" class="edge">
<title>10&#45;&#45;14</title>
<path fill="none" stroke="black" d="M243,-647.7C243,-636.85 243,-622.92 243,-612.1"/>
</g>
<!-- 17 -->
<g id="node19" class="node">
<title>17</title>
<ellipse fill="none" stroke="black" cx="315" cy="-594" rx="27" ry="18"/>
<text text-anchor="middle" x="315" y="-588.58" font-family="Times New Roman,serif" font-size="14.00">eps</text>
</g>
<!-- 16&#45;&#45;17 -->
<g id="edge21" class="edge">
<title>16&#45;&#45;17</title>
<path fill="none" stroke="black" d="M315,-647.7C315,-636.85 315,-622.92 315,-612.1"/>
</g>
<!-- 12 -->
<g id="node16" class="node">
<title>12</title>
<ellipse fill="none" stroke="black" cx="171" cy="-522" rx="27" ry="18"/>
<text text-anchor="middle" x="171" y="-516.58" font-family="Times New Roman,serif" font-size="14.00">F</text>
</g>
<!-- 11&#45;&#45;12 -->
<g id="edge22" class="edge">
<title>11&#45;&#45;12</title>
<path fill="none" stroke="black" d="M171,-575.7C171,-564.85 171,-550.92 171,-540.1"/>
</g>
<!-- 15 -->
<g id="node18" class="node">
<title>15</title>
<ellipse fill="none" stroke="black" cx="243" cy="-522" rx="27" ry="18"/>
<text text-anchor="middle" x="243" y="-516.58" font-family="Times New Roman,serif" font-size="14.00">eps</text>
</g>
<!-- 14&#45;&#45;15 -->
<g id="edge23" class="edge">
<title>14&#45;&#45;15</title>
<path fill="none" stroke="black" d="M243,-575.7C243,-564.85 243,-550.92 243,-540.1"/>
</g>
<!-- 13 -->
<g id="node17" class="node">
<title>13</title>
<ellipse fill="none" stroke="black" cx="171" cy="-450" rx="27" ry="18"/>
<text text-anchor="middle" x="171" y="-444.57" font-family="Times New Roman,serif" font-size="14.00">n</text>
</g>
<!-- 12&#45;&#45;13 -->
<g id="edge24" class="edge">
<title>12&#45;&#45;13</title>
<path fill="none" stroke="black" d="M171,-503.7C171,-492.85 171,-478.92 171,-468.1"/>
</g>
<!-- 21 -->
<g id="node26" class="node">
<title>21</title>
<ellipse fill="none" stroke="black" cx="459" cy="-666" rx="27" ry="18"/>
<text text-anchor="middle" x="459" y="-660.58" font-family="Times New Roman,serif" font-size="14.00">T</text>
</g>
<!-- 20&#45;&#45;21 -->
<g id="edge25" class="edge">
<title>20&#45;&#45;21</title>
<path fill="none" stroke="black" d="M516.08,-722.5C503.72,-710.48 486.25,-693.49 473.9,-681.49"/>
</g>
<!-- 32 -->
<g id="node27" class="node">
<title>32</title>
<ellipse fill="none" stroke="black" cx="531" cy="-666" rx="27" ry="18"/>
<text text-anchor="middle" x="531" y="-660.58" font-family="Times New Roman,serif" font-size="14.00">E&#39;</text>
</g>
<!-- 20&#45;&#45;32 -->
<g id="edge26" class="edge">
<title>20&#45;&#45;32</title>
<path fill="none" stroke="black" d="M531,-719.7C531,-708.85 531,-694.92 531,-684.1"/>
</g>
<!-- 36 -->
<g id="node39" class="node">
<title>36</title>
<ellipse fill="none" stroke="black" cx="675" cy="-666" rx="27" ry="18"/>
<text text-anchor="middle" x="675" y="-660.58" font-family="Times New Roman,serif" font-size="14.00">T</text>
</g>
<!-- 35&#45;&#45;36 -->
<g id="edge27" class="edge">
<title>35&#45;&#45;36</title>
<path fill="none" stroke="black" d="M675,-719.7C675,-708.85 675,-694.92 675,-684.1"/>
</g>
<!-- 84 -->
<g id="node40" class="node">
<title>84</title>
<ellipse fill="none" stroke="black" cx="747" cy="-666" rx="27" ry="18"/>
<text text-anchor="middle" x="747" y="-660.58" font-family="Times New Roman,serif" font-size="14.00">E&#39;</text>
</g>
<!-- 35&#45;&#45;84 -->
<g id="edge28" class="edge">
<title>35&#45;&#45;84</title>
<path fill="none" stroke="black" d="M689.92,-722.5C702.28,-710.48 719.75,-693.49 732.1,-681.49"/>
</g>
<!-- 88 -->
<g id="node89" class="node">
<title>88</title>
<ellipse fill="none" stroke="black" cx="837" cy="-666" rx="27" ry="18"/>
<text text-anchor="middle" x="837" y="-660.58" font-family="Times New Roman,serif" font-size="14.00">T</text>
</g>
<!-- 87&#45;&#45;88 -->
<g id="edge29" class="edge">
<title>87&#45;&#45;88</title>
<path fill="none" stroke="black" d="M837,-719.7C837,-708.85 837,-694.92 837,-684.1"/>
</g>
<!-- 94 -->
<g id="node90" class="node">
<title>94</title>
<ellipse fill="none" stroke="black" cx="945" cy="-666" rx="27" ry="18"/>
<text text-anchor="middle" x="945" y="-660.58" font-family="Times New Roman,serif" font-size="14.00">E&#39;</text>
</g>
<!-- 87&#45;&#45;94 -->
<g id="edge30" class="edge">
<title>87&#45;&#45;94</title>
<path fill="none" stroke="black" d="M855.81,-724.81C875.51,-712.04 906.28,-692.09 926.04,-679.29"/>
</g>
<!-- 22 -->
<g id="node28" class="node">
<title>22</title>
<ellipse fill="none" stroke="black" cx="387" cy="-594" rx="27" ry="18"/>
<text text-anchor="middle" x="387" y="-588.58" font-family="Times New Roman,serif" font-size="14.00">S</text>
</g>
<!-- 21&#45;&#45;22 -->
<g id="edge31" class="edge">
<title>21&#45;&#45;22</title>
<path fill="none" stroke="black" d="M444.08,-650.5C431.72,-638.48 414.25,-621.49 401.9,-609.49"/>
</g>
<!-- 25 -->
<g id="node29" class="node">
<title>25</title>
<ellipse fill="none" stroke="black" cx="459" cy="-594" rx="27" ry="18"/>
<text text-anchor="middle" x="459" y="-588.58" font-family="Times New Roman,serif" font-size="14.00">T&#39;</text>
</g>
<!-- 21&#45;&#45;25 -->
<g id="edge32" class="edge">
<title>21&#45;&#45;25</title>
<path fill="none" stroke="black" d="M459,-647.7C459,-636.85 459,-622.92 459,-612.1"/>
</g>
<!-- 33 -->
<g id="node38" class="node">
<title>33</title>
<ellipse fill="none" stroke="black" cx="531" cy="-594" rx="27" ry="18"/>
<text text-anchor="middle" x="531" y="-588.58" font-family="Times New Roman,serif" font-size="14.00">eps</text>
</g>
<!-- 32&#45;&#45;33 -->
<g id="edge33" class="edge">
<title>32&#45;&#45;33</title>
<path fill="none" stroke="black" d="M531,-647.7C531,-636.85 531,-622.92 531,-612.1"/>
</g>
<!-- 23 -->
<g id="node30" class="node">
<title>23</title>
<ellipse fill="none" stroke="black" cx="315" cy="-522" rx="27" ry="18"/>
<text text-anchor="middle" x="315" y="-516.58" font-family="Times New Roman,serif" font-size="14.00">F</text>
</g>
<!-- 22&#45;&#45;23 -->
<g id="edge34" class="edge">
<title>22&#45;&#45;23</title>
<path fill="none" stroke="black" d="M372.08,-578.5C359.72,-566.48 342.25,-549.49 329.9,-537.49"/>
</g>
<!-- 26 -->
<g id="node32" class="node">
<title>26</title>
<ellipse fill="none" stroke="black" cx="387" cy="-522" rx="27" ry="18"/>
<text text-anchor="middle" x="387" y="-516.58" font-family="Times New Roman,serif" font-size="14.00">*</text>
</g>
<!-- 25&#45;&#45;26 -->
<g id="edge35" class="edge">
<title>25&#45;&#45;26</title>
<path fill="none" stroke="black" d="M444.08,-578.5C431.72,-566.48 414.25,-549.49 401.9,-537.49"/>
</g>
<!-- 27 -->
<g id="node33" class="node">
<title>27</title>
<ellipse fill="none" stroke="black" cx="459" cy="-522" rx="27" ry="18"/>
<text text-anchor="middle" x="459" y="-516.58" font-family="Times New Roman,serif" font-size="14.00">S</text>
</g>
<!-- 25&#45;&#45;27 -->
<g id="edge36" class="edge">
<title>25&#45;&#45;27</title>
<path fill="none" stroke="black" d="M459,-575.7C459,-564.85 459,-550.92 459,-540.1"/>
</g>
<!-- 30 -->
<g id="node34" class="node">
<title>30</title>
<ellipse fill="none" stroke="black" cx="531" cy="-522" rx="27" ry="18"/>
<text text-anchor="middle" x="531" y="-516.58" font-family="Times New Roman,serif" font-size="14.00">T&#39;</text>
</g>
<!-- 25&#45;&#45;30 -->
<g id="edge37" class="edge">
<title>25&#45;&#45;30</title>
<path fill="none" stroke="black" d="M473.92,-578.5C486.28,-566.48 503.75,-549.49 516.1,-537.49"/>
</g>
<!-- 24 -->
<g id="node31" class="node">
<title>24</title>
<ellipse fill="none" stroke="black" cx="315" cy="-450" rx="27" ry="18"/>
<text text-anchor="middle" x="315" y="-444.57" font-family="Times New Roman,serif" font-size="14.00">n</text>
</g>
<!-- 23&#45;&#45;24 -->
<g id="edge38" class="edge">
<title>23&#45;&#45;24</title>
<path fill="none" stroke="black" d="M315,-503.7C315,-492.85 315,-478.92 315,-468.1"/>
</g>
<!-- 28 -->
<g id="node35" class="node">
<title>28</title>
<ellipse fill="none" stroke="black" cx="459" cy="-450" rx="27" ry="18"/>
<text text-anchor="middle" x="459" y="-444.57" font-family="Times New Roman,serif" font-size="14.00">F</text>
</g>
<!-- 27&#45;&#45;28 -->
<g id="edge39" class="edge">
<title>27&#45;&#45;28</title>
<path fill="none" stroke="black" d="M459,-503.7C459,-492.85 459,-478.92 459,-468.1"/>
</g>
<!-- 31 -->
<g id="node37" class="node">
<title>31</title>
<ellipse fill="none" stroke="black" cx="531" cy="-450" rx="27" ry="18"/>
<text text-anchor="middle" x="531" y="-444.57" font-family="Times New Roman,serif" font-size="14.00">eps</text>
</g>
<!-- 30&#45;&#45;31 -->
<g id="edge40" class="edge">
<title>30&#45;&#45;31</title>
<path fill="none" stroke="black" d="M531,-503.7C531,-492.85 531,-478.92 531,-468.1"/>
</g>
<!-- 29 -->
<g id="node36" class="node">
<title>29</title>
<ellipse fill="none" stroke="black" cx="459" cy="-378" rx="27" ry="18"/>
<text text-anchor="middle" x="459" y="-372.57" font-family="Times New Roman,serif" font-size="14.00">n</text>
</g>
<!-- 28&#45;&#45;29 -->
<g id="edge41" class="edge">
<title>28&#45;&#45;29</title>
<path fill="none" stroke="black" d="M459,-431.7C459,-420.85 459,-406.92 459,-396.1"/>
</g>
<!-- 37 -->
<g id="node41" class="node">
<title>37</title>
<ellipse fill="none" stroke="black" cx="603" cy="-594" rx="27" ry="18"/>
<text text-anchor="middle" x="603" y="-588.58" font-family="Times New Roman,serif" font-size="14.00">S</text>
</g>
<!-- 36&#45;&#45;37 -->
<g id="edge42" class="edge">
<title>36&#45;&#45;37</title>
<path fill="none" stroke="black" d="M660.08,-650.5C647.72,-638.48 630.25,-621.49 617.9,-609.49"/>
</g>
<!-- 82 -->
<g id="node42" class="node">
<title>82</title>
<ellipse fill="none" stroke="black" cx="675" cy="-594" rx="27" ry="18"/>
<text text-anchor="middle" x="675" y="-588.58" font-family="Times New Roman,serif" font-size="14.00">T&#39;</text>
</g>
<!-- 36&#45;&#45;82 -->
<g id="edge43" class="edge">
<title>36&#45;&#45;82</title>
<path fill="none" stroke="black" d="M675,-647.7C675,-636.85 675,-622.92 675,-612.1"/>
</g>
<!-- 85 -->
<g id="node88" class="node">
<title>85</title>
<ellipse fill="none" stroke="black" cx="747" cy="-594" rx="27" ry="18"/>
<text text-anchor="middle" x="747" y="-588.58" font-family="Times New Roman,serif" font-size="14.00">eps</text>
</g>
<!-- 84&#45;&#45;85 -->
<g id="edge44" class="edge">
<title>84&#45;&#45;85</title>
<path fill="none" stroke="black" d="M747,-647.7C747,-636.85 747,-622.92 747,-612.1"/>
</g>
<!-- 38 -->
<g id="node43" class="node">
<title>38</title>
<ellipse fill="none" stroke="black" cx="603" cy="-522" rx="27" ry="18"/>
<text text-anchor="middle" x="603" y="-516.58" font-family="Times New Roman,serif" font-size="14.00">F</text>
</g>
<!-- 37&#45;&#45;38 -->
<g id="edge45" class="edge">
<title>37&#45;&#45;38</title>
<path fill="none" stroke="black" d="M603,-575.7C603,-564.85 603,-550.92 603,-540.1"/>
</g>
<!-- 83 -->
<g id="node87" class="node">
<title>83</title>
<ellipse fill="none" stroke="black" cx="675" cy="-522" rx="27" ry="18"/>
<text text-anchor="middle" x="675" y="-516.58" font-family="Times New Roman,serif" font-size="14.00">eps</text>
</g>
<!-- 82&#45;&#45;83 -->
<g id="edge46" class="edge">
<title>82&#45;&#45;83</title>
<path fill="none" stroke="black" d="M675,-575.7C675,-564.85 675,-550.92 675,-540.1"/>
</g>
<!-- 39 -->
<g id="node44" class="node">
<title>39</title>
<ellipse fill="none" stroke="black" cx="603" cy="-450" rx="27" ry="18"/>
<text text-anchor="middle" x="603" y="-444.57" font-family="Times New Roman,serif" font-size="14.00">(</text>
</g>
<!-- 38&#45;&#45;39 -->
<g id="edge47" class="edge">
<title>38&#45;&#45;39</title>
<path fill="none" stroke="black" d="M603,-503.7C603,-492.85 603,-478.92 603,-468.1"/>
</g>
<!-- 40 -->
<g id="node45" class="node">
<title>40</title>
<ellipse fill="none" stroke="black" cx="675" cy="-450" rx="27" ry="18"/>
<text text-anchor="middle" x="675" y="-444.57" font-family="Times New Roman,serif" font-size="14.00">C</text>
</g>
<!-- 38&#45;&#45;40 -->
<g id="edge48" class="edge">
<title>38&#45;&#45;40</title>
<path fill="none" stroke="black" d="M617.92,-506.5C630.28,-494.48 647.75,-477.49 660.1,-465.49"/>
</g>
<!-- 81 -->
<g id="node46" class="node">
<title>81</title>
<ellipse fill="none" stroke="black" cx="747" cy="-450" rx="27" ry="18"/>
<text text-anchor="middle" x="747" y="-444.57" font-family="Times New Roman,serif" font-size="14.00">)</text>
</g>
<!-- 38&#45;&#45;81 -->
<g id="edge49" class="edge">
<title>38&#45;&#45;81</title>
<path fill="none" stroke="black" d="M624.56,-510.52C651.86,-497.25 698.61,-474.52 725.76,-461.32"/>
</g>
<!-- 41 -->
<g id="node47" class="node">
<title>41</title>
<ellipse fill="none" stroke="black" cx="603" cy="-378" rx="27" ry="18"/>
<text text-anchor="middle" x="603" y="-372.57" font-family="Times New Roman,serif" font-size="14.00">E</text>
</g>
<!-- 40&#45;&#45;41 -->
<g id="edge50" class="edge">
<title>40&#45;&#45;41</title>
<path fill="none" stroke="black" d="M660.08,-434.5C647.72,-422.48 630.25,-405.49 617.9,-393.49"/>
</g>
<!-- 50 -->
<g id="node48" class="node">
<title>50</title>
<ellipse fill="none" stroke="black" cx="819" cy="-378" rx="27" ry="18"/>
<text text-anchor="middle" x="819" y="-372.57" font-family="Times New Roman,serif" font-size="14.00">C&#39;</text>
</g>
<!-- 40&#45;&#45;50 -->
<g id="edge51" class="edge">
<title>40&#45;&#45;50</title>
<path fill="none" stroke="black" d="M696.56,-438.52C723.86,-425.25 770.61,-402.52 797.76,-389.32"/>
</g>
<!-- 42 -->
<g id="node49" class="node">
<title>42</title>
<ellipse fill="none" stroke="black" cx="531" cy="-306" rx="27" ry="18"/>
<text text-anchor="middle" x="531" y="-300.57" font-family="Times New Roman,serif" font-size="14.00">T</text>
</g>
<!-- 41&#45;&#45;42 -->
<g id="edge52" class="edge">
<title>41&#45;&#45;42</title>
<path fill="none" stroke="black" d="M588.08,-362.5C575.72,-350.48 558.25,-333.49 545.9,-321.49"/>
</g>
<!-- 48 -->
<g id="node50" class="node">
<title>48</title>
<ellipse fill="none" stroke="black" cx="603" cy="-306" rx="27" ry="18"/>
<text text-anchor="middle" x="603" y="-300.57" font-family="Times New Roman,serif" font-size="14.00">E&#39;</text>
</g>
<!-- 41&#45;&#45;48 -->
<g id="edge53" class="edge">
<title>41&#45;&#45;48</title>
<path fill="none" stroke="black" d="M603,-359.7C603,-348.85 603,-334.92 603,-324.1"/>
</g>
<!-- 51 -->
<g id="node57" class="node">
<title>51</title>
<ellipse fill="none" stroke="black" cx="675" cy="-306" rx="27" ry="18"/>
<text text-anchor="middle" x="675" y="-300.57" font-family="Times New Roman,serif" font-size="14.00">==</text>
</g>
<!-- 50&#45;&#45;51 -->
<g id="edge54" class="edge">
<title>50&#45;&#45;51</title>
<path fill="none" stroke="black" d="M797.44,-366.52C770.14,-353.25 723.39,-330.52 696.24,-317.32"/>
</g>
<!-- 52 -->
<g id="node58" class="node">
<title>52</title>
<ellipse fill="none" stroke="black" cx="747" cy="-306" rx="27" ry="18"/>
<text text-anchor="middle" x="747" y="-300.57" font-family="Times New Roman,serif" font-size="14.00">E</text>
</g>
<!-- 50&#45;&#45;52 -->
<g id="edge55" class="edge">
<title>50&#45;&#45;52</title>
<path fill="none" stroke="black" d="M804.08,-362.5C791.72,-350.48 774.25,-333.49 761.9,-321.49"/>
</g>
<!-- 61 -->
<g id="node59" class="node">
<title>61</title>
<ellipse fill="none" stroke="black" cx="819" cy="-306" rx="27" ry="18"/>
<text text-anchor="middle" x="819" y="-300.57" font-family="Times New Roman,serif" font-size="14.00">?</text>
</g>
<!-- 50&#45;&#45;61 -->
<g id="edge56" class="edge">
<title>50&#45;&#45;61</title>
<path fill="none" stroke="black" d="M819,-359.7C819,-348.85 819,-334.92 819,-324.1"/>
</g>
<!-- 62 -->
<g id="node60" class="node">
<title>62</title>
<ellipse fill="none" stroke="black" cx="891" cy="-306" rx="27" ry="18"/>
<text text-anchor="middle" x="891" y="-300.57" font-family="Times New Roman,serif" font-size="14.00">E</text>
</g>
<!-- 50&#45;&#45;62 -->
<g id="edge57" class="edge">
<title>50&#45;&#45;62</title>
<path fill="none" stroke="black" d="M833.92,-362.5C846.28,-350.48 863.75,-333.49 876.1,-321.49"/>
</g>
<!-- 71 -->
<g id="node61" class="node">
<title>71</title>
<ellipse fill="none" stroke="black" cx="963" cy="-306" rx="27" ry="18"/>
<text text-anchor="middle" x="963" y="-300.57" font-family="Times New Roman,serif" font-size="14.00">:</text>
</g>
<!-- 50&#45;&#45;71 -->
<g id="edge58" class="edge">
<title>50&#45;&#45;71</title>
<path fill="none" stroke="black" d="M840.56,-366.52C867.86,-353.25 914.61,-330.52 941.76,-317.32"/>
</g>
<!-- 72 -->
<g id="node62" class="node">
<title>72</title>
<ellipse fill="none" stroke="black" cx="1035" cy="-306" rx="27" ry="18"/>
<text text-anchor="middle" x="1035" y="-300.57" font-family="Times New Roman,serif" font-size="14.00">E</text>
</g>
<!-- 50&#45;&#45;72 -->
<g id="edge59" class="edge">
<title>50&#45;&#45;72</title>
<path fill="none" stroke="black" d="M844.15,-370.91C879.32,-362.1 944.96,-344.57 999,-324 1003.91,-322.13 1009.08,-319.87 1013.92,-317.62"/>
</g>
<!-- 43 -->
<g id="node51" class="node">
<title>43</title>
<ellipse fill="none" stroke="black" cx="459" cy="-234" rx="27" ry="18"/>
<text text-anchor="middle" x="459" y="-228.57" font-family="Times New Roman,serif" font-size="14.00">S</text>
</g>
<!-- 42&#45;&#45;43 -->
<g id="edge60" class="edge">
<title>42&#45;&#45;43</title>
<path fill="none" stroke="black" d="M516.08,-290.5C503.72,-278.48 486.25,-261.49 473.9,-249.49"/>
</g>
<!-- 46 -->
<g id="node52" class="node">
<title>46</title>
<ellipse fill="none" stroke="black" cx="531" cy="-234" rx="27" ry="18"/>
<text text-anchor="middle" x="531" y="-228.57" font-family="Times New Roman,serif" font-size="14.00">T&#39;</text>
</g>
<!-- 42&#45;&#45;46 -->
<g id="edge61" class="edge">
<title>42&#45;&#45;46</title>
<path fill="none" stroke="black" d="M531,-287.7C531,-276.85 531,-262.92 531,-252.1"/>
</g>
<!-- 49 -->
<g id="node56" class="node">
<title>49</title>
<ellipse fill="none" stroke="black" cx="603" cy="-234" rx="27" ry="18"/>
<text text-anchor="middle" x="603" y="-228.57" font-family="Times New Roman,serif" font-size="14.00">eps</text>
</g>
<!-- 48&#45;&#45;49 -->
<g id="edge62" class="edge">
<title>48&#45;&#45;49</title>
<path fill="none" stroke="black" d="M603,-287.7C603,-276.85 603,-262.92 603,-252.1"/>
</g>
<!-- 44 -->
<g id="node53" class="node">
<title>44</title>
<ellipse fill="none" stroke="black" cx="459" cy="-162" rx="27" ry="18"/>
<text text-anchor="middle" x="459" y="-156.57" font-family="Times New Roman,serif" font-size="14.00">F</text>
</g>
<!-- 43&#45;&#45;44 -->
<g id="edge63" class="edge">
<title>43&#45;&#45;44</title>
<path fill="none" stroke="black" d="M459,-215.7C459,-204.85 459,-190.92 459,-180.1"/>
</g>
<!-- 47 -->
<g id="node55" class="node">
<title>47</title>
<ellipse fill="none" stroke="black" cx="531" cy="-162" rx="27" ry="18"/>
<text text-anchor="middle" x="531" y="-156.57" font-family="Times New Roman,serif" font-size="14.00">eps</text>
</g>
<!-- 46&#45;&#45;47 -->
<g id="edge64" class="edge">
<title>46&#45;&#45;47</title>
<path fill="none" stroke="black" d="M531,-215.7C531,-204.85 531,-190.92 531,-180.1"/>
</g>
<!-- 45 -->
<g id="node54" class="node">
<title>45</title>
<ellipse fill="none" stroke="black" cx="459" cy="-90" rx="27" ry="18"/>
<text text-anchor="middle" x="459" y="-84.58" font-family="Times New Roman,serif" font-size="14.00">n</text>
</g>
<!-- 44&#45;&#45;45 -->
<g id="edge65" class="edge">
<title>44&#45;&#45;45</title>
<path fill="none" stroke="black" d="M459,-143.7C459,-132.85 459,-118.92 459,-108.1"/>
</g>
<!-- 53 -->
<g id="node63" class="node">
<title>53</title>
<ellipse fill="none" stroke="black" cx="675" cy="-234" rx="27" ry="18"/>
<text text-anchor="middle" x="675" y="-228.57" font-family="Times New Roman,serif" font-size="14.00">T</text>
</g>
<!-- 52&#45;&#45;53 -->
<g id="edge66" class="edge">
<title>52&#45;&#45;53</title>
<path fill="none" stroke="black" d="M732.08,-290.5C719.72,-278.48 702.25,-261.49 689.9,-249.49"/>
</g>
<!-- 59 -->
<g id="node64" class="node">
<title>59</title>
<ellipse fill="none" stroke="black" cx="747" cy="-234" rx="27" ry="18"/>
<text text-anchor="middle" x="747" y="-228.57" font-family="Times New Roman,serif" font-size="14.00">E&#39;</text>
</g>
<!-- 52&#45;&#45;59 -->
<g id="edge67" class="edge">
<title>52&#45;&#45;59</title>
<path fill="none" stroke="black" d="M747,-287.7C747,-276.85 747,-262.92 747,-252.1"/>
</g>
<!-- 63 -->
<g id="node71" class="node">
<title>63</title>
<ellipse fill="none" stroke="black" cx="891" cy="-234" rx="27" ry="18"/>
<text text-anchor="middle" x="891" y="-228.57" font-family="Times New Roman,serif" font-size="14.00">T</text>
</g>
<!-- 62&#45;&#45;63 -->
<g id="edge68" class="edge">
<title>62&#45;&#45;63</title>
<path fill="none" stroke="black" d="M891,-287.7C891,-276.85 891,-262.92 891,-252.1"/>
</g>
<!-- 69 -->
<g id="node72" class="node">
<title>69</title>
<ellipse fill="none" stroke="black" cx="963" cy="-234" rx="27" ry="18"/>
<text text-anchor="middle" x="963" y="-228.57" font-family="Times New Roman,serif" font-size="14.00">E&#39;</text>
</g>
<!-- 62&#45;&#45;69 -->
<g id="edge69" class="edge">
<title>62&#45;&#45;69</title>
<path fill="none" stroke="black" d="M905.92,-290.5C918.28,-278.48 935.75,-261.49 948.1,-249.49"/>
</g>
<!-- 73 -->
<g id="node79" class="node">
<title>73</title>
<ellipse fill="none" stroke="black" cx="1035" cy="-234" rx="27" ry="18"/>
<text text-anchor="middle" x="1035" y="-228.57" font-family="Times New Roman,serif" font-size="14.00">T</text>
</g>
<!-- 72&#45;&#45;73 -->
<g id="edge70" class="edge">
<title>72&#45;&#45;73</title>
<path fill="none" stroke="black" d="M1035,-287.7C1035,-276.85 1035,-262.92 1035,-252.1"/>
</g>
<!-- 79 -->
<g id="node80" class="node">
<title>79</title>
<ellipse fill="none" stroke="black" cx="1143" cy="-234" rx="27" ry="18"/>
<text text-anchor="middle" x="1143" y="-228.57" font-family="Times New Roman,serif" font-size="14.00">E&#39;</text>
</g>
<!-- 72&#45;&#45;79 -->
<g id="edge71" class="edge">
<title>72&#45;&#45;79</title>
<path fill="none" stroke="black" d="M1053.81,-292.81C1073.51,-280.04 1104.28,-260.09 1124.04,-247.29"/>
</g>
<!-- 54 -->
<g id="node65" class="node">
<title>54</title>
<ellipse fill="none" stroke="black" cx="603" cy="-162" rx="27" ry="18"/>
<text text-anchor="middle" x="603" y="-156.57" font-family="Times New Roman,serif" font-size="14.00">S</text>
</g>
<!-- 53&#45;&#45;54 -->
<g id="edge72" class="edge">
<title>53&#45;&#45;54</title>
<path fill="none" stroke="black" d="M660.08,-218.5C647.72,-206.48 630.25,-189.49 617.9,-177.49"/>
</g>
<!-- 57 -->
<g id="node66" class="node">
<title>57</title>
<ellipse fill="none" stroke="black" cx="675" cy="-162" rx="27" ry="18"/>
<text text-anchor="middle" x="675" y="-156.57" font-family="Times New Roman,serif" font-size="14.00">T&#39;</text>
</g>
<!-- 53&#45;&#45;57 -->
<g id="edge73" class="edge">
<title>53&#45;&#45;57</title>
<path fill="none" stroke="black" d="M675,-215.7C675,-204.85 675,-190.92 675,-180.1"/>
</g>
<!-- 60 -->
<g id="node70" class="node">
<title>60</title>
<ellipse fill="none" stroke="black" cx="747" cy="-162" rx="27" ry="18"/>
<text text-anchor="middle" x="747" y="-156.57" font-family="Times New Roman,serif" font-size="14.00">eps</text>
</g>
<!-- 59&#45;&#45;60 -->
<g id="edge74" class="edge">
<title>59&#45;&#45;60</title>
<path fill="none" stroke="black" d="M747,-215.7C747,-204.85 747,-190.92 747,-180.1"/>
</g>
<!-- 55 -->
<g id="node67" class="node">
<title>55</title>
<ellipse fill="none" stroke="black" cx="603" cy="-90" rx="27" ry="18"/>
<text text-anchor="middle" x="603" y="-84.58" font-family="Times New Roman,serif" font-size="14.00">F</text>
</g>
<!-- 54&#45;&#45;55 -->
<g id="edge75" class="edge">
<title>54&#45;&#45;55</title>
<path fill="none" stroke="black" d="M603,-143.7C603,-132.85 603,-118.92 603,-108.1"/>
</g>
<!-- 58 -->
<g id="node69" class="node">
<title>58</title>
<ellipse fill="none" stroke="black" cx="675" cy="-90" rx="27" ry="18"/>
<text text-anchor="middle" x="675" y="-84.58" font-family="Times New Roman,serif" font-size="14.00">eps</text>
</g>
<!-- 57&#45;&#45;58 -->
<g id="edge76" class="edge">
<title>57&#45;&#45;58</title>
<path fill="none" stroke="black" d="M675,-143.7C675,-132.85 675,-118.92 675,-108.1"/>
</g>
<!-- 56 -->
<g id="node68" class="node">
<title>56</title>
<ellipse fill="none" stroke="black" cx="603" cy="-18" rx="27" ry="18"/>
<text text-anchor="middle" x="603" y="-12.57" font-family="Times New Roman,serif" font-size="14.00">n</text>
</g>
<!-- 55&#45;&#45;56 -->
<g id="edge77" class="edge">
<title>55&#45;&#45;56</title>
<path fill="none" stroke="black" d="M603,-71.7C603,-60.85 603,-46.92 603,-36.1"/>
</g>
<!-- 64 -->
<g id="node73" class="node">
<title>64</title>
<ellipse fill="none" stroke="black" cx="819" cy="-162" rx="27" ry="18"/>
<text text-anchor="middle" x="819" y="-156.57" font-family="Times New Roman,serif" font-size="14.00">S</text>
</g>
<!-- 63&#45;&#45;64 -->
<g id="edge78" class="edge">
<title>63&#45;&#45;64</title>
<path fill="none" stroke="black" d="M876.08,-218.5C863.72,-206.48 846.25,-189.49 833.9,-177.49"/>
</g>
<!-- 67 -->
<g id="node74" class="node">
<title>67</title>
<ellipse fill="none" stroke="black" cx="891" cy="-162" rx="27" ry="18"/>
<text text-anchor="middle" x="891" y="-156.57" font-family="Times New Roman,serif" font-size="14.00">T&#39;</text>
</g>
<!-- 63&#45;&#45;67 -->
<g id="edge79" class="edge">
<title>63&#45;&#45;67</title>
<path fill="none" stroke="black" d="M891,-215.7C891,-204.85 891,-190.92 891,-180.1"/>
</g>
<!-- 70 -->
<g id="node78" class="node">
<title>70</title>
<ellipse fill="none" stroke="black" cx="963" cy="-162" rx="27" ry="18"/>
<text text-anchor="middle" x="963" y="-156.57" font-family="Times New Roman,serif" font-size="14.00">eps</text>
</g>
<!-- 69&#45;&#45;70 -->
<g id="edge80" class="edge">
<title>69&#45;&#45;70</title>
<path fill="none" stroke="black" d="M963,-215.7C963,-204.85 963,-190.92 963,-180.1"/>
</g>
<!-- 65 -->
<g id="node75" class="node">
<title>65</title>
<ellipse fill="none" stroke="black" cx="819" cy="-90" rx="27" ry="18"/>
<text text-anchor="middle" x="819" y="-84.58" font-family="Times New Roman,serif" font-size="14.00">F</text>
</g>
<!-- 64&#45;&#45;65 -->
<g id="edge81" class="edge">
<title>64&#45;&#45;65</title>
<path fill="none" stroke="black" d="M819,-143.7C819,-132.85 819,-118.92 819,-108.1"/>
</g>
<!-- 68 -->
<g id="node77" class="node">
<title>68</title>
<ellipse fill="none" stroke="black" cx="891" cy="-90" rx="27" ry="18"/>
<text text-anchor="middle" x="891" y="-84.58" font-family="Times New Roman,serif" font-size="14.00">eps</text>
</g>
<!-- 67&#45;&#45;68 -->
<g id="edge82" class="edge">
<title>67&#45;&#45;68</title>
<path fill="none" stroke="black" d="M891,-143.7C891,-132.85 891,-118.92 891,-108.1"/>
</g>
<!-- 66 -->
<g id="node76" class="node">
<title>66</title>
<ellipse fill="none" stroke="black" cx="819" cy="-18" rx="27" ry="18"/>
<text text-anchor="middle" x="819" y="-12.57" font-family="Times New Roman,serif" font-size="14.00">n</text>
</g>
<!-- 65&#45;&#45;66 -->
<g id="edge83" class="edge">
<title>65&#45;&#45;66</title>
<path fill="none" stroke="black" d="M819,-71.7C819,-60.85 819,-46.92 819,-36.1"/>
</g>
<!-- 74 -->
<g id="node81" class="node">
<title>74</title>
<ellipse fill="none" stroke="black" cx="1035" cy="-162" rx="27" ry="18"/>
<text text-anchor="middle" x="1035" y="-156.57" font-family="Times New Roman,serif" font-size="14.00">S</text>
</g>
<!-- 73&#45;&#45;74 -->
<g id="edge84" class="edge">
<title>73&#45;&#45;74</title>
<path fill="none" stroke="black" d="M1035,-215.7C1035,-204.85 1035,-190.92 1035,-180.1"/>
</g>
<!-- 77 -->
<g id="node82" class="node">
<title>77</title>
<ellipse fill="none" stroke="black" cx="1107" cy="-162" rx="27" ry="18"/>
<text text-anchor="middle" x="1107" y="-156.57" font-family="Times New Roman,serif" font-size="14.00">T&#39;</text>
</g>
<!-- 73&#45;&#45;77 -->
<g id="edge85" class="edge">
<title>73&#45;&#45;77</title>
<path fill="none" stroke="black" d="M1049.92,-218.5C1062.28,-206.48 1079.75,-189.49 1092.1,-177.49"/>
</g>
<!-- 80 -->
<g id="node86" class="node">
<title>80</title>
<ellipse fill="none" stroke="black" cx="1179" cy="-162" rx="27" ry="18"/>
<text text-anchor="middle" x="1179" y="-156.57" font-family="Times New Roman,serif" font-size="14.00">eps</text>
</g>
<!-- 79&#45;&#45;80 -->
<g id="edge86" class="edge">
<title>79&#45;&#45;80</title>
<path fill="none" stroke="black" d="M1151.35,-216.76C1157.17,-205.46 1164.89,-190.44 1170.7,-179.15"/>
</g>
<!-- 75 -->
<g id="node83" class="node">
<title>75</title>
<ellipse fill="none" stroke="black" cx="1035" cy="-90" rx="27" ry="18"/>
<text text-anchor="middle" x="1035" y="-84.58" font-family="Times New Roman,serif" font-size="14.00">F</text>
</g>
<!-- 74&#45;&#45;75 -->
<g id="edge87" class="edge">
<title>74&#45;&#45;75</title>
<path fill="none" stroke="black" d="M1035,-143.7C1035,-132.85 1035,-118.92 1035,-108.1"/>
</g>
<!-- 78 -->
<g id="node85" class="node">
<title>78</title>
<ellipse fill="none" stroke="black" cx="1107" cy="-90" rx="27" ry="18"/>
<text text-anchor="middle" x="1107" y="-84.58" font-family="Times New Roman,serif" font-size="14.00">eps</text>
</g>
<!-- 77&#45;&#45;78 -->
<g id="edge88" class="edge">
<title>77&#45;&#45;78</title>
<path fill="none" stroke="black" d="M1107,-143.7C1107,-132.85 1107,-118.92 1107,-108.1"/>
</g>
<!-- 76 -->
<g id="node84" class="node">
<title>76</title>
<ellipse fill="none" stroke="black" cx="1035" cy="-18" rx="27" ry="18"/>
<text text-anchor="middle" x="1035" y="-12.57" font-family="Times New Roman,serif" font-size="14.00">n</text>
</g>
<!-- 75&#45;&#45;76 -->
<g id="edge89" class="edge">
<title>75&#45;&#45;76</title>
<path fill="none" stroke="black" d="M1035,-71.7C1035,-60.85 1035,-46.92 1035,-36.1"/>
</g>
<!-- 89 -->
<g id="node91" class="node">
<title>89</title>
<ellipse fill="none" stroke="black" cx="819" cy="-594" rx="27" ry="18"/>
<text text-anchor="middle" x="819" y="-588.58" font-family="Times New Roman,serif" font-size="14.00">S</text>
</g>
<!-- 88&#45;&#45;89 -->
<g id="edge90" class="edge">
<title>88&#45;&#45;89</title>
<path fill="none" stroke="black" d="M832.64,-648.05C829.81,-637.05 826.14,-622.76 823.32,-611.79"/>
</g>
<!-- 92 -->
<g id="node92" class="node">
<title>92</title>
<ellipse fill="none" stroke="black" cx="891" cy="-594" rx="27" ry="18"/>
<text text-anchor="middle" x="891" y="-588.58" font-family="Times New Roman,serif" font-size="14.00">T&#39;</text>
</g>
<!-- 88&#45;&#45;92 -->
<g id="edge91" class="edge">
<title>88&#45;&#45;92</title>
<path fill="none" stroke="black" d="M848.98,-649.46C857.93,-637.86 870.11,-622.08 879.05,-610.49"/>
</g>
<!-- 95 -->
<g id="node96" class="node">
<title>95</title>
<ellipse fill="none" stroke="black" cx="963" cy="-594" rx="27" ry="18"/>
<text text-anchor="middle" x="963" y="-588.58" font-family="Times New Roman,serif" font-size="14.00">eps</text>
</g>
<!-- 94&#45;&#45;95 -->
<g id="edge92" class="edge">
<title>94&#45;&#45;95</title>
<path fill="none" stroke="black" d="M949.36,-648.05C952.19,-637.05 955.86,-622.76 958.68,-611.79"/>
</g>
<!-- 90 -->
<g id="node93" class="node">
<title>90</title>
<ellipse fill="none" stroke="black" cx="819" cy="-522" rx="27" ry="18"/>
<text text-anchor="middle" x="819" y="-516.58" font-family="Times New Roman,serif" font-size="14.00">F</text>
</g>
<!-- 89&#45;&#45;90 -->
<g id="edge93" class="edge">
<title>89&#45;&#45;90</title>
<path fill="none" stroke="black" d="M819,-575.7C819,-564.85 819,-550.92 819,-540.1"/>
</g>
<!-- 93 -->
<g id="node95" class="node">
<title>93</title>
<ellipse fill="none" stroke="black" cx="891" cy="-522" rx="27" ry="18"/>
<text text-anchor="middle" x="891" y="-516.58" font-family="Times New Roman,serif" font-size="14.00">eps</text>
</g>
<!-- 92&#45;&#45;93 -->
<g id="edge94" class="edge">
<title>92&#45;&#45;93</title>
<path fill="none" stroke="black" d="M891,-575.7C891,-564.85 891,-550.92 891,-540.1"/>
</g>
<!-- 91 -->
<g id="node94" class="node">
<title>91</title>
<ellipse fill="none" stroke="black" cx="819" cy="-450" rx="27" ry="18"/>
<text text-anchor="middle" x="819" y="-444.57" font-family="Times New Roman,serif" font-size="14.00">n</text>
</g>
<!-- 90&#45;&#45;91 -->
<g id="edge95" class="edge">
<title>90&#45;&#45;91</title>
<path fill="none" stroke="black" d="M819,-503.7C819,-492.85 819,-478.92 819,-468.1"/>
</g>
</g>
</svg>
