<svg width="854px" height="1340px"
 viewBox="0.00 0.00 854.00 1340.00" xmlns="http://www.w3.org/2000/svg" xmlns:xlink="http://www.w3.org/1999/xlink">
<g id="graph0" class="graph" transform="scale(1.0 1.0) rotate(0.0) translate(4.0 1336.0)">
<polygon fill="white" stroke="none" points="-4,4 -4,-1336 850,-1336 850,4 -4,4"/>
<!-- 0 -->
<g id="node1" class="node">
<title>0</title>
<ellipse fill="none" stroke="black" cx="567" cy="-1314" rx="27" ry="18"/>
<text text-anchor="middle" x="567" y="-1308.58" font-family="Times New Roman,serif" font-size="14.00">C</text>
</g>
<!-- 1 -->
<g id="node2" class="node">
<title>1</title>
<ellipse fill="none" stroke="black" cx="531" cy="-1242" rx="27" ry="18"/>
<text text-anchor="middle" x="531" y="-1236.58" font-family="Times New Roman,serif" font-size="14.00">E</text>
</g>
<!-- 0&#45;&#45;1 -->
<g id="edge1" class="edge">
<title>0&#45;&#45;1</title>
<path fill="none" stroke="black" d="M558.65,-1296.76C552.83,-1285.46 545.11,-1270.44 539.3,-1259.15"/>
</g>
<!-- 85 -->
<g id="node3" class="node">
<title>85</title>
<ellipse fill="none" stroke="black" cx="603" cy="-1242" rx="27" ry="18"/>
<text text-anchor="middle" x="603" y="-1236.58" font-family="Times New Roman,serif" font-size="14.00">C&#39;</text>
</g>
<!-- 0&#45;&#45;85 -->
<g id="edge2" class="edge">
<title>0&#45;&#45;85</title>
<path fill="none" stroke="black" d="M575.35,-1296.76C581.17,-1285.46 588.89,-1270.44 594.7,-1259.15"/>
</g>
<!-- 2 -->
<g id="node4" class="node">
<title>2</title>
<ellipse fill="none" stroke="black" cx="459" cy="-1170" rx="27" ry="18"/>
<text text-anchor="middle" x="459" y="-1164.58" font-family="Times New Roman,serif" font-size="14.00">T</text>
</g>
<!-- 1&#45;&#45;2 -->
<g id="edge3" class="edge">
<title>1&#45;&#45;2</title>
<path fill="none" stroke="black" d="M516.08,-1226.5C503.72,-1214.48 486.25,-1197.49 473.9,-1185.49"/>
</g>
<!-- 83 -->
<g id="node5" class="node">
<title>83</title>
<ellipse fill="none" stroke="black" cx="531" cy="-1170" rx="27" ry="18"/>
<text text-anchor="middle" x="531" y="-1164.58" font-family="Times New Roman,serif" font-size="14.00">E&#39;</text>
</g>
<!-- 1&#45;&#45;83 -->
<g id="edge4" class="edge">
<title>1&#45;&#45;83</title>
<path fill="none" stroke="black" d="M531,-1223.7C531,-1212.85 531,-1198.92 531,-1188.1"/>
</g>
<!-- 86 -->
<g id="node87" class="node">
<title>86</title>
<ellipse fill="none" stroke="black" cx="603" cy="-1170" rx="27" ry="18"/>
<text text-anchor="middle" x="603" y="-1164.58" font-family="Times New Roman,serif" font-size="14.00">eps</text>
</g>
<!-- 85&#45;&#45;86 -->
<g id="edge5" class="edge">
<title>85&#45;&#45;86</title>
<path fill="none" stroke="black" d="M603,-1223.7C603,-1212.85 603,-1198.92 603,-1188.1"/>
</g>
<!-- 3 -->
<g id="node6" class="node">
<title>3</title>
<ellipse fill="none" stroke="black" cx="351" cy="-1098" rx="27" ry="18"/>
<text text-anchor="middle" x="351" y="-1092.58" font-family="Times New Roman,serif" font-size="14.00">S</text>
</g>
<!-- 2&#45;&#45;3 -->
<g id="edge6" class="edge">
<title>2&#45;&#45;3</title>
<path fill="none" stroke="black" d="M440.19,-1156.81C420.49,-1144.04 389.72,-1124.09 369.96,-1111.29"/>
</g>
<!-- 27 -->
<g id="node7" class="node">
<title>27</title>
<ellipse fill="none" stroke="black" cx="459" cy="-1098" rx="27" ry="18"/>
<text text-anchor="middle" x="459" y="-1092.58" font-family="Times New Roman,serif" font-size="14.00">T&#39;</text>
</g>
<!-- 2&#45;&#45;27 -->
<g id="edge7" class="edge">
<title>2&#45;&#45;27</title>
<path fill="none" stroke="black" d="M459,-1151.7C459,-1140.85 459,-1126.92 459,-1116.1"/>
</g>
<!-- 84 -->
<g id="node86" class="node">
<title>84</title>
<ellipse fill="none" stroke="black" cx="531" cy="-1098" rx="27" ry="18"/>
<text text-anchor="middle" x="531" y="-1092.58" font-family="Times New Roman,serif" font-size="14.00">eps</text>
</g>
<!-- 83&#45;&#45;84 -->
<g id="edge8" class="edge">
<title>83&#45;&#45;84</title>
<path fill="none" stroke="black" d="M531,-1151.7C531,-1140.85 531,-1126.92 531,-1116.1"/>
</g>
<!-- 4 -->
<g id="node8" class="node">
<title>4</title>
<ellipse fill="none" stroke="black" cx="351" cy="-1026" rx="27" ry="18"/>
<text text-anchor="middle" x="351" y="-1020.58" font-family="Times New Roman,serif" font-size="14.00">F</text>
</g>
<!-- 3&#45;&#45;4 -->
<g id="edge9" class="edge">
<title>3&#45;&#45;4</title>
<path fill="none" stroke="black" d="M351,-1079.7C351,-1068.85 351,-1054.92 351,-1044.1"/>
</g>
<!-- 28 -->
<g id="node31" class="node">
<title>28</title>
<ellipse fill="none" stroke="black" cx="423" cy="-1026" rx="27" ry="18"/>
<text text-anchor="middle" x="423" y="-1020.58" font-family="Times New Roman,serif" font-size="14.00">*</text>
</g>
<!-- 27&#45;&#45;28 -->
<g id="edge10" class="edge">
<title>27&#45;&#45;28</title>
<path fill="none" stroke="black" d="M450.65,-1080.76C444.83,-1069.46 437.11,-1054.44 431.3,-1043.15"/>
</g>
<!-- 29 -->
<g id="node32" class="node">
<title>29</title>
<ellipse fill="none" stroke="black" cx="495" cy="-1026" rx="27" ry="18"/>
<text text-anchor="middle" x="495" y="-1020.58" font-family="Times New Roman,serif" font-size="14.00">S</text>
</g>
<!-- 27&#45;&#45;29 -->
<g id="edge11" class="edge">
<title>27&#45;&#45;29</title>
<path fill="none" stroke="black" d="M467.35,-1080.76C473.17,-1069.46 480.89,-1054.44 486.7,-1043.15"/>
</g>
<!-- 81 -->
<g id="node33" class="node">
<title>81</title>
<ellipse fill="none" stroke="black" cx="567" cy="-1026" rx="27" ry="18"/>
<text text-anchor="middle" x="567" y="-1020.58" font-family="Times New Roman,serif" font-size="14.00">T&#39;</text>
</g>
<!-- 27&#45;&#45;81 -->
<g id="edge12" class="edge">
<title>27&#45;&#45;81</title>
<path fill="none" stroke="black" d="M477.81,-1084.81C497.51,-1072.04 528.28,-1052.09 548.04,-1039.29"/>
</g>
<!-- 5 -->
<g id="node9" class="node">
<title>5</title>
<ellipse fill="none" stroke="black" cx="279" cy="-954" rx="27" ry="18"/>
<text text-anchor="middle" x="279" y="-948.58" font-family="Times New Roman,serif" font-size="14.00">(</text>
</g>
<!-- 4&#45;&#45;5 -->
<g id="edge13" class="edge">
<title>4&#45;&#45;5</title>
<path fill="none" stroke="black" d="M336.08,-1010.5C323.72,-998.48 306.25,-981.49 293.9,-969.49"/>
</g>
<!-- 6 -->
<g id="node10" class="node">
<title>6</title>
<ellipse fill="none" stroke="black" cx="351" cy="-954" rx="27" ry="18"/>
<text text-anchor="middle" x="351" y="-948.58" font-family="Times New Roman,serif" font-size="14.00">C</text>
</g>
<!-- 4&#45;&#45;6 -->
<g id="edge14" class="edge">
<title>4&#45;&#45;6</title>
<path fill="none" stroke="black" d="M351,-1007.7C351,-996.85 351,-982.92 351,-972.1"/>
</g>
<!-- 26 -->
<g id="node11" class="node">
<title>26</title>
<ellipse fill="none" stroke="black" cx="423" cy="-954" rx="27" ry="18"/>
<text text-anchor="middle" x="423" y="-948.58" font-family="Times New Roman,serif" font-size="14.00">)</text>
</g>
<!-- 4&#45;&#45;26 -->
<g id="edge15" class="edge">
<title>4&#45;&#45;26</title>
<path fill="none" stroke="black" d="M365.92,-1010.5C378.28,-998.48 395.75,-981.49 408.1,-969.49"/>
</g>
<!-- 7 -->
<g id="node12" class="node">
<title>7</title>
<ellipse fill="none" stroke="black" cx="243" cy="-882" rx="27" ry="18"/>
<text text-anchor="middle" x="243" y="-876.58" font-family="Times New Roman,serif" font-size="14.00">E</text>
</g>
<!-- 6&#45;&#45;7 -->
<g id="edge16" class="edge">
<title>6&#45;&#45;7</title>
<path fill="none" stroke="black" d="M332.19,-940.81C312.49,-928.04 281.72,-908.09 261.96,-895.29"/>
</g>
<!-- 24 -->
<g id="node13" class="node">
<title>24</title>
<ellipse fill="none" stroke="black" cx="351" cy="-882" rx="27" ry="18"/>
<text text-anchor="middle" x="351" y="-876.58" font-family="Times New Roman,serif" font-size="14.00">C&#39;</text>
</g>
<!-- 6&#45;&#45;24 -->
<g id="edge17" class="edge">
<title>6&#45;&#45;24</title>
<path fill="none" stroke="black" d="M351,-935.7C351,-924.85 351,-910.92 351,-900.1"/>
</g>
<!-- 8 -->
<g id="node14" class="node">
<title>8</title>
<ellipse fill="none" stroke="black" cx="99" cy="-810" rx="27" ry="18"/>
<text text-anchor="middle" x="99" y="-804.58" font-family="Times New Roman,serif" font-size="14.00">T</text>
</g>
<!-- 7&#45;&#45;8 -->
<g id="edge18" class="edge">
<title>7&#45;&#45;8</title>
<path fill="none" stroke="black" d="M221.44,-870.52C194.14,-857.25 147.39,-834.52 120.24,-821.32"/>
</g>
<!-- 14 -->
<g id="node15" class="node">
<title>14</title>
<ellipse fill="none" stroke="black" cx="243" cy="-810" rx="27" ry="18"/>
<text text-anchor="middle" x="243" y="-804.58" font-family="Times New Roman,serif" font-size="14.00">E&#39;</text>
</g>
<!-- 7&#45;&#45;14 -->
<g id="edge19" class="edge">
<title>7&#45;&#45;14</title>
<path fill="none" stroke="black" d="M243,-863.7C243,-852.85 243,-838.92 243,-828.1"/>
</g>
<!-- 25 -->
<g id="node30" class="node">
<title>25</title>
<ellipse fill="none" stroke="black" cx="351" cy="-810" rx="27" ry="18"/>
<text text-anchor="middle" x="351" y="-804.58" font-family="Times New Roman,serif" font-size="14.00">eps</text>
</g>
<!-- 24&#45;&#45;25 -->
<g id="edge20" class="edge">
<title>24&#45;&#45;25</title>
<path fill="none" stroke="black" d="M351,-863.7C351,-852.85 351,-838.92 351,-828.1"/>
</g>
<!-- 9 -->
<g id="node16" class="node">
<title>9</title>
<ellipse fill="none" stroke="black" cx="27" cy="-738" rx="27" ry="18"/>
<text text-anchor="middle" x="27" y="-732.58" font-family="Times New Roman,serif" font-size="14.00">S</text>
</g>
<!-- 8&#45;&#45;9 -->
<g id="edge21" class="edge">
<title>8&#45;&#45;9</title>
<path fill="none" stroke="black" d="M84.08,-794.5C71.72,-782.48 54.25,-765.49 41.9,-753.49"/>
</g>
<!-- 12 -->
<g id="node17" class="node">
<title>12</title>
<ellipse fill="none" stroke="black" cx="99" cy="-738" rx="27" ry="18"/>
<text text-anchor="middle" x="99" y="-732.58" font-family="Times New Roman,serif" font-size="14.00">T&#39;</text>
</g>
<!-- 8&#45;&#45;12 -->
<g id="edge22" class="edge">
<title>8&#45;&#45;12</title>
<path fill="none" stroke="black" d="M99,-791.7C99,-780.85 99,-766.92 99,-756.1"/>
</g>
<!-- 15 -->
<g id="node21" class="node">
<title>15</title>
<ellipse fill="none" stroke="black" cx="171" cy="-738" rx="27" ry="18"/>
<text text-anchor="middle" x="171" y="-732.58" font-family="Times New Roman,serif" font-size="14.00">+</text>
</g>
<!-- 14&#45;&#45;15 -->
<g id="edge23" class="edge">
<title>14&#45;&#45;15</title>
<path fill="none" stroke="black" d="M228.08,-794.5C215.72,-782.48 198.25,-765.49 185.9,-753.49"/>
</g>
<!-- 16 -->
<g id="node22" class="node">
<title>16</title>
<ellipse fill="none" stroke="black" cx="243" cy="-738" rx="27" ry="18"/>
<text text-anchor="middle" x="243" y="-732.58" font-family="Times New Roman,serif" font-size="14.00">T</text>
</g>
<!-- 14&#45;&#45;16 -->
<g id="edge24" class="edge">
<title>14&#45;&#45;16</title>
<path fill="none" stroke="black" d="M243,-791.7C243,-780.85 243,-766.92 243,-756.1"/>
</g>
<!-- 22 -->
<g id="node23" class="node">
<title>22</title>
<ellipse fill="none" stroke="black" cx="315" cy="-738" rx="27" ry="18"/>
<text text-anchor="middle" x="315" y="-732.58" font-family="Times New Roman,serif" font-size="14.00">E&#39;</text>
</g>
<!-- 14&#45;&#45;22 -->
<g id="edge25" class="edge">
<title>14&#45;&#45;22</title>
<path fill="none" stroke="black" d="M257.92,-794.5C270.28,-782.48 287.75,-765.49 300.1,-753.49"/>
</g>
<!-- 10 -->
<g id="node18" class="node">
<title>10</title>
<ellipse fill="none" stroke="black" cx="27" cy="-666" rx="27" ry="18"/>
<text text-anchor="middle" x="27" y="-660.58" font-family="Times New Roman,serif" font-size="14.00">F</text>
</g>
<!-- 9&#45;&#45;10 -->
<g id="edge26" class="edge">
<title>9&#45;&#45;10</title>
<path fill="none" stroke="black" d="M27,-719.7C27,-708.85 27,-694.92 27,-684.1"/>
</g>
<!-- 13 -->
<g id="node20" class="node">
<title>13</title>
<ellipse fill="none" stroke="black" cx="99" cy="-666" rx="27" ry="18"/>
<text text-anchor="middle" x="99" y="-660.58" font-family="Times New Roman,serif" font-size="14.00">eps</text>
</g>
<!-- 12&#45;&#45;13 -->
<g id="edge27" class="edge">
<title>12&#45;&#45;13</title>
<path fill="none" stroke="black" d="M99,-719.7C99,-708.85 99,-694.92 99,-684.1"/>
</g>
<!-- 11 -->
<g id="node19" class="node">
<title>11</title>
<ellipse fill="none" stroke="black" cx="27" cy="-594" rx="27" ry="18"/>
<text text-anchor="middle" x="27" y="-588.58" font-family="Times New Roman,serif" font-size="14.00">n</text>
</g>
<!-- 10&#45;&#45;11 -->
<g id="edge28" class="edge">
<title>10&#45;&#45;11</title>
<path fill="none" stroke="black" d="M27,-647.7C27,-636.85 27,-622.92 27,-612.1"/>
</g>
<!-- 17 -->
<g id="node24" class="node">
<title>17</title>
<ellipse fill="none" stroke="black" cx="171" cy="-666" rx="27" ry="18"/>
<text text-anchor="middle" x="171" y="-660.58" font-family="Times New Roman,serif" font-size="14.00">S</text>
</g>
<!-- 16&#45;&#45;17 -->
<g id="edge29" class="edge">
<title>16&#45;&#45;17</title>
<path fill="none" stroke="black" d="M228.08,-722.5C215.72,-710.48 198.25,-693.49 185.9,-681.49"/>
</g>
<!-- 20 -->
<g id="node25" class="node">
<title>20</title>
<ellipse fill="none" stroke="black" cx="243" cy="-666" rx="27" ry="18"/>
<text text-anchor="middle" x="243" y="-660.58" font-family="Times New Roman,serif" font-size="14.00">T&#39;</text>
</g>
<!-- 16&#45;&#45;20 -->
<g id="edge30" class="edge">
<title>16&#45;&#45;20</title>
<path fill="none" stroke="black" d="M243,-719.7C243,-708.85 243,-694.92 243,-684.1"/>
</g>
<!-- 23 -->
<g id="node29" class="node">
<title>23</title>
<ellipse fill="none" stroke="black" cx="315" cy="-666" rx="27" ry="18"/>
<text text-anchor="middle" x="315" y="-660.58" font-family="Times New Roman,serif" font-size="14.00">eps</text>
</g>
<!-- 22&#45;&#45;23 -->
<g id="edge31" class="edge">
<title>22&#45;&#45;23</title>
<path fill="none" stroke="black" d="M315,-719.7C315,-708.85 315,-694.92 315,-684.1"/>
</g>
<!-- 18 -->
<g id="node26" class="node">
<title>18</title>
<ellipse fill="none" stroke="black" cx="171" cy="-594" rx="27" ry="18"/>
<text text-anchor="middle" x="171" y="-588.58" font-family="Times New Roman,serif" font-size="14.00">F</text>
</g>
<!-- 17&#45;&#45;18 -->
<g id="edge32" class="edge">
<title>17&#45;&#45;18</title>
<path fill="none" stroke="black" d="M171,-647.7C171,-636.85 171,-622.92 171,-612.1"/>
</g>
<!-- 21 -->
<g id="node28" class="node">
<title>21</title>
<ellipse fill="none" stroke="black" cx="243" cy="-594" rx="27" ry="18"/>
<text text-anchor="middle" x="243" y="-588.58" font-family="Times New Roman,serif" font-size="14.00">eps</text>
</g>
<!-- 20&#45;&#45;21 -->
<g id="edge33" class="edge">
<title>20&#45;&#45;21</title>
<path fill="none" stroke="black" d="M243,-647.7C243,-636.85 243,-622.92 243,-612.1"/>
</g>
<!-- 19 -->
<g id="node27" class="node">
<title>19</title>
<ellipse fill="none" stroke="black" cx="171" cy="-522" rx="27" ry="18"/>
<text text-anchor="middle" x="171" y="-516.58" font-family="Times New Roman,serif" font-size="14.00">n</text>
</g>
<!-- 18&#45;&#45;19 -->
<g id="edge34" class="edge">
<title>18&#45;&#45;19</title>
<path fill="none" stroke="black" d="M171,-575.7C171,-564.85 171,-550.92 171,-540.1"/>
</g>
<!-- 30 -->
<g id="node34" class="node">
<title>30</title>
<ellipse fill="none" stroke="black" cx="495" cy="-954" rx="27" ry="18"/>
<text text-anchor="middle" x="495" y="-948.58" font-family="Times New Roman,serif" font-size="14.00">F</text>
</g>
<!-- 29&#45;&#45;30 -->
<g id="edge35" class="edge">
<title>29&#45;&#45;30</title>
<path fill="none" stroke="black" d="M495,-1007.7C495,-996.85 495,-982.92 495,-972.1"/>
</g>
<!-- 82 -->
<g id="node85" class="node">
<title>82</title>
<ellipse fill="none" stroke="black" cx="567" cy="-954" rx="27" ry="18"/>
<text text-anchor="middle" x="567" y="-948.58" font-family="Times New Roman,serif" font-size="14.00">eps</text>
</g>
<!-- 81&#45;&#45;82 -->
<g id="edge36" class="edge">
<title>81&#45;&#45;82</title>
<path fill="none" stroke="black" d="M567,-1007.7C567,-996.85 567,-982.92 567,-972.1"/>
</g>
<!-- 31 -->
<g id="node35" class="node">
<title>31</title>
<ellipse fill="none" stroke="black" cx="423" cy="-882" rx="27" ry="18"/>
<text text-anchor="middle" x="423" y="-876.58" font-family="Times New Roman,serif" font-size="14.00">f</text>
</g>
<!-- 30&#45;&#45;31 -->
<g id="edge37" class="edge">
<title>30&#45;&#45;31</title>
<path fill="none" stroke="black" d="M480.08,-938.5C467.72,-926.48 450.25,-909.49 437.9,-897.49"/>
</g>
<!-- 32 -->
<g id="node36" class="node">
<title>32</title>
<ellipse fill="none" stroke="black" cx="495" cy="-882" rx="27" ry="18"/>
<text text-anchor="middle" x="495" y="-876.58" font-family="Times New Roman,serif" font-size="14.00">(</text>
</g>
<!-- 30&#45;&#45;32 -->
<g id="edge38" class="edge">
<title>30&#45;&#45;32</title>
<path fill="none" stroke="black" d="M495,-935.7C495,-924.85 495,-910.92 495,-900.1"/>
</g>
<!-- 33 -->
<g id="node37" class="node">
<title>33</title>
<ellipse fill="none" stroke="black" cx="567" cy="-882" rx="27" ry="18"/>
<text text-anchor="middle" x="567" y="-876.58" font-family="Times New Roman,serif" font-size="14.00">C</text>
</g>
<!-- 30&#45;&#45;33 -->
<g id="edge39" class="edge">
<title>30&#45;&#45;33</title>
<path fill="none" stroke="black" d="M509.92,-938.5C522.28,-926.48 539.75,-909.49 552.1,-897.49"/>
</g>
<!-- 80 -->
<g id="node38" class="node">
<title>80</title>
<ellipse fill="none" stroke="black" cx="639" cy="-882" rx="27" ry="18"/>
<text text-anchor="middle" x="639" y="-876.58" font-family="Times New Roman,serif" font-size="14.00">)</text>
</g>
<!-- 30&#45;&#45;80 -->
<g id="edge40" class="edge">
<title>30&#45;&#45;80</title>
<path fill="none" stroke="black" d="M516.56,-942.52C543.86,-929.25 590.61,-906.52 617.76,-893.32"/>
</g>
<!-- 34 -->
<g id="node39" class="node">
<title>34</title>
<ellipse fill="none" stroke="black" cx="567" cy="-810" rx="27" ry="18"/>
<text text-anchor="middle" x="567" y="-804.58" font-family="Times New Roman,serif" font-size="14.00">E</text>
</g>
<!-- 33&#45;&#45;34 -->
<g id="edge41" class="edge">
<title>33&#45;&#45;34</title>
<path fill="none" stroke="black" d="M567,-863.7C567,-852.85 567,-838.92 567,-828.1"/>
</g>
<!-- 78 -->
<g id="node40" class="node">
<title>78</title>
<ellipse fill="none" stroke="black" cx="657" cy="-810" rx="27" ry="18"/>
<text text-anchor="middle" x="657" y="-804.58" font-family="Times New Roman,serif" font-size="14.00">C&#39;</text>
</g>
<!-- 33&#45;&#45;78 -->
<g id="edge42" class="edge">
<title>33&#45;&#45;78</title>
<path fill="none" stroke="black" d="M583.93,-867.83C599.92,-855.4 623.78,-836.84 639.84,-824.35"/>
</g>
<!-- 35 -->
<g id="node41" class="node">
<title>35</title>
<ellipse fill="none" stroke="black" cx="531" cy="-738" rx="27" ry="18"/>
<text text-anchor="middle" x="531" y="-732.58" font-family="Times New Roman,serif" font-size="14.00">T</text>
</g>
<!-- 34&#45;&#45;35 -->
<g id="edge43" class="edge">
<title>34&#45;&#45;35</title>
<path fill="none" stroke="black" d="M558.65,-792.76C552.83,-781.46 545.11,-766.44 539.3,-755.15"/>
</g>
<!-- 68 -->
<g id="node42" class="node">
<title>68</title>
<ellipse fill="none" stroke="black" cx="603" cy="-738" rx="27" ry="18"/>
<text text-anchor="middle" x="603" y="-732.58" font-family="Times New Roman,serif" font-size="14.00">E&#39;</text>
</g>
<!-- 34&#45;&#45;68 -->
<g id="edge44" class="edge">
<title>34&#45;&#45;68</title>
<path fill="none" stroke="black" d="M575.35,-792.76C581.17,-781.46 588.89,-766.44 594.7,-755.15"/>
</g>
<!-- 79 -->
<g id="node84" class="node">
<title>79</title>
<ellipse fill="none" stroke="black" cx="675" cy="-738" rx="27" ry="18"/>
<text text-anchor="middle" x="675" y="-732.58" font-family="Times New Roman,serif" font-size="14.00">eps</text>
</g>
<!-- 78&#45;&#45;79 -->
<g id="edge45" class="edge">
<title>78&#45;&#45;79</title>
<path fill="none" stroke="black" d="M661.36,-792.05C664.19,-781.05 667.86,-766.76 670.68,-755.79"/>
</g>
<!-- 36 -->
<g id="node43" class="node">
<title>36</title>
<ellipse fill="none" stroke="black" cx="387" cy="-666" rx="27" ry="18"/>
<text text-anchor="middle" x="387" y="-660.58" font-family="Times New Roman,serif" font-size="14.00">S</text>
</g>
<!-- 35&#45;&#45;36 -->
<g id="edge46" class="edge">
<title>35&#45;&#45;36</title>
<path fill="none" stroke="black" d="M509.44,-726.52C482.14,-713.25 435.39,-690.52 408.24,-677.32"/>
</g>
<!-- 40 -->
<g id="node44" class="node">
<title>40</title>
<ellipse fill="none" stroke="black" cx="531" cy="-666" rx="27" ry="18"/>
<text text-anchor="middle" x="531" y="-660.58" font-family="Times New Roman,serif" font-size="14.00">T&#39;</text>
</g>
<!-- 35&#45;&#45;40 -->
<g id="edge47" class="edge">
<title>35&#45;&#45;40</title>
<path fill="none" stroke="black" d="M531,-719.7C531,-708.85 531,-694.92 531,-684.1"/>
</g>
<!-- 69 -->
<g id="node75" class="node">
<title>69</title>
<ellipse fill="none" stroke="black" cx="603" cy="-666" rx="27" ry="18"/>
<text text-anchor="middle" x="603" y="-660.58" font-family="Times New Roman,serif" font-size="14.00">+</text>
</g>
<!-- 68&#45;&#45;69 -->
<g id="edge48" class="edge">
<title>68&#45;&#45;69</title>
<path fill="none" stroke="black" d="M603,-719.7C603,-708.85 603,-694.92 603,-684.1"/>
</g>
<!-- 70 -->
<g id="node76" class="node">
<title>70</title>
<ellipse fill="none" stroke="black" cx="675" cy="-666" rx="27" ry="18"/>
<text text-anchor="middle" x="675" y="-660.58" font-family="Times New Roman,serif" font-size="14.00">T</text>
</g>
<!-- 68&#45;&#45;70 -->
<g id="edge49" class="edge">
<title>68&#45;&#45;70</title>
<path fill="none" stroke="black" d="M617.92,-722.5C630.28,-710.48 647.75,-693.49 660.1,-681.49"/>
</g>
<!-- 76 -->
<g id="node77" class="node">
<title>76</title>
<ellipse fill="none" stroke="black" cx="783" cy="-666" rx="27" ry="18"/>
<text text-anchor="middle" x="783" y="-660.58" font-family="Times New Roman,serif" font-size="14.00">E&#39;</text>
</g>
<!-- 68&#45;&#45;76 -->
<g id="edge50" class="edge">
<title>68&#45;&#45;76</title>
<path fill="none" stroke="black" d="M624.18,-726.62C629.01,-724.35 634.16,-722.03 639,-720 680.64,-702.54 730.27,-684.97 759.05,-675.09"/>
</g>
<!-- 37 -->
<g id="node45" class="node">
<title>37</title>
<ellipse fill="none" stroke="black" cx="315" cy="-594" rx="27" ry="18"/>
<text text-anchor="middle" x="315" y="-588.58" font-family="Times New Roman,serif" font-size="14.00">&#45;</text>
</g>
<!-- 36&#45;&#45;37 -->
<g id="edge51" class="edge">
<title>36&#45;&#45;37</title>
<path fill="none" stroke="black" d="M372.08,-650.5C359.72,-638.48 342.25,-621.49 329.9,-609.49"/>
</g>
<!-- 38 -->
<g id="node46" class="node">
<title>38</title>
<ellipse fill="none" stroke="black" cx="387" cy="-594" rx="27" ry="18"/>
<text text-anchor="middle" x="387" y="-588.58" font-family="Times New Roman,serif" font-size="14.00">F</text>
</g>
<!-- 36&#45;&#45;38 -->
<g id="edge52" class="edge">
<title>36&#45;&#45;38</title>
<path fill="none" stroke="black" d="M387,-647.7C387,-636.85 387,-622.92 387,-612.1"/>
</g>
<!-- 41 -->
<g id="node48" class="node">
<title>41</title>
<ellipse fill="none" stroke="black" cx="459" cy="-594" rx="27" ry="18"/>
<text text-anchor="middle" x="459" y="-588.58" font-family="Times New Roman,serif" font-size="14.00">*</text>
</g>
<!-- 40&#45;&#45;41 -->
<g id="edge53" class="edge">
<title>40&#45;&#45;41</title>
<path fill="none" stroke="black" d="M516.08,-650.5C503.72,-638.48 486.25,-621.49 473.9,-609.49"/>
</g>
<!-- 42 -->
<g id="node49" class="node">
<title>42</title>
<ellipse fill="none" stroke="black" cx="531" cy="-594" rx="27" ry="18"/>
<text text-anchor="middle" x="531" y="-588.58" font-family="Times New Roman,serif" font-size="14.00">S</text>
</g>
<!-- 40&#45;&#45;42 -->
<g id="edge54" class="edge">
<title>40&#45;&#45;42</title>
<path fill="none" stroke="black" d="M531,-647.7C531,-636.85 531,-622.92 531,-612.1"/>
</g>
<!-- 66 -->
<g id="node50" class="node">
<title>66</title>
<ellipse fill="none" stroke="black" cx="603" cy="-594" rx="27" ry="18"/>
<text text-anchor="middle" x="603" y="-588.58" font-family="Times New Roman,serif" font-size="14.00">T&#39;</text>
</g>
<!-- 40&#45;&#45;66 -->
<g id="edge55" class="edge">
<title>40&#45;&#45;66</title>
<path fill="none" stroke="black" d="M545.92,-650.5C558.28,-638.48 575.75,-621.49 588.1,-609.49"/>
</g>
<!-- 39 -->
<g id="node47" class="node">
<title>39</title>
<ellipse fill="none" stroke="black" cx="387" cy="-522" rx="27" ry="18"/>
<text text-anchor="middle" x="387" y="-516.58" font-family="Times New Roman,serif" font-size="14.00">n</text>
</g>
<!-- 38&#45;&#45;39 -->
<g id="edge56" class="edge">
<title>38&#45;&#45;39</title>
<path fill="none" stroke="black" d="M387,-575.7C387,-564.85 387,-550.92 387,-540.1"/>
</g>
<!-- 43 -->
<g id="node51" class="node">
<title>43</title>
<ellipse fill="none" stroke="black" cx="531" cy="-522" rx="27" ry="18"/>
<text text-anchor="middle" x="531" y="-516.58" font-family="Times New Roman,serif" font-size="14.00">F</text>
</g>
<!-- 42&#45;&#45;43 -->
<g id="edge57" class="edge">
<title>42&#45;&#45;43</title>
<path fill="none" stroke="black" d="M531,-575.7C531,-564.85 531,-550.92 531,-540.1"/>
</g>
<!-- 67 -->
<g id="node74" class="node">
<title>67</title>
<ellipse fill="none" stroke="black" cx="603" cy="-522" rx="27" ry="18"/>
<text text-anchor="middle" x="603" y="-516.58" font-family="Times New Roman,serif" font-size="14.00">eps</text>
</g>
<!-- 66&#45;&#45;67 -->
<g id="edge58" class="edge">
<title>66&#45;&#45;67</title>
<path fill="none" stroke="black" d="M603,-575.7C603,-564.85 603,-550.92 603,-540.1"/>
</g>
<!-- 44 -->
<g id="node52" class="node">
<title>44</title>
<ellipse fill="none" stroke="black" cx="459" cy="-450" rx="27" ry="18"/>
<text text-anchor="middle" x="459" y="-444.57" font-family="Times New Roman,serif" font-size="14.00">(</text>
</g>
<!-- 43&#45;&#45;44 -->
<g id="edge59" class="edge">
<title>43&#45;&#45;44</title>
<path fill="none" stroke="black" d="M516.08,-506.5C503.72,-494.48 486.25,-477.49 473.9,-465.49"/>
</g>
<!-- 45 -->
<g id="node53" class="node">
<title>45</title>
<ellipse fill="none" stroke="black" cx="531" cy="-450" rx="27" ry="18"/>
<text text-anchor="middle" x="531" y="-444.57" font-family="Times New Roman,serif" font-size="14.00">C</text>
</g>
<!-- 43&#45;&#45;45 -->
<g id="edge60" class="edge">
<title>43&#45;&#45;45</title>
<path fill="none" stroke="black" d="M531,-503.7C531,-492.85 531,-478.92 531,-468.1"/>
</g>
<!-- 65 -->
<g id="node54" class="node">
<title>65</title>
<ellipse fill="none" stroke="black" cx="603" cy="-450" rx="27" ry="18"/>
<text text-anchor="middle" x="603" y="-444.57" font-family="Times New Roman,serif" font-size="14.00">)</text>
</g>
<!-- 43&#45;&#45;65 -->
<g id="edge61" class="edge">
<title>43&#45;&#45;65</title>
<path fill="none" stroke="black" d="M545.92,-506.5C558.28,-494.48 575.75,-477.49 588.1,-465.49"/>
</g>
<!-- 46 -->
<g id="node55" class="node">
<title>46</title>
<ellipse fill="none" stroke="black" cx="495" cy="-378" rx="27" ry="18"/>
<text text-anchor="middle" x="495" y="-372.57" font-family="Times New Roman,serif" font-size="14.00">E</text>
</g>
<!-- 45&#45;&#45;46 -->
<g id="edge62" class="edge">
<title>45&#45;&#45;46</title>
<path fill="none" stroke="black" d="M522.65,-432.76C516.83,-421.46 509.11,-406.44 503.3,-395.15"/>
</g>
<!-- 63 -->
<g id="node56" class="node">
<title>63</title>
<ellipse fill="none" stroke="black" cx="567" cy="-378" rx="27" ry="18"/>
<text text-anchor="middle" x="567" y="-372.57" font-family="Times New Roman,serif" font-size="14.00">C&#39;</text>
</g>
<!-- 45&#45;&#45;63 -->
<g id="edge63" class="edge">
<title>45&#45;&#45;63</title>
<path fill="none" stroke="black" d="M539.35,-432.76C545.17,-421.46 552.89,-406.44 558.7,-395.15"/>
</g>
<!-- 47 -->
<g id="node57" class="node">
<title>47</title>
<ellipse fill="none" stroke="black" cx="387" cy="-306" rx="27" ry="18"/>
<text text-anchor="middle" x="387" y="-300.57" font-family="Times New Roman,serif" font-size="14.00">T</text>
</g>
<!-- 46&#45;&#45;47 -->
<g id="edge64" class="edge">
<title>46&#45;&#45;47</title>
<path fill="none" stroke="black" d="M476.19,-364.81C456.49,-352.04 425.72,-332.09 405.96,-319.29"/>
</g>
<!-- 53 -->
<g id="node58" class="node">
<title>53</title>
<ellipse fill="none" stroke="black" cx="495" cy="-306" rx="27" ry="18"/>
<text text-anchor="middle" x="495" y="-300.57" font-family="Times New Roman,serif" font-size="14.00">E&#39;</text>
</g>
<!-- 46&#45;&#45;53 -->
<g id="edge65" class="edge">
<title>46&#45;&#45;53</title>
<path fill="none" stroke="black" d="M495,-359.7C495,-348.85 495,-334.92 495,-324.1"/>
</g>
<!-- 64 -->
<g id="node73" class="node">
<title>64</title>
<ellipse fill="none" stroke="black" cx="567" cy="-306" rx="27" ry="18"/>
<text text-anchor="middle" x="567" y="-300.57" font-family="Times New Roman,serif" font-size="14.00">eps</text>
</g>
<!-- 63&#45;&#45;64 -->
<g id="edge66" class="edge">
<title>63&#45;&#45;64</title>
<path fill="none" stroke="black" d="M567,-359.7C567,-348.85 567,-334.92 567,-324.1"/>
</g>
<!-- 48 -->
<g id="node59" class="node">
<title>48</title>
<ellipse fill="none" stroke="black" cx="315" cy="-234" rx="27" ry="18"/>
<text text-anchor="middle" x="315" y="-228.57" font-family="Times New Roman,serif" font-size="14.00">S</text>
</g>
<!-- 47&#45;&#45;48 -->
<g id="edge67" class="edge">
<title>47&#45;&#45;48</title>
<path fill="none" stroke="black" d="M372.08,-290.5C359.72,-278.48 342.25,-261.49 329.9,-249.49"/>
</g>
<!-- 51 -->
<g id="node60" class="node">
<title>51</title>
<ellipse fill="none" stroke="black" cx="387" cy="-234" rx="27" ry="18"/>
<text text-anchor="middle" x="387" y="-228.57" font-family="Times New Roman,serif" font-size="14.00">T&#39;</text>
</g>
<!-- 47&#45;&#45;51 -->
<g id="edge68" class="edge">
<title>47&#45;&#45;51</title>
<path fill="none" stroke="black" d="M387,-287.7C387,-276.85 387,-262.92 387,-252.1"/>
</g>
<!-- 54 -->
<g id="node64" class="node">
<title>54</title>
<ellipse fill="none" stroke="black" cx="459" cy="-234" rx="27" ry="18"/>
<text text-anchor="middle" x="459" y="-228.57" font-family="Times New Roman,serif" font-size="14.00">&#45;</text>
</g>
<!-- 53&#45;&#45;54 -->
<g id="edge69" class="edge">
<title>53&#45;&#45;54</title>
<path fill="none" stroke="black" d="M486.65,-288.76C480.83,-277.46 473.11,-262.44 467.3,-251.15"/>
</g>
<!-- 55 -->
<g id="node65" class="node">
<title>55</title>
<ellipse fill="none" stroke="black" cx="531" cy="-234" rx="27" ry="18"/>
<text text-anchor="middle" x="531" y="-228.57" font-family="Times New Roman,serif" font-size="14.00">T</text>
</g>
<!-- 53&#45;&#45;55 -->
<g id="edge70" class="edge">
<title>53&#45;&#45;55</title>
<path fill="none" stroke="black" d="M503.35,-288.76C509.17,-277.46 516.89,-262.44 522.7,-251.15"/>
</g>
<!-- 61 -->
<g id="node66" class="node">
<title>61</title>
<ellipse fill="none" stroke="black" cx="603" cy="-234" rx="27" ry="18"/>
<text text-anchor="middle" x="603" y="-228.57" font-family="Times New Roman,serif" font-size="14.00">E&#39;</text>
</g>
<!-- 53&#45;&#45;61 -->
<g id="edge71" class="edge">
<title>53&#45;&#45;61</title>
<path fill="none" stroke="black" d="M513.81,-292.81C533.51,-280.04 564.28,-260.09 584.04,-247.29"/>
</g>
<!-- 49 -->
<g id="node61" class="node">
<title>49</title>
<ellipse fill="none" stroke="black" cx="315" cy="-162" rx="27" ry="18"/>
<text text-anchor="middle" x="315" y="-156.57" font-family="Times New Roman,serif" font-size="14.00">F</text>
</g>
<!-- 48&#45;&#45;49 -->
<g id="edge72" class="edge">
<title>48&#45;&#45;49</title>
<path fill="none" stroke="black" d="M315,-215.7C315,-204.85 315,-190.92 315,-180.1"/>
</g>
<!-- 52 -->
<g id="node63" class="node">
<title>52</title>
<ellipse fill="none" stroke="black" cx="387" cy="-162" rx="27" ry="18"/>
<text text-anchor="middle" x="387" y="-156.57" font-family="Times New Roman,serif" font-size="14.00">eps</text>
</g>
<!-- 51&#45;&#45;52 -->
<g id="edge73" class="edge">
<title>51&#45;&#45;52</title>
<path fill="none" stroke="black" d="M387,-215.7C387,-204.85 387,-190.92 387,-180.1"/>
</g>
<!-- 50 -->
<g id="node62" class="node">
<title>50</title>
<ellipse fill="none" stroke="black" cx="315" cy="-90" rx="27" ry="18"/>
<text text-anchor="middle" x="315" y="-84.58" font-family="Times New Roman,serif" font-size="14.00">n</text>
</g>
<!-- 49&#45;&#45;50 -->
<g id="edge74" class="edge">
<title>49&#45;&#45;50</title>
<path fill="none" stroke="black" d="M315,-143.7C315,-132.85 315,-118.92 315,-108.1"/>
</g>
<!-- 56 -->
<g id="node67" class="node">
<title>56</title>
<ellipse fill="none" stroke="black" cx="459" cy="-162" rx="27" ry="18"/>
<text text-anchor="middle" x="459" y="-156.57" font-family="Times New Roman,serif" font-size="14.00">S</text>
</g>
<!-- 55&#45;&#45;56 -->
<g id="edge75" class="edge">
<title>55&#45;&#45;56</title>
<path fill="none" stroke="black" d="M516.08,-218.5C503.72,-206.48 486.25,-189.49 473.9,-177.49"/>
</g>
<!-- 59 -->
<g id="node68" class="node">
<title>59</title>
<ellipse fill="none" stroke="black" cx="531" cy="-162" rx="27" ry="18"/>
<text text-anchor="middle" x="531" y="-156.57" font-family="Times New Roman,serif" font-size="14.00">T&#39;</text>
</g>
<!-- 55&#45;&#45;59 -->
<g id="edge76" class="edge">
<title>55&#45;&#45;59</title>
<path fill="none" stroke="black" d="M531,-215.7C531,-204.85 531,-190.92 531,-180.1"/>
</g>
<!-- 62 -->
<g id="node72" class="node">
<title>62</title>
<ellipse fill="none" stroke="black" cx="603" cy="-162" rx="27" ry="18"/>
<text text-anchor="middle" x="603" y="-156.57" font-family="Times New Roman,serif" font-size="14.00">eps</text>
</g>
<!-- 61&#45;&#45;62 -->
<g id="edge77" class="edge">
<title>61&#45;&#45;62</title>
<path fill="none" stroke="black" d="M603,-215.7C603,-204.85 603,-190.92 603,-180.1"/>
</g>
<!-- 57 -->
<g id="node69" class="node">
<title>57</title>
<ellipse fill="none" stroke="black" cx="459" cy="-90" rx="27" ry="18"/>
<text text-anchor="middle" x="459" y="-84.58" font-family="Times New Roman,serif" font-size="14.00">F</text>
</g>
<!-- 56&#45;&#45;57 -->
<g id="edge78" class="edge">
<title>56&#45;&#45;57</title>
<path fill="none" stroke="black" d="M459,-143.7C459,-132.85 459,-118.92 459,-108.1"/>
</g>
<!-- 60 -->
<g id="node71" class="node">
<title>60</title>
<ellipse fill="none" stroke="black" cx="531" cy="-90" rx="27" ry="18"/>
<text text-anchor="middle" x="531" y="-84.58" font-family="Times New Roman,serif" font-size="14.00">eps</text>
</g>
<!-- 59&#45;&#45;60 -->
<g id="edge79" class="edge">
<title>59&#45;&#45;60</title>
<path fill="none" stroke="black" d="M531,-143.7C531,-132.85 531,-118.92 531,-108.1"/>
</g>
<!-- 58 -->
<g id="node70" class="node">
<title>58</title>
<ellipse fill="none" stroke="black" cx="459" cy="-18" rx="27" ry="18"/>
<text text-anchor="middle" x="459" y="-12.57" font-family="Times New Roman,serif" font-size="14.00">n</text>
</g>
<!-- 57&#45;&#45;58 -->
<g id="edge80" class="edge">
<title>57&#45;&#45;58</title>
<path fill="none" stroke="black" d="M459,-71.7C459,-60.85 459,-46.92 459,-36.1"/>
</g>
<!-- 71 -->
<g id="node78" class="node">
<title>71</title>
<ellipse fill="none" stroke="black" cx="675" cy="-594" rx="27" ry="18"/>
<text text-anchor="middle" x="675" y="-588.58" font-family="Times New Roman,serif" font-size="14.00">S</text>
</g>
<!-- 70&#45;&#45;71 -->
<g id="edge81" class="edge">
<title>70&#45;&#45;71</title>
<path fill="none" stroke="black" d="M675,-647.7C675,-636.85 675,-622.92 675,-612.1"/>
</g>
<!-- 74 -->
<g id="node79" class="node">
<title>74</title>
<ellipse fill="none" stroke="black" cx="747" cy="-594" rx="27" ry="18"/>
<text text-anchor="middle" x="747" y="-588.58" font-family="Times New Roman,serif" font-size="14.00">T&#39;</text>
</g>
<!-- 70&#45;&#45;74 -->
<g id="edge82" class="edge">
<title>70&#45;&#45;74</title>
<path fill="none" stroke="black" d="M689.92,-650.5C702.28,-638.48 719.75,-621.49 732.1,-609.49"/>
</g>
<!-- 77 -->
<g id="node83" class="node">
<title>77</title>
<ellipse fill="none" stroke="black" cx="819" cy="-594" rx="27" ry="18"/>
<text text-anchor="middle" x="819" y="-588.58" font-family="Times New Roman,serif" font-size="14.00">eps</text>
</g>
<!-- 76&#45;&#45;77 -->
<g id="edge83" class="edge">
<title>76&#45;&#45;77</title>
<path fill="none" stroke="black" d="M791.35,-648.76C797.17,-637.46 804.89,-622.44 810.7,-611.15"/>
</g>
<!-- 72 -->
<g id="node80" class="node">
<title>72</title>
<ellipse fill="none" stroke="black" cx="675" cy="-522" rx="27" ry="18"/>
<text text-anchor="middle" x="675" y="-516.58" font-family="Times New Roman,serif" font-size="14.00">F</text>
</g>
<!-- 71&#45;&#45;72 -->
<g id="edge84" class="edge">
<title>71&#45;&#45;72</title>
<path fill="none" stroke="black" d="M675,-575.7C675,-564.85 675,-550.92 675,-540.1"/>
</g>
<!-- 75 -->
<g id="node82" class="node">
<title>75</title>
<ellipse fill="none" stroke="black" cx="747" cy="-522" rx="27" ry="18"/>
<text text-anchor="middle" x="747" y="-516.58" font-family="Times New Roman,serif" font-size="14.00">eps</text>
</g>
<!-- 74&#45;&#45;75 -->
<g id="edge85" class="edge">
<title>74&#45;&#45;75</title>
<path fill="none" stroke="black" d="M747,-575.7C747,-564.85 747,-550.92 747,-540.1"/>
</g>
<!-- 73 -->
<g id="node81" class="node">
<title>73</title>
<ellipse fill="none" stroke="black" cx="675" cy="-450" rx="27" ry="18"/>
<text text-anchor="middle" x="675" y="-444.57" font-family="Times New Roman,serif" font-size="14.00">n</text>
</g>
<!-- 72&#45;&#45;73 -->
<g id="edge86" class="edge">
<title>72&#45;&#45;73</title>
<path fill="none" stroke="black" d="M675,-503.7C675,-492.85 675,-478.92 675,-468.1"/>
</g>
</g>
</svg>
