<svg width="854px" height="1124px"
 viewBox="0.00 0.00 854.00 1124.00" xmlns="http://www.w3.org/2000/svg" xmlns:xlink="http://www.w3.org/1999/xlink">
<g id="graph0" class="graph" transform="scale(1.0 1.0) rotate(0.0) translate(4.0 1120.0)">
<polygon fill="white" stroke="none" points="-4,4 -4,-1120 850,-1120 850,4 -4,4"/>
<!-- 0 -->
<g id="node1" class="node">
<title>0</title>
<ellipse fill="none" stroke="black" cx="405" cy="-1098" rx="27" ry="18"/>
<text text-anchor="middle" x="405" y="-1092.58" font-family="Times New Roman,serif" font-size="14.00">E</text>
</g>
<!-- 1 -->
<g id="node2" class="node">
<title>1</title>
<ellipse fill="none" stroke="black" cx="369" cy="-1026" rx="27" ry="18"/>
<text text-anchor="middle" x="369" y="-1020.58" font-family="Times New Roman,serif" font-size="14.00">T</text>
</g>
<!-- 0&#45;&#45;1 -->
<g id="edge1" class="edge">
<title>0&#45;&#45;1</title>
<path fill="none" stroke="black" d="M396.65,-1080.76C390.83,-1069.46 383.11,-1054.44 377.3,-1043.15"/>
</g>
<!-- 73 -->
<g id="node3" class="node">
<title>73</title>
<ellipse fill="none" stroke="black" cx="441" cy="-1026" rx="27" ry="18"/>
<text text-anchor="middle" x="441" y="-1020.58" font-family="Times New Roman,serif" font-size="14.00">E&#39;</text>
</g>
<!-- 0&#45;&#45;73 -->
<g id="edge2" class="edge">
<title>0&#45;&#45;73</title>
<path fill="none" stroke="black" d="M413.35,-1080.76C419.17,-1069.46 426.89,-1054.44 432.7,-1043.15"/>
</g>
<!-- 2 -->
<g id="node4" class="node">
<title>2</title>
<ellipse fill="none" stroke="black" cx="252" cy="-954" rx="27" ry="18"/>
<text text-anchor="middle" x="252" y="-948.58" font-family="Times New Roman,serif" font-size="14.00">S</text>
</g>
<!-- 1&#45;&#45;2 -->
<g id="edge3" class="edge">
<title>1&#45;&#45;2</title>
<path fill="none" stroke="black" d="M349.42,-1013.28C327.82,-1000.36 293.27,-979.69 271.65,-966.75"/>
</g>
<!-- 23 -->
<g id="node5" class="node">
<title>23</title>
<ellipse fill="none" stroke="black" cx="369" cy="-954" rx="27" ry="18"/>
<text text-anchor="middle" x="369" y="-948.58" font-family="Times New Roman,serif" font-size="14.00">T&#39;</text>
</g>
<!-- 1&#45;&#45;23 -->
<g id="edge4" class="edge">
<title>1&#45;&#45;23</title>
<path fill="none" stroke="black" d="M369,-1007.7C369,-996.85 369,-982.92 369,-972.1"/>
</g>
<!-- 74 -->
<g id="node75" class="node">
<title>74</title>
<ellipse fill="none" stroke="black" cx="441" cy="-954" rx="27" ry="18"/>
<text text-anchor="middle" x="441" y="-948.58" font-family="Times New Roman,serif" font-size="14.00">eps</text>
</g>
<!-- 73&#45;&#45;74 -->
<g id="edge5" class="edge">
<title>73&#45;&#45;74</title>
<path fill="none" stroke="black" d="M441,-1007.7C441,-996.85 441,-982.92 441,-972.1"/>
</g>
<!-- 3 -->
<g id="node6" class="node">
<title>3</title>
<ellipse fill="none" stroke="black" cx="252" cy="-882" rx="27" ry="18"/>
<text text-anchor="middle" x="252" y="-876.58" font-family="Times New Roman,serif" font-size="14.00">F</text>
</g>
<!-- 2&#45;&#45;3 -->
<g id="edge6" class="edge">
<title>2&#45;&#45;3</title>
<path fill="none" stroke="black" d="M252,-935.7C252,-924.85 252,-910.92 252,-900.1"/>
</g>
<!-- 24 -->
<g id="node26" class="node">
<title>24</title>
<ellipse fill="none" stroke="black" cx="333" cy="-882" rx="27" ry="18"/>
<text text-anchor="middle" x="333" y="-876.58" font-family="Times New Roman,serif" font-size="14.00">*</text>
</g>
<!-- 23&#45;&#45;24 -->
<g id="edge7" class="edge">
<title>23&#45;&#45;24</title>
<path fill="none" stroke="black" d="M360.65,-936.76C354.83,-925.46 347.11,-910.44 341.3,-899.15"/>
</g>
<!-- 25 -->
<g id="node27" class="node">
<title>25</title>
<ellipse fill="none" stroke="black" cx="405" cy="-882" rx="27" ry="18"/>
<text text-anchor="middle" x="405" y="-876.58" font-family="Times New Roman,serif" font-size="14.00">S</text>
</g>
<!-- 23&#45;&#45;25 -->
<g id="edge8" class="edge">
<title>23&#45;&#45;25</title>
<path fill="none" stroke="black" d="M377.35,-936.76C383.17,-925.46 390.89,-910.44 396.7,-899.15"/>
</g>
<!-- 71 -->
<g id="node28" class="node">
<title>71</title>
<ellipse fill="none" stroke="black" cx="477" cy="-882" rx="27" ry="18"/>
<text text-anchor="middle" x="477" y="-876.58" font-family="Times New Roman,serif" font-size="14.00">T&#39;</text>
</g>
<!-- 23&#45;&#45;71 -->
<g id="edge9" class="edge">
<title>23&#45;&#45;71</title>
<path fill="none" stroke="black" d="M387.81,-940.81C407.51,-928.04 438.28,-908.09 458.04,-895.29"/>
</g>
<!-- 4 -->
<g id="node7" class="node">
<title>4</title>
<ellipse fill="none" stroke="black" cx="171" cy="-810" rx="27" ry="18"/>
<text text-anchor="middle" x="171" y="-804.58" font-family="Times New Roman,serif" font-size="14.00">(</text>
</g>
<!-- 3&#45;&#45;4 -->
<g id="edge10" class="edge">
<title>3&#45;&#45;4</title>
<path fill="none" stroke="black" d="M236,-867.17C221.8,-854.9 201.16,-837.06 186.97,-824.8"/>
</g>
<!-- 5 -->
<g id="node8" class="node">
<title>5</title>
<ellipse fill="none" stroke="black" cx="243" cy="-810" rx="27" ry="18"/>
<text text-anchor="middle" x="243" y="-804.58" font-family="Times New Roman,serif" font-size="14.00">E</text>
</g>
<!-- 3&#45;&#45;5 -->
<g id="edge11" class="edge">
<title>3&#45;&#45;5</title>
<path fill="none" stroke="black" d="M249.78,-863.7C248.38,-852.85 246.59,-838.92 245.2,-828.1"/>
</g>
<!-- 22 -->
<g id="node9" class="node">
<title>22</title>
<ellipse fill="none" stroke="black" cx="315" cy="-810" rx="27" ry="18"/>
<text text-anchor="middle" x="315" y="-804.58" font-family="Times New Roman,serif" font-size="14.00">)</text>
</g>
<!-- 3&#45;&#45;22 -->
<g id="edge12" class="edge">
<title>3&#45;&#45;22</title>
<path fill="none" stroke="black" d="M265.36,-866.15C276.05,-854.28 290.97,-837.7 301.66,-825.82"/>
</g>
<!-- 6 -->
<g id="node10" class="node">
<title>6</title>
<ellipse fill="none" stroke="black" cx="99" cy="-738" rx="27" ry="18"/>
<text text-anchor="middle" x="99" y="-732.58" font-family="Times New Roman,serif" font-size="14.00">T</text>
</g>
<!-- 5&#45;&#45;6 -->
<g id="edge13" class="edge">
<title>5&#45;&#45;6</title>
<path fill="none" stroke="black" d="M221.44,-798.52C194.14,-785.25 147.39,-762.52 120.24,-749.32"/>
</g>
<!-- 12 -->
<g id="node11" class="node">
<title>12</title>
<ellipse fill="none" stroke="black" cx="243" cy="-738" rx="27" ry="18"/>
<text text-anchor="middle" x="243" y="-732.58" font-family="Times New Roman,serif" font-size="14.00">E&#39;</text>
</g>
<!-- 5&#45;&#45;12 -->
<g id="edge14" class="edge">
<title>5&#45;&#45;12</title>
<path fill="none" stroke="black" d="M243,-791.7C243,-780.85 243,-766.92 243,-756.1"/>
</g>
<!-- 7 -->
<g id="node12" class="node">
<title>7</title>
<ellipse fill="none" stroke="black" cx="27" cy="-666" rx="27" ry="18"/>
<text text-anchor="middle" x="27" y="-660.58" font-family="Times New Roman,serif" font-size="14.00">S</text>
</g>
<!-- 6&#45;&#45;7 -->
<g id="edge15" class="edge">
<title>6&#45;&#45;7</title>
<path fill="none" stroke="black" d="M84.08,-722.5C71.72,-710.48 54.25,-693.49 41.9,-681.49"/>
</g>
<!-- 10 -->
<g id="node13" class="node">
<title>10</title>
<ellipse fill="none" stroke="black" cx="99" cy="-666" rx="27" ry="18"/>
<text text-anchor="middle" x="99" y="-660.58" font-family="Times New Roman,serif" font-size="14.00">T&#39;</text>
</g>
<!-- 6&#45;&#45;10 -->
<g id="edge16" class="edge">
<title>6&#45;&#45;10</title>
<path fill="none" stroke="black" d="M99,-719.7C99,-708.85 99,-694.92 99,-684.1"/>
</g>
<!-- 13 -->
<g id="node17" class="node">
<title>13</title>
<ellipse fill="none" stroke="black" cx="171" cy="-666" rx="27" ry="18"/>
<text text-anchor="middle" x="171" y="-660.58" font-family="Times New Roman,serif" font-size="14.00">+</text>
</g>
<!-- 12&#45;&#45;13 -->
<g id="edge17" class="edge">
<title>12&#45;&#45;13</title>
<path fill="none" stroke="black" d="M228.08,-722.5C215.72,-710.48 198.25,-693.49 185.9,-681.49"/>
</g>
<!-- 14 -->
<g id="node18" class="node">
<title>14</title>
<ellipse fill="none" stroke="black" cx="243" cy="-666" rx="27" ry="18"/>
<text text-anchor="middle" x="243" y="-660.58" font-family="Times New Roman,serif" font-size="14.00">T</text>
</g>
<!-- 12&#45;&#45;14 -->
<g id="edge18" class="edge">
<title>12&#45;&#45;14</title>
<path fill="none" stroke="black" d="M243,-719.7C243,-708.85 243,-694.92 243,-684.1"/>
</g>
<!-- 20 -->
<g id="node19" class="node">
<title>20</title>
<ellipse fill="none" stroke="black" cx="315" cy="-666" rx="27" ry="18"/>
<text text-anchor="middle" x="315" y="-660.58" font-family="Times New Roman,serif" font-size="14.00">E&#39;</text>
</g>
<!-- 12&#45;&#45;20 -->
<g id="edge19" class="edge">
<title>12&#45;&#45;20</title>
<path fill="none" stroke="black" d="M257.92,-722.5C270.28,-710.48 287.75,-693.49 300.1,-681.49"/>
</g>
<!-- 8 -->
<g id="node14" class="node">
<title>8</title>
<ellipse fill="none" stroke="black" cx="27" cy="-594" rx="27" ry="18"/>
<text text-anchor="middle" x="27" y="-588.58" font-family="Times New Roman,serif" font-size="14.00">F</text>
</g>
<!-- 7&#45;&#45;8 -->
<g id="edge20" class="edge">
<title>7&#45;&#45;8</title>
<path fill="none" stroke="black" d="M27,-647.7C27,-636.85 27,-622.92 27,-612.1"/>
</g>
<!-- 11 -->
<g id="node16" class="node">
<title>11</title>
<ellipse fill="none" stroke="black" cx="99" cy="-594" rx="27" ry="18"/>
<text text-anchor="middle" x="99" y="-588.58" font-family="Times New Roman,serif" font-size="14.00">eps</text>
</g>
<!-- 10&#45;&#45;11 -->
<g id="edge21" class="edge">
<title>10&#45;&#45;11</title>
<path fill="none" stroke="black" d="M99,-647.7C99,-636.85 99,-622.92 99,-612.1"/>
</g>
<!-- 9 -->
<g id="node15" class="node">
<title>9</title>
<ellipse fill="none" stroke="black" cx="27" cy="-522" rx="27" ry="18"/>
<text text-anchor="middle" x="27" y="-516.58" font-family="Times New Roman,serif" font-size="14.00">n</text>
</g>
<!-- 8&#45;&#45;9 -->
<g id="edge22" class="edge">
<title>8&#45;&#45;9</title>
<path fill="none" stroke="black" d="M27,-575.7C27,-564.85 27,-550.92 27,-540.1"/>
</g>
<!-- 15 -->
<g id="node20" class="node">
<title>15</title>
<ellipse fill="none" stroke="black" cx="171" cy="-594" rx="27" ry="18"/>
<text text-anchor="middle" x="171" y="-588.58" font-family="Times New Roman,serif" font-size="14.00">S</text>
</g>
<!-- 14&#45;&#45;15 -->
<g id="edge23" class="edge">
<title>14&#45;&#45;15</title>
<path fill="none" stroke="black" d="M228.08,-650.5C215.72,-638.48 198.25,-621.49 185.9,-609.49"/>
</g>
<!-- 18 -->
<g id="node21" class="node">
<title>18</title>
<ellipse fill="none" stroke="black" cx="243" cy="-594" rx="27" ry="18"/>
<text text-anchor="middle" x="243" y="-588.58" font-family="Times New Roman,serif" font-size="14.00">T&#39;</text>
</g>
<!-- 14&#45;&#45;18 -->
<g id="edge24" class="edge">
<title>14&#45;&#45;18</title>
<path fill="none" stroke="black" d="M243,-647.7C243,-636.85 243,-622.92 243,-612.1"/>
</g>
<!-- 21 -->
<g id="node25" class="node">
<title>21</title>
<ellipse fill="none" stroke="black" cx="315" cy="-594" rx="27" ry="18"/>
<text text-anchor="middle" x="315" y="-588.58" font-family="Times New Roman,serif" font-size="14.00">eps</text>
</g>
<!-- 20&#45;&#45;21 -->
<g id="edge25" class="edge">
<title>20&#45;&#45;21</title>
<path fill="none" stroke="black" d="M315,-647.7C315,-636.85 315,-622.92 315,-612.1"/>
</g>
<!-- 16 -->
<g id="node22" class="node">
<title>16</title>
<ellipse fill="none" stroke="black" cx="171" cy="-522" rx="27" ry="18"/>
<text text-anchor="middle" x="171" y="-516.58" font-family="Times New Roman,serif" font-size="14.00">F</text>
</g>
<!-- 15&#45;&#45;16 -->
<g id="edge26" class="edge">
<title>15&#45;&#45;16</title>
<path fill="none" stroke="black" d="M171,-575.7C171,-564.85 171,-550.92 171,-540.1"/>
</g>
<!-- 19 -->
<g id="node24" class="node">
<title>19</title>
<ellipse fill="none" stroke="black" cx="243" cy="-522" rx="27" ry="18"/>
<text text-anchor="middle" x="243" y="-516.58" font-family="Times New Roman,serif" font-size="14.00">eps</text>
</g>
<!-- 18&#45;&#45;19 -->
<g id="edge27" class="edge">
<title>18&#45;&#45;19</title>
<path fill="none" stroke="black" d="M243,-575.7C243,-564.85 243,-550.92 243,-540.1"/>
</g>
<!-- 17 -->
<g id="node23" class="node">
<title>17</title>
<ellipse fill="none" stroke="black" cx="171" cy="-450" rx="27" ry="18"/>
<text text-anchor="middle" x="171" y="-444.57" font-family="Times New Roman,serif" font-size="14.00">n</text>
</g>
<!-- 16&#45;&#45;17 -->
<g id="edge28" class="edge">
<title>16&#45;&#45;17</title>
<path fill="none" stroke="black" d="M171,-503.7C171,-492.85 171,-478.92 171,-468.1"/>
</g>
<!-- 26 -->
<g id="node29" class="node">
<title>26</title>
<ellipse fill="none" stroke="black" cx="405" cy="-810" rx="27" ry="18"/>
<text text-anchor="middle" x="405" y="-804.58" font-family="Times New Roman,serif" font-size="14.00">F</text>
</g>
<!-- 25&#45;&#45;26 -->
<g id="edge29" class="edge">
<title>25&#45;&#45;26</title>
<path fill="none" stroke="black" d="M405,-863.7C405,-852.85 405,-838.92 405,-828.1"/>
</g>
<!-- 72 -->
<g id="node74" class="node">
<title>72</title>
<ellipse fill="none" stroke="black" cx="477" cy="-810" rx="27" ry="18"/>
<text text-anchor="middle" x="477" y="-804.58" font-family="Times New Roman,serif" font-size="14.00">eps</text>
</g>
<!-- 71&#45;&#45;72 -->
<g id="edge30" class="edge">
<title>71&#45;&#45;72</title>
<path fill="none" stroke="black" d="M477,-863.7C477,-852.85 477,-838.92 477,-828.1"/>
</g>
<!-- 27 -->
<g id="node30" class="node">
<title>27</title>
<ellipse fill="none" stroke="black" cx="333" cy="-738" rx="27" ry="18"/>
<text text-anchor="middle" x="333" y="-732.58" font-family="Times New Roman,serif" font-size="14.00">f</text>
</g>
<!-- 26&#45;&#45;27 -->
<g id="edge31" class="edge">
<title>26&#45;&#45;27</title>
<path fill="none" stroke="black" d="M390.08,-794.5C377.72,-782.48 360.25,-765.49 347.9,-753.49"/>
</g>
<!-- 28 -->
<g id="node31" class="node">
<title>28</title>
<ellipse fill="none" stroke="black" cx="405" cy="-738" rx="27" ry="18"/>
<text text-anchor="middle" x="405" y="-732.58" font-family="Times New Roman,serif" font-size="14.00">(</text>
</g>
<!-- 26&#45;&#45;28 -->
<g id="edge32" class="edge">
<title>26&#45;&#45;28</title>
<path fill="none" stroke="black" d="M405,-791.7C405,-780.85 405,-766.92 405,-756.1"/>
</g>
<!-- 29 -->
<g id="node32" class="node">
<title>29</title>
<ellipse fill="none" stroke="black" cx="477" cy="-738" rx="27" ry="18"/>
<text text-anchor="middle" x="477" y="-732.58" font-family="Times New Roman,serif" font-size="14.00">E</text>
</g>
<!-- 26&#45;&#45;29 -->
<g id="edge33" class="edge">
<title>26&#45;&#45;29</title>
<path fill="none" stroke="black" d="M419.92,-794.5C432.28,-782.48 449.75,-765.49 462.1,-753.49"/>
</g>
<!-- 70 -->
<g id="node33" class="node">
<title>70</title>
<ellipse fill="none" stroke="black" cx="549" cy="-738" rx="27" ry="18"/>
<text text-anchor="middle" x="549" y="-732.58" font-family="Times New Roman,serif" font-size="14.00">)</text>
</g>
<!-- 26&#45;&#45;70 -->
<g id="edge34" class="edge">
<title>26&#45;&#45;70</title>
<path fill="none" stroke="black" d="M426.56,-798.52C453.86,-785.25 500.61,-762.52 527.76,-749.32"/>
</g>
<!-- 30 -->
<g id="node34" class="node">
<title>30</title>
<ellipse fill="none" stroke="black" cx="477" cy="-666" rx="27" ry="18"/>
<text text-anchor="middle" x="477" y="-660.58" font-family="Times New Roman,serif" font-size="14.00">T</text>
</g>
<!-- 29&#45;&#45;30 -->
<g id="edge35" class="edge">
<title>29&#45;&#45;30</title>
<path fill="none" stroke="black" d="M477,-719.7C477,-708.85 477,-694.92 477,-684.1"/>
</g>
<!-- 60 -->
<g id="node35" class="node">
<title>60</title>
<ellipse fill="none" stroke="black" cx="675" cy="-666" rx="27" ry="18"/>
<text text-anchor="middle" x="675" y="-660.58" font-family="Times New Roman,serif" font-size="14.00">E&#39;</text>
</g>
<!-- 29&#45;&#45;60 -->
<g id="edge36" class="edge">
<title>29&#45;&#45;60</title>
<path fill="none" stroke="black" d="M498.13,-726.49C502.96,-724.23 508.12,-721.94 513,-720 560.84,-700.96 618.49,-683.32 650.51,-673.97"/>
</g>
<!-- 31 -->
<g id="node36" class="node">
<title>31</title>
<ellipse fill="none" stroke="black" cx="387" cy="-594" rx="27" ry="18"/>
<text text-anchor="middle" x="387" y="-588.58" font-family="Times New Roman,serif" font-size="14.00">S</text>
</g>
<!-- 30&#45;&#45;31 -->
<g id="edge37" class="edge">
<title>30&#45;&#45;31</title>
<path fill="none" stroke="black" d="M460.07,-651.83C444.08,-639.4 420.22,-620.84 404.16,-608.35"/>
</g>
<!-- 35 -->
<g id="node37" class="node">
<title>35</title>
<ellipse fill="none" stroke="black" cx="495" cy="-594" rx="27" ry="18"/>
<text text-anchor="middle" x="495" y="-588.58" font-family="Times New Roman,serif" font-size="14.00">T&#39;</text>
</g>
<!-- 30&#45;&#45;35 -->
<g id="edge38" class="edge">
<title>30&#45;&#45;35</title>
<path fill="none" stroke="black" d="M481.36,-648.05C484.19,-637.05 487.86,-622.76 490.68,-611.79"/>
</g>
<!-- 61 -->
<g id="node65" class="node">
<title>61</title>
<ellipse fill="none" stroke="black" cx="639" cy="-594" rx="27" ry="18"/>
<text text-anchor="middle" x="639" y="-588.58" font-family="Times New Roman,serif" font-size="14.00">+</text>
</g>
<!-- 60&#45;&#45;61 -->
<g id="edge39" class="edge">
<title>60&#45;&#45;61</title>
<path fill="none" stroke="black" d="M666.65,-648.76C660.83,-637.46 653.11,-622.44 647.3,-611.15"/>
</g>
<!-- 62 -->
<g id="node66" class="node">
<title>62</title>
<ellipse fill="none" stroke="black" cx="711" cy="-594" rx="27" ry="18"/>
<text text-anchor="middle" x="711" y="-588.58" font-family="Times New Roman,serif" font-size="14.00">T</text>
</g>
<!-- 60&#45;&#45;62 -->
<g id="edge40" class="edge">
<title>60&#45;&#45;62</title>
<path fill="none" stroke="black" d="M683.35,-648.76C689.17,-637.46 696.89,-622.44 702.7,-611.15"/>
</g>
<!-- 68 -->
<g id="node67" class="node">
<title>68</title>
<ellipse fill="none" stroke="black" cx="801" cy="-594" rx="27" ry="18"/>
<text text-anchor="middle" x="801" y="-588.58" font-family="Times New Roman,serif" font-size="14.00">E&#39;</text>
</g>
<!-- 60&#45;&#45;68 -->
<g id="edge41" class="edge">
<title>60&#45;&#45;68</title>
<path fill="none" stroke="black" d="M695.24,-653.75C718.76,-640.69 757.31,-619.27 780.81,-606.22"/>
</g>
<!-- 32 -->
<g id="node38" class="node">
<title>32</title>
<ellipse fill="none" stroke="black" cx="315" cy="-522" rx="27" ry="18"/>
<text text-anchor="middle" x="315" y="-516.58" font-family="Times New Roman,serif" font-size="14.00">&#45;</text>
</g>
<!-- 31&#45;&#45;32 -->
<g id="edge42" class="edge">
<title>31&#45;&#45;32</title>
<path fill="none" stroke="black" d="M372.08,-578.5C359.72,-566.48 342.25,-549.49 329.9,-537.49"/>
</g>
<!-- 33 -->
<g id="node39" class="node">
<title>33</title>
<ellipse fill="none" stroke="black" cx="387" cy="-522" rx="27" ry="18"/>
<text text-anchor="middle" x="387" y="-516.58" font-family="Times New Roman,serif" font-size="14.00">F</text>
</g>
<!-- 31&#45;&#45;33 -->
<g id="edge43" class="edge">
<title>31&#45;&#45;33</title>
<path fill="none" stroke="black" d="M387,-575.7C387,-564.85 387,-550.92 387,-540.1"/>
</g>
<!-- 36 -->
<g id="node41" class="node">
<title>36</title>
<ellipse fill="none" stroke="black" cx="459" cy="-522" rx="27" ry="18"/>
<text text-anchor="middle" x="459" y="-516.58" font-family="Times New Roman,serif" font-size="14.00">*</text>
</g>
<!-- 35&#45;&#45;36 -->
<g id="edge44" class="edge">
<title>35&#45;&#45;36</title>
<path fill="none" stroke="black" d="M486.65,-576.76C480.83,-565.46 473.11,-550.44 467.3,-539.15"/>
</g>
<!-- 37 -->
<g id="node42" class="node">
<title>37</title>
<ellipse fill="none" stroke="black" cx="531" cy="-522" rx="27" ry="18"/>
<text text-anchor="middle" x="531" y="-516.58" font-family="Times New Roman,serif" font-size="14.00">S</text>
</g>
<!-- 35&#45;&#45;37 -->
<g id="edge45" class="edge">
<title>35&#45;&#45;37</title>
<path fill="none" stroke="black" d="M503.35,-576.76C509.17,-565.46 516.89,-550.44 522.7,-539.15"/>
</g>
<!-- 58 -->
<g id="node43" class="node">
<title>58</title>
<ellipse fill="none" stroke="black" cx="603" cy="-522" rx="27" ry="18"/>
<text text-anchor="middle" x="603" y="-516.58" font-family="Times New Roman,serif" font-size="14.00">T&#39;</text>
</g>
<!-- 35&#45;&#45;58 -->
<g id="edge46" class="edge">
<title>35&#45;&#45;58</title>
<path fill="none" stroke="black" d="M513.81,-580.81C533.51,-568.04 564.28,-548.09 584.04,-535.29"/>
</g>
<!-- 34 -->
<g id="node40" class="node">
<title>34</title>
<ellipse fill="none" stroke="black" cx="387" cy="-450" rx="27" ry="18"/>
<text text-anchor="middle" x="387" y="-444.57" font-family="Times New Roman,serif" font-size="14.00">n</text>
</g>
<!-- 33&#45;&#45;34 -->
<g id="edge47" class="edge">
<title>33&#45;&#45;34</title>
<path fill="none" stroke="black" d="M387,-503.7C387,-492.85 387,-478.92 387,-468.1"/>
</g>
<!-- 38 -->
<g id="node44" class="node">
<title>38</title>
<ellipse fill="none" stroke="black" cx="531" cy="-450" rx="27" ry="18"/>
<text text-anchor="middle" x="531" y="-444.57" font-family="Times New Roman,serif" font-size="14.00">F</text>
</g>
<!-- 37&#45;&#45;38 -->
<g id="edge48" class="edge">
<title>37&#45;&#45;38</title>
<path fill="none" stroke="black" d="M531,-503.7C531,-492.85 531,-478.92 531,-468.1"/>
</g>
<!-- 59 -->
<g id="node64" class="node">
<title>59</title>
<ellipse fill="none" stroke="black" cx="603" cy="-450" rx="27" ry="18"/>
<text text-anchor="middle" x="603" y="-444.57" font-family="Times New Roman,serif" font-size="14.00">eps</text>
</g>
<!-- 58&#45;&#45;59 -->
<g id="edge49" class="edge">
<title>58&#45;&#45;59</title>
<path fill="none" stroke="black" d="M603,-503.7C603,-492.85 603,-478.92 603,-468.1"/>
</g>
<!-- 39 -->
<g id="node45" class="node">
<title>39</title>
<ellipse fill="none" stroke="black" cx="459" cy="-378" rx="27" ry="18"/>
<text text-anchor="middle" x="459" y="-372.57" font-family="Times New Roman,serif" font-size="14.00">(</text>
</g>
<!-- 38&#45;&#45;39 -->
<g id="edge50" class="edge">
<title>38&#45;&#45;39</title>
<path fill="none" stroke="black" d="M516.08,-434.5C503.72,-422.48 486.25,-405.49 473.9,-393.49"/>
</g>
<!-- 40 -->
<g id="node46" class="node">
<title>40</title>
<ellipse fill="none" stroke="black" cx="531" cy="-378" rx="27" ry="18"/>
<text text-anchor="middle" x="531" y="-372.57" font-family="Times New Roman,serif" font-size="14.00">E</text>
</g>
<!-- 38&#45;&#45;40 -->
<g id="edge51" class="edge">
<title>38&#45;&#45;40</title>
<path fill="none" stroke="black" d="M531,-431.7C531,-420.85 531,-406.92 531,-396.1"/>
</g>
<!-- 57 -->
<g id="node47" class="node">
<title>57</title>
<ellipse fill="none" stroke="black" cx="603" cy="-378" rx="27" ry="18"/>
<text text-anchor="middle" x="603" y="-372.57" font-family="Times New Roman,serif" font-size="14.00">)</text>
</g>
<!-- 38&#45;&#45;57 -->
<g id="edge52" class="edge">
<title>38&#45;&#45;57</title>
<path fill="none" stroke="black" d="M545.92,-434.5C558.28,-422.48 575.75,-405.49 588.1,-393.49"/>
</g>
<!-- 41 -->
<g id="node48" class="node">
<title>41</title>
<ellipse fill="none" stroke="black" cx="459" cy="-306" rx="27" ry="18"/>
<text text-anchor="middle" x="459" y="-300.57" font-family="Times New Roman,serif" font-size="14.00">T</text>
</g>
<!-- 40&#45;&#45;41 -->
<g id="edge53" class="edge">
<title>40&#45;&#45;41</title>
<path fill="none" stroke="black" d="M516.08,-362.5C503.72,-350.48 486.25,-333.49 473.9,-321.49"/>
</g>
<!-- 47 -->
<g id="node49" class="node">
<title>47</title>
<ellipse fill="none" stroke="black" cx="567" cy="-306" rx="27" ry="18"/>
<text text-anchor="middle" x="567" y="-300.57" font-family="Times New Roman,serif" font-size="14.00">E&#39;</text>
</g>
<!-- 40&#45;&#45;47 -->
<g id="edge54" class="edge">
<title>40&#45;&#45;47</title>
<path fill="none" stroke="black" d="M539.35,-360.76C545.17,-349.46 552.89,-334.44 558.7,-323.15"/>
</g>
<!-- 42 -->
<g id="node50" class="node">
<title>42</title>
<ellipse fill="none" stroke="black" cx="387" cy="-234" rx="27" ry="18"/>
<text text-anchor="middle" x="387" y="-228.57" font-family="Times New Roman,serif" font-size="14.00">S</text>
</g>
<!-- 41&#45;&#45;42 -->
<g id="edge55" class="edge">
<title>41&#45;&#45;42</title>
<path fill="none" stroke="black" d="M444.08,-290.5C431.72,-278.48 414.25,-261.49 401.9,-249.49"/>
</g>
<!-- 45 -->
<g id="node51" class="node">
<title>45</title>
<ellipse fill="none" stroke="black" cx="459" cy="-234" rx="27" ry="18"/>
<text text-anchor="middle" x="459" y="-228.57" font-family="Times New Roman,serif" font-size="14.00">T&#39;</text>
</g>
<!-- 41&#45;&#45;45 -->
<g id="edge56" class="edge">
<title>41&#45;&#45;45</title>
<path fill="none" stroke="black" d="M459,-287.7C459,-276.85 459,-262.92 459,-252.1"/>
</g>
<!-- 48 -->
<g id="node55" class="node">
<title>48</title>
<ellipse fill="none" stroke="black" cx="531" cy="-234" rx="27" ry="18"/>
<text text-anchor="middle" x="531" y="-228.57" font-family="Times New Roman,serif" font-size="14.00">&#45;</text>
</g>
<!-- 47&#45;&#45;48 -->
<g id="edge57" class="edge">
<title>47&#45;&#45;48</title>
<path fill="none" stroke="black" d="M558.65,-288.76C552.83,-277.46 545.11,-262.44 539.3,-251.15"/>
</g>
<!-- 49 -->
<g id="node56" class="node">
<title>49</title>
<ellipse fill="none" stroke="black" cx="603" cy="-234" rx="27" ry="18"/>
<text text-anchor="middle" x="603" y="-228.57" font-family="Times New Roman,serif" font-size="14.00">T</text>
</g>
<!-- 47&#45;&#45;49 -->
<g id="edge58" class="edge">
<title>47&#45;&#45;49</title>
<path fill="none" stroke="black" d="M575.35,-288.76C581.17,-277.46 588.89,-262.44 594.7,-251.15"/>
</g>
<!-- 55 -->
<g id="node57" class="node">
<title>55</title>
<ellipse fill="none" stroke="black" cx="675" cy="-234" rx="27" ry="18"/>
<text text-anchor="middle" x="675" y="-228.57" font-family="Times New Roman,serif" font-size="14.00">E&#39;</text>
</g>
<!-- 47&#45;&#45;55 -->
<g id="edge59" class="edge">
<title>47&#45;&#45;55</title>
<path fill="none" stroke="black" d="M585.81,-292.81C605.51,-280.04 636.28,-260.09 656.04,-247.29"/>
</g>
<!-- 43 -->
<g id="node52" class="node">
<title>43</title>
<ellipse fill="none" stroke="black" cx="387" cy="-162" rx="27" ry="18"/>
<text text-anchor="middle" x="387" y="-156.57" font-family="Times New Roman,serif" font-size="14.00">F</text>
</g>
<!-- 42&#45;&#45;43 -->
<g id="edge60" class="edge">
<title>42&#45;&#45;43</title>
<path fill="none" stroke="black" d="M387,-215.7C387,-204.85 387,-190.92 387,-180.1"/>
</g>
<!-- 46 -->
<g id="node54" class="node">
<title>46</title>
<ellipse fill="none" stroke="black" cx="459" cy="-162" rx="27" ry="18"/>
<text text-anchor="middle" x="459" y="-156.57" font-family="Times New Roman,serif" font-size="14.00">eps</text>
</g>
<!-- 45&#45;&#45;46 -->
<g id="edge61" class="edge">
<title>45&#45;&#45;46</title>
<path fill="none" stroke="black" d="M459,-215.7C459,-204.85 459,-190.92 459,-180.1"/>
</g>
<!-- 44 -->
<g id="node53" class="node">
<title>44</title>
<ellipse fill="none" stroke="black" cx="387" cy="-90" rx="27" ry="18"/>
<text text-anchor="middle" x="387" y="-84.58" font-family="Times New Roman,serif" font-size="14.00">n</text>
</g>
<!-- 43&#45;&#45;44 -->
<g id="edge62" class="edge">
<title>43&#45;&#45;44</title>
<path fill="none" stroke="black" d="M387,-143.7C387,-132.85 387,-118.92 387,-108.1"/>
</g>
<!-- 50 -->
<g id="node58" class="node">
<title>50</title>
<ellipse fill="none" stroke="black" cx="531" cy="-162" rx="27" ry="18"/>
<text text-anchor="middle" x="531" y="-156.57" font-family="Times New Roman,serif" font-size="14.00">S</text>
</g>
<!-- 49&#45;&#45;50 -->
<g id="edge63" class="edge">
<title>49&#45;&#45;50</title>
<path fill="none" stroke="black" d="M588.08,-218.5C575.72,-206.48 558.25,-189.49 545.9,-177.49"/>
</g>
<!-- 53 -->
<g id="node59" class="node">
<title>53</title>
<ellipse fill="none" stroke="black" cx="603" cy="-162" rx="27" ry="18"/>
<text text-anchor="middle" x="603" y="-156.57" font-family="Times New Roman,serif" font-size="14.00">T&#39;</text>
</g>
<!-- 49&#45;&#45;53 -->
<g id="edge64" class="edge">
<title>49&#45;&#45;53</title>
<path fill="none" stroke="black" d="M603,-215.7C603,-204.85 603,-190.92 603,-180.1"/>
</g>
<!-- 56 -->
<g id="node63" class="node">
<title>56</title>
<ellipse fill="none" stroke="black" cx="675" cy="-162" rx="27" ry="18"/>
<text text-anchor="middle" x="675" y="-156.57" font-family="Times New Roman,serif" font-size="14.00">eps</text>
</g>
<!-- 55&#45;&#45;56 -->
<g id="edge65" class="edge">
<title>55&#45;&#45;56</title>
<path fill="none" stroke="black" d="M675,-215.7C675,-204.85 675,-190.92 675,-180.1"/>
</g>
<!-- 51 -->
<g id="node60" class="node">
<title>51</title>
<ellipse fill="none" stroke="black" cx="531" cy="-90" rx="27" ry="18"/>
<text text-anchor="middle" x="531" y="-84.58" font-family="Times New Roman,serif" font-size="14.00">F</text>
</g>
<!-- 50&#45;&#45;51 -->
<g id="edge66" class="edge">
<title>50&#45;&#45;51</title>
<path fill="none" stroke="black" d="M531,-143.7C531,-132.85 531,-118.92 531,-108.1"/>
</g>
<!-- 54 -->
<g id="node62" class="node">
<title>54</title>
<ellipse fill="none" stroke="black" cx="603" cy="-90" rx="27" ry="18"/>
<text text-anchor="middle" x="603" y="-84.58" font-family="Times New Roman,serif" font-size="14.00">eps</text>
</g>
<!-- 53&#45;&#45;54 -->
<g id="edge67" class="edge">
<title>53&#45;&#45;54</title>
<path fill="none" stroke="black" d="M603,-143.7C603,-132.85 603,-118.92 603,-108.1"/>
</g>
<!-- 52 -->
<g id="node61" class="node">
<title>52</title>
<ellipse fill="none" stroke="black" cx="531" cy="-18" rx="27" ry="18"/>
<text text-anchor="middle" x="531" y="-12.57" font-family="Times New Roman,serif" font-size="14.00">n</text>
</g>
<!-- 51&#45;&#45;52 -->
<g id="edge68" class="edge">
<title>51&#45;&#45;52</title>
<path fill="none" stroke="black" d="M531,-71.7C531,-60.85 531,-46.92 531,-36.1"/>
</g>
<!-- 63 -->
<g id="node68" class="node">
<title>63</title>
<ellipse fill="none" stroke="black" cx="675" cy="-522" rx="27" ry="18"/>
<text text-anchor="middle" x="675" y="-516.58" font-family="Times New Roman,serif" font-size="14.00">S</text>
</g>
<!-- 62&#45;&#45;63 -->
<g id="edge69" class="edge">
<title>62&#45;&#45;63</title>
<path fill="none" stroke="black" d="M702.65,-576.76C696.83,-565.46 689.11,-550.44 683.3,-539.15"/>
</g>
<!-- 66 -->
<g id="node69" class="node">
<title>66</title>
<ellipse fill="none" stroke="black" cx="747" cy="-522" rx="27" ry="18"/>
<text text-anchor="middle" x="747" y="-516.58" font-family="Times New Roman,serif" font-size="14.00">T&#39;</text>
</g>
<!-- 62&#45;&#45;66 -->
<g id="edge70" class="edge">
<title>62&#45;&#45;66</title>
<path fill="none" stroke="black" d="M719.35,-576.76C725.17,-565.46 732.89,-550.44 738.7,-539.15"/>
</g>
<!-- 69 -->
<g id="node73" class="node">
<title>69</title>
<ellipse fill="none" stroke="black" cx="819" cy="-522" rx="27" ry="18"/>
<text text-anchor="middle" x="819" y="-516.58" font-family="Times New Roman,serif" font-size="14.00">eps</text>
</g>
<!-- 68&#45;&#45;69 -->
<g id="edge71" class="edge">
<title>68&#45;&#45;69</title>
<path fill="none" stroke="black" d="M805.36,-576.05C808.19,-565.05 811.86,-550.76 814.68,-539.79"/>
</g>
<!-- 64 -->
<g id="node70" class="node">
<title>64</title>
<ellipse fill="none" stroke="black" cx="675" cy="-450" rx="27" ry="18"/>
<text text-anchor="middle" x="675" y="-444.57" font-family="Times New Roman,serif" font-size="14.00">F</text>
</g>
<!-- 63&#45;&#45;64 -->
<g id="edge72" class="edge">
<title>63&#45;&#45;64</title>
<path fill="none" stroke="black" d="M675,-503.7C675,-492.85 675,-478.92 675,-468.1"/>
</g>
<!-- 67 -->
<g id="node72" class="node">
<title>67</title>
<ellipse fill="none" stroke="black" cx="747" cy="-450" rx="27" ry="18"/>
<text text-anchor="middle" x="747" y="-444.57" font-family="Times New Roman,serif" font-size="14.00">eps</text>
</g>
<!-- 66&#45;&#45;67 -->
<g id="edge73" class="edge">
<title>66&#45;&#45;67</title>
<path fill="none" stroke="black" d="M747,-503.7C747,-492.85 747,-478.92 747,-468.1"/>
</g>
<!-- 65 -->
<g id="node71" class="node">
<title>65</title>
<ellipse fill="none" stroke="black" cx="675" cy="-378" rx="27" ry="18"/>
<text text-anchor="middle" x="675" y="-372.57" font-family="Times New Roman,serif" font-size="14.00">n</text>
</g>
<!-- 64&#45;&#45;65 -->
<g id="edge74" class="edge">
<title>64&#45;&#45;65</title>
<path fill="none" stroke="black" d="M675,-431.7C675,-420.85 675,-406.92 675,-396.1"/>
</g>
</g>
</svg>
