<svg width="710px" height="1124px"
 viewBox="0.00 0.00 710.00 1124.00" xmlns="http://www.w3.org/2000/svg" xmlns:xlink="http://www.w3.org/1999/xlink">
<g id="graph0" class="graph" transform="scale(1.0 1.0) rotate(0.0) translate(4.0 1120.0)">
<polygon fill="white" stroke="transparent" points="-4,4 -4,-1120 706,-1120 706,4 -4,4"/>
<!-- 0 -->
<g id="node1" class="node">
<title>0</title>
<ellipse fill="none" stroke="black" cx="351" cy="-1098" rx="27" ry="18"/>
<text text-anchor="middle" x="351" y="-1093.8" font-family="Times,serif" font-size="14.00">E</text>
</g>
<!-- 1 -->
<g id="node2" class="node">
<title>1</title>
<ellipse fill="none" stroke="black" cx="315" cy="-1026" rx="27" ry="18"/>
<text text-anchor="middle" x="315" y="-1021.8" font-family="Times,serif" font-size="14.00">T</text>
</g>
<!-- 0&#45;&#45;1 -->
<g id="edge1" class="edge">
<title>0&#45;&#45;1</title>
<path fill="none" stroke="black" d="M342.65,-1080.76C336.83,-1069.46 329.11,-1054.44 323.3,-1043.15"/>
</g>
<!-- 63 -->
<g id="node3" class="node">
<title>63</title>
<ellipse fill="none" stroke="black" cx="387" cy="-1026" rx="27" ry="18"/>
<text text-anchor="middle" x="387" y="-1021.8" font-family="Times,serif" font-size="14.00">E&#39;</text>
</g>
<!-- 0&#45;&#45;63 -->
<g id="edge2" class="edge">
<title>0&#45;&#45;63</title>
<path fill="none" stroke="black" d="M359.35,-1080.76C365.17,-1069.46 372.89,-1054.44 378.7,-1043.15"/>
</g>
<!-- 2 -->
<g id="node4" class="node">
<title>2</title>
<ellipse fill="none" stroke="black" cx="279" cy="-954" rx="27" ry="18"/>
<text text-anchor="middle" x="279" y="-949.8" font-family="Times,serif" font-size="14.00">S</text>
</g>
<!-- 1&#45;&#45;2 -->
<g id="edge3" class="edge">
<title>1&#45;&#45;2</title>
<path fill="none" stroke="black" d="M306.65,-1008.76C300.83,-997.46 293.11,-982.44 287.3,-971.15"/>
</g>
<!-- 20 -->
<g id="node5" class="node">
<title>20</title>
<ellipse fill="none" stroke="black" cx="369" cy="-954" rx="27" ry="18"/>
<text text-anchor="middle" x="369" y="-949.8" font-family="Times,serif" font-size="14.00">T&#39;</text>
</g>
<!-- 1&#45;&#45;20 -->
<g id="edge4" class="edge">
<title>1&#45;&#45;20</title>
<path fill="none" stroke="black" d="M326.98,-1009.46C335.93,-997.86 348.11,-982.08 357.05,-970.49"/>
</g>
<!-- 3 -->
<g id="node6" class="node">
<title>3</title>
<ellipse fill="none" stroke="black" cx="243" cy="-882" rx="27" ry="18"/>
<text text-anchor="middle" x="243" y="-877.8" font-family="Times,serif" font-size="14.00">F</text>
</g>
<!-- 2&#45;&#45;3 -->
<g id="edge5" class="edge">
<title>2&#45;&#45;3</title>
<path fill="none" stroke="black" d="M270.65,-936.76C264.83,-925.46 257.11,-910.44 251.3,-899.15"/>
</g>
<!-- 21 -->
<g id="node23" class="node">
<title>21</title>
<ellipse fill="none" stroke="black" cx="315" cy="-882" rx="27" ry="18"/>
<text text-anchor="middle" x="315" y="-877.8" font-family="Times,serif" font-size="14.00">*</text>
</g>
<!-- 20&#45;&#45;21 -->
<g id="edge6" class="edge">
<title>20&#45;&#45;21</title>
<path fill="none" stroke="black" d="M357.02,-937.46C348.07,-925.86 335.89,-910.08 326.95,-898.49"/>
</g>
<!-- 22 -->
<g id="node24" class="node">
<title>22</title>
<ellipse fill="none" stroke="black" cx="387" cy="-882" rx="27" ry="18"/>
<text text-anchor="middle" x="387" y="-877.8" font-family="Times,serif" font-size="14.00">S</text>
</g>
<!-- 20&#45;&#45;22 -->
<g id="edge7" class="edge">
<title>20&#45;&#45;22</title>
<path fill="none" stroke="black" d="M373.36,-936.05C376.19,-925.05 379.86,-910.76 382.68,-899.79"/>
</g>
<!-- 62 -->
<g id="node25" class="node">
<title>62</title>
<ellipse fill="none" stroke="black" cx="459" cy="-882" rx="27" ry="18"/>
<text text-anchor="middle" x="459" y="-877.8" font-family="Times,serif" font-size="14.00">T&#39;</text>
</g>
<!-- 20&#45;&#45;62 -->
<g id="edge8" class="edge">
<title>20&#45;&#45;62</title>
<path fill="none" stroke="black" d="M385.93,-939.83C402.02,-927.32 426.08,-908.6 442.15,-896.11"/>
</g>
<!-- 4 -->
<g id="node7" class="node">
<title>4</title>
<ellipse fill="none" stroke="black" cx="171" cy="-810" rx="27" ry="18"/>
<text text-anchor="middle" x="171" y="-805.8" font-family="Times,serif" font-size="14.00">(</text>
</g>
<!-- 3&#45;&#45;4 -->
<g id="edge9" class="edge">
<title>3&#45;&#45;4</title>
<path fill="none" stroke="black" d="M228.43,-866.83C216.02,-854.77 198.27,-837.51 185.8,-825.38"/>
</g>
<!-- 5 -->
<g id="node8" class="node">
<title>5</title>
<ellipse fill="none" stroke="black" cx="243" cy="-810" rx="27" ry="18"/>
<text text-anchor="middle" x="243" y="-805.8" font-family="Times,serif" font-size="14.00">E</text>
</g>
<!-- 3&#45;&#45;5 -->
<g id="edge10" class="edge">
<title>3&#45;&#45;5</title>
<path fill="none" stroke="black" d="M243,-863.7C243,-852.85 243,-838.92 243,-828.1"/>
</g>
<!-- 19 -->
<g id="node9" class="node">
<title>19</title>
<ellipse fill="none" stroke="black" cx="315" cy="-810" rx="27" ry="18"/>
<text text-anchor="middle" x="315" y="-805.8" font-family="Times,serif" font-size="14.00">)</text>
</g>
<!-- 3&#45;&#45;19 -->
<g id="edge11" class="edge">
<title>3&#45;&#45;19</title>
<path fill="none" stroke="black" d="M257.57,-866.83C269.98,-854.77 287.73,-837.51 300.2,-825.38"/>
</g>
<!-- 6 -->
<g id="node10" class="node">
<title>6</title>
<ellipse fill="none" stroke="black" cx="99" cy="-738" rx="27" ry="18"/>
<text text-anchor="middle" x="99" y="-733.8" font-family="Times,serif" font-size="14.00">T</text>
</g>
<!-- 5&#45;&#45;6 -->
<g id="edge12" class="edge">
<title>5&#45;&#45;6</title>
<path fill="none" stroke="black" d="M221.75,-798.67C194.53,-785.44 147.6,-762.63 120.33,-749.37"/>
</g>
<!-- 11 -->
<g id="node11" class="node">
<title>11</title>
<ellipse fill="none" stroke="black" cx="243" cy="-738" rx="27" ry="18"/>
<text text-anchor="middle" x="243" y="-733.8" font-family="Times,serif" font-size="14.00">E&#39;</text>
</g>
<!-- 5&#45;&#45;11 -->
<g id="edge13" class="edge">
<title>5&#45;&#45;11</title>
<path fill="none" stroke="black" d="M243,-791.7C243,-780.85 243,-766.92 243,-756.1"/>
</g>
<!-- 7 -->
<g id="node12" class="node">
<title>7</title>
<ellipse fill="none" stroke="black" cx="27" cy="-666" rx="27" ry="18"/>
<text text-anchor="middle" x="27" y="-661.8" font-family="Times,serif" font-size="14.00">S</text>
</g>
<!-- 6&#45;&#45;7 -->
<g id="edge14" class="edge">
<title>6&#45;&#45;7</title>
<path fill="none" stroke="black" d="M84.43,-722.83C72.02,-710.77 54.27,-693.51 41.8,-681.38"/>
</g>
<!-- 10 -->
<g id="node13" class="node">
<title>10</title>
<ellipse fill="none" stroke="black" cx="99" cy="-666" rx="27" ry="18"/>
<text text-anchor="middle" x="99" y="-661.8" font-family="Times,serif" font-size="14.00">T&#39;</text>
</g>
<!-- 6&#45;&#45;10 -->
<g id="edge15" class="edge">
<title>6&#45;&#45;10</title>
<path fill="none" stroke="black" d="M99,-719.7C99,-708.85 99,-694.92 99,-684.1"/>
</g>
<!-- 12 -->
<g id="node16" class="node">
<title>12</title>
<ellipse fill="none" stroke="black" cx="171" cy="-666" rx="27" ry="18"/>
<text text-anchor="middle" x="171" y="-661.8" font-family="Times,serif" font-size="14.00">+</text>
</g>
<!-- 11&#45;&#45;12 -->
<g id="edge16" class="edge">
<title>11&#45;&#45;12</title>
<path fill="none" stroke="black" d="M228.43,-722.83C216.02,-710.77 198.27,-693.51 185.8,-681.38"/>
</g>
<!-- 13 -->
<g id="node17" class="node">
<title>13</title>
<ellipse fill="none" stroke="black" cx="243" cy="-666" rx="27" ry="18"/>
<text text-anchor="middle" x="243" y="-661.8" font-family="Times,serif" font-size="14.00">T</text>
</g>
<!-- 11&#45;&#45;13 -->
<g id="edge17" class="edge">
<title>11&#45;&#45;13</title>
<path fill="none" stroke="black" d="M243,-719.7C243,-708.85 243,-694.92 243,-684.1"/>
</g>
<!-- 18 -->
<g id="node18" class="node">
<title>18</title>
<ellipse fill="none" stroke="black" cx="315" cy="-666" rx="27" ry="18"/>
<text text-anchor="middle" x="315" y="-661.8" font-family="Times,serif" font-size="14.00">E&#39;</text>
</g>
<!-- 11&#45;&#45;18 -->
<g id="edge18" class="edge">
<title>11&#45;&#45;18</title>
<path fill="none" stroke="black" d="M257.57,-722.83C269.98,-710.77 287.73,-693.51 300.2,-681.38"/>
</g>
<!-- 8 -->
<g id="node14" class="node">
<title>8</title>
<ellipse fill="none" stroke="black" cx="27" cy="-594" rx="27" ry="18"/>
<text text-anchor="middle" x="27" y="-589.8" font-family="Times,serif" font-size="14.00">F</text>
</g>
<!-- 7&#45;&#45;8 -->
<g id="edge19" class="edge">
<title>7&#45;&#45;8</title>
<path fill="none" stroke="black" d="M27,-647.7C27,-636.85 27,-622.92 27,-612.1"/>
</g>
<!-- 9 -->
<g id="node15" class="node">
<title>9</title>
<ellipse fill="none" stroke="black" cx="27" cy="-522" rx="27" ry="18"/>
<text text-anchor="middle" x="27" y="-517.8" font-family="Times,serif" font-size="14.00">n</text>
</g>
<!-- 8&#45;&#45;9 -->
<g id="edge20" class="edge">
<title>8&#45;&#45;9</title>
<path fill="none" stroke="black" d="M27,-575.7C27,-564.85 27,-550.92 27,-540.1"/>
</g>
<!-- 14 -->
<g id="node19" class="node">
<title>14</title>
<ellipse fill="none" stroke="black" cx="171" cy="-594" rx="27" ry="18"/>
<text text-anchor="middle" x="171" y="-589.8" font-family="Times,serif" font-size="14.00">S</text>
</g>
<!-- 13&#45;&#45;14 -->
<g id="edge21" class="edge">
<title>13&#45;&#45;14</title>
<path fill="none" stroke="black" d="M228.43,-650.83C216.02,-638.77 198.27,-621.51 185.8,-609.38"/>
</g>
<!-- 17 -->
<g id="node20" class="node">
<title>17</title>
<ellipse fill="none" stroke="black" cx="243" cy="-594" rx="27" ry="18"/>
<text text-anchor="middle" x="243" y="-589.8" font-family="Times,serif" font-size="14.00">T&#39;</text>
</g>
<!-- 13&#45;&#45;17 -->
<g id="edge22" class="edge">
<title>13&#45;&#45;17</title>
<path fill="none" stroke="black" d="M243,-647.7C243,-636.85 243,-622.92 243,-612.1"/>
</g>
<!-- 15 -->
<g id="node21" class="node">
<title>15</title>
<ellipse fill="none" stroke="black" cx="171" cy="-522" rx="27" ry="18"/>
<text text-anchor="middle" x="171" y="-517.8" font-family="Times,serif" font-size="14.00">F</text>
</g>
<!-- 14&#45;&#45;15 -->
<g id="edge23" class="edge">
<title>14&#45;&#45;15</title>
<path fill="none" stroke="black" d="M171,-575.7C171,-564.85 171,-550.92 171,-540.1"/>
</g>
<!-- 16 -->
<g id="node22" class="node">
<title>16</title>
<ellipse fill="none" stroke="black" cx="171" cy="-450" rx="27" ry="18"/>
<text text-anchor="middle" x="171" y="-445.8" font-family="Times,serif" font-size="14.00">n</text>
</g>
<!-- 15&#45;&#45;16 -->
<g id="edge24" class="edge">
<title>15&#45;&#45;16</title>
<path fill="none" stroke="black" d="M171,-503.7C171,-492.85 171,-478.92 171,-468.1"/>
</g>
<!-- 23 -->
<g id="node26" class="node">
<title>23</title>
<ellipse fill="none" stroke="black" cx="387" cy="-810" rx="27" ry="18"/>
<text text-anchor="middle" x="387" y="-805.8" font-family="Times,serif" font-size="14.00">F</text>
</g>
<!-- 22&#45;&#45;23 -->
<g id="edge25" class="edge">
<title>22&#45;&#45;23</title>
<path fill="none" stroke="black" d="M387,-863.7C387,-852.85 387,-838.92 387,-828.1"/>
</g>
<!-- 24 -->
<g id="node27" class="node">
<title>24</title>
<ellipse fill="none" stroke="black" cx="315" cy="-738" rx="27" ry="18"/>
<text text-anchor="middle" x="315" y="-733.8" font-family="Times,serif" font-size="14.00">f</text>
</g>
<!-- 23&#45;&#45;24 -->
<g id="edge26" class="edge">
<title>23&#45;&#45;24</title>
<path fill="none" stroke="black" d="M372.43,-794.83C360.02,-782.77 342.27,-765.51 329.8,-753.38"/>
</g>
<!-- 25 -->
<g id="node28" class="node">
<title>25</title>
<ellipse fill="none" stroke="black" cx="387" cy="-738" rx="27" ry="18"/>
<text text-anchor="middle" x="387" y="-733.8" font-family="Times,serif" font-size="14.00">(</text>
</g>
<!-- 23&#45;&#45;25 -->
<g id="edge27" class="edge">
<title>23&#45;&#45;25</title>
<path fill="none" stroke="black" d="M387,-791.7C387,-780.85 387,-766.92 387,-756.1"/>
</g>
<!-- 26 -->
<g id="node29" class="node">
<title>26</title>
<ellipse fill="none" stroke="black" cx="459" cy="-738" rx="27" ry="18"/>
<text text-anchor="middle" x="459" y="-733.8" font-family="Times,serif" font-size="14.00">E</text>
</g>
<!-- 23&#45;&#45;26 -->
<g id="edge28" class="edge">
<title>23&#45;&#45;26</title>
<path fill="none" stroke="black" d="M401.57,-794.83C413.98,-782.77 431.73,-765.51 444.2,-753.38"/>
</g>
<!-- 61 -->
<g id="node30" class="node">
<title>61</title>
<ellipse fill="none" stroke="black" cx="531" cy="-738" rx="27" ry="18"/>
<text text-anchor="middle" x="531" y="-733.8" font-family="Times,serif" font-size="14.00">)</text>
</g>
<!-- 23&#45;&#45;61 -->
<g id="edge29" class="edge">
<title>23&#45;&#45;61</title>
<path fill="none" stroke="black" d="M408.25,-798.67C435.47,-785.44 482.4,-762.63 509.67,-749.37"/>
</g>
<!-- 27 -->
<g id="node31" class="node">
<title>27</title>
<ellipse fill="none" stroke="black" cx="459" cy="-666" rx="27" ry="18"/>
<text text-anchor="middle" x="459" y="-661.8" font-family="Times,serif" font-size="14.00">T</text>
</g>
<!-- 26&#45;&#45;27 -->
<g id="edge30" class="edge">
<title>26&#45;&#45;27</title>
<path fill="none" stroke="black" d="M459,-719.7C459,-708.85 459,-694.92 459,-684.1"/>
</g>
<!-- 53 -->
<g id="node32" class="node">
<title>53</title>
<ellipse fill="none" stroke="black" cx="567" cy="-666" rx="27" ry="18"/>
<text text-anchor="middle" x="567" y="-661.8" font-family="Times,serif" font-size="14.00">E&#39;</text>
</g>
<!-- 26&#45;&#45;53 -->
<g id="edge31" class="edge">
<title>26&#45;&#45;53</title>
<path fill="none" stroke="black" d="M477.81,-724.81C497.63,-711.96 528.66,-691.85 548.4,-679.05"/>
</g>
<!-- 28 -->
<g id="node33" class="node">
<title>28</title>
<ellipse fill="none" stroke="black" cx="315" cy="-594" rx="27" ry="18"/>
<text text-anchor="middle" x="315" y="-589.8" font-family="Times,serif" font-size="14.00">S</text>
</g>
<!-- 27&#45;&#45;28 -->
<g id="edge32" class="edge">
<title>27&#45;&#45;28</title>
<path fill="none" stroke="black" d="M437.75,-654.67C410.53,-641.44 363.6,-618.63 336.33,-605.37"/>
</g>
<!-- 32 -->
<g id="node34" class="node">
<title>32</title>
<ellipse fill="none" stroke="black" cx="459" cy="-594" rx="27" ry="18"/>
<text text-anchor="middle" x="459" y="-589.8" font-family="Times,serif" font-size="14.00">T&#39;</text>
</g>
<!-- 27&#45;&#45;32 -->
<g id="edge33" class="edge">
<title>27&#45;&#45;32</title>
<path fill="none" stroke="black" d="M459,-647.7C459,-636.85 459,-622.92 459,-612.1"/>
</g>
<!-- 54 -->
<g id="node58" class="node">
<title>54</title>
<ellipse fill="none" stroke="black" cx="531" cy="-594" rx="27" ry="18"/>
<text text-anchor="middle" x="531" y="-589.8" font-family="Times,serif" font-size="14.00">+</text>
</g>
<!-- 53&#45;&#45;54 -->
<g id="edge34" class="edge">
<title>53&#45;&#45;54</title>
<path fill="none" stroke="black" d="M558.65,-648.76C552.83,-637.46 545.11,-622.44 539.3,-611.15"/>
</g>
<!-- 55 -->
<g id="node59" class="node">
<title>55</title>
<ellipse fill="none" stroke="black" cx="603" cy="-594" rx="27" ry="18"/>
<text text-anchor="middle" x="603" y="-589.8" font-family="Times,serif" font-size="14.00">T</text>
</g>
<!-- 53&#45;&#45;55 -->
<g id="edge35" class="edge">
<title>53&#45;&#45;55</title>
<path fill="none" stroke="black" d="M575.35,-648.76C581.17,-637.46 588.89,-622.44 594.7,-611.15"/>
</g>
<!-- 60 -->
<g id="node60" class="node">
<title>60</title>
<ellipse fill="none" stroke="black" cx="675" cy="-594" rx="27" ry="18"/>
<text text-anchor="middle" x="675" y="-589.8" font-family="Times,serif" font-size="14.00">E&#39;</text>
</g>
<!-- 53&#45;&#45;60 -->
<g id="edge36" class="edge">
<title>53&#45;&#45;60</title>
<path fill="none" stroke="black" d="M585.81,-652.81C605.63,-639.96 636.66,-619.85 656.4,-607.05"/>
</g>
<!-- 29 -->
<g id="node35" class="node">
<title>29</title>
<ellipse fill="none" stroke="black" cx="243" cy="-522" rx="27" ry="18"/>
<text text-anchor="middle" x="243" y="-517.8" font-family="Times,serif" font-size="14.00">&#45;</text>
</g>
<!-- 28&#45;&#45;29 -->
<g id="edge37" class="edge">
<title>28&#45;&#45;29</title>
<path fill="none" stroke="black" d="M300.43,-578.83C288.02,-566.77 270.27,-549.51 257.8,-537.38"/>
</g>
<!-- 30 -->
<g id="node36" class="node">
<title>30</title>
<ellipse fill="none" stroke="black" cx="315" cy="-522" rx="27" ry="18"/>
<text text-anchor="middle" x="315" y="-517.8" font-family="Times,serif" font-size="14.00">F</text>
</g>
<!-- 28&#45;&#45;30 -->
<g id="edge38" class="edge">
<title>28&#45;&#45;30</title>
<path fill="none" stroke="black" d="M315,-575.7C315,-564.85 315,-550.92 315,-540.1"/>
</g>
<!-- 33 -->
<g id="node38" class="node">
<title>33</title>
<ellipse fill="none" stroke="black" cx="387" cy="-522" rx="27" ry="18"/>
<text text-anchor="middle" x="387" y="-517.8" font-family="Times,serif" font-size="14.00">*</text>
</g>
<!-- 32&#45;&#45;33 -->
<g id="edge39" class="edge">
<title>32&#45;&#45;33</title>
<path fill="none" stroke="black" d="M444.43,-578.83C432.02,-566.77 414.27,-549.51 401.8,-537.38"/>
</g>
<!-- 34 -->
<g id="node39" class="node">
<title>34</title>
<ellipse fill="none" stroke="black" cx="459" cy="-522" rx="27" ry="18"/>
<text text-anchor="middle" x="459" y="-517.8" font-family="Times,serif" font-size="14.00">S</text>
</g>
<!-- 32&#45;&#45;34 -->
<g id="edge40" class="edge">
<title>32&#45;&#45;34</title>
<path fill="none" stroke="black" d="M459,-575.7C459,-564.85 459,-550.92 459,-540.1"/>
</g>
<!-- 52 -->
<g id="node40" class="node">
<title>52</title>
<ellipse fill="none" stroke="black" cx="531" cy="-522" rx="27" ry="18"/>
<text text-anchor="middle" x="531" y="-517.8" font-family="Times,serif" font-size="14.00">T&#39;</text>
</g>
<!-- 32&#45;&#45;52 -->
<g id="edge41" class="edge">
<title>32&#45;&#45;52</title>
<path fill="none" stroke="black" d="M473.57,-578.83C485.98,-566.77 503.73,-549.51 516.2,-537.38"/>
</g>
<!-- 31 -->
<g id="node37" class="node">
<title>31</title>
<ellipse fill="none" stroke="black" cx="315" cy="-450" rx="27" ry="18"/>
<text text-anchor="middle" x="315" y="-445.8" font-family="Times,serif" font-size="14.00">n</text>
</g>
<!-- 30&#45;&#45;31 -->
<g id="edge42" class="edge">
<title>30&#45;&#45;31</title>
<path fill="none" stroke="black" d="M315,-503.7C315,-492.85 315,-478.92 315,-468.1"/>
</g>
<!-- 35 -->
<g id="node41" class="node">
<title>35</title>
<ellipse fill="none" stroke="black" cx="459" cy="-450" rx="27" ry="18"/>
<text text-anchor="middle" x="459" y="-445.8" font-family="Times,serif" font-size="14.00">F</text>
</g>
<!-- 34&#45;&#45;35 -->
<g id="edge43" class="edge">
<title>34&#45;&#45;35</title>
<path fill="none" stroke="black" d="M459,-503.7C459,-492.85 459,-478.92 459,-468.1"/>
</g>
<!-- 36 -->
<g id="node42" class="node">
<title>36</title>
<ellipse fill="none" stroke="black" cx="387" cy="-378" rx="27" ry="18"/>
<text text-anchor="middle" x="387" y="-373.8" font-family="Times,serif" font-size="14.00">(</text>
</g>
<!-- 35&#45;&#45;36 -->
<g id="edge44" class="edge">
<title>35&#45;&#45;36</title>
<path fill="none" stroke="black" d="M444.43,-434.83C432.02,-422.77 414.27,-405.51 401.8,-393.38"/>
</g>
<!-- 37 -->
<g id="node43" class="node">
<title>37</title>
<ellipse fill="none" stroke="black" cx="459" cy="-378" rx="27" ry="18"/>
<text text-anchor="middle" x="459" y="-373.8" font-family="Times,serif" font-size="14.00">E</text>
</g>
<!-- 35&#45;&#45;37 -->
<g id="edge45" class="edge">
<title>35&#45;&#45;37</title>
<path fill="none" stroke="black" d="M459,-431.7C459,-420.85 459,-406.92 459,-396.1"/>
</g>
<!-- 51 -->
<g id="node44" class="node">
<title>51</title>
<ellipse fill="none" stroke="black" cx="531" cy="-378" rx="27" ry="18"/>
<text text-anchor="middle" x="531" y="-373.8" font-family="Times,serif" font-size="14.00">)</text>
</g>
<!-- 35&#45;&#45;51 -->
<g id="edge46" class="edge">
<title>35&#45;&#45;51</title>
<path fill="none" stroke="black" d="M473.57,-434.83C485.98,-422.77 503.73,-405.51 516.2,-393.38"/>
</g>
<!-- 38 -->
<g id="node45" class="node">
<title>38</title>
<ellipse fill="none" stroke="black" cx="387" cy="-306" rx="27" ry="18"/>
<text text-anchor="middle" x="387" y="-301.8" font-family="Times,serif" font-size="14.00">T</text>
</g>
<!-- 37&#45;&#45;38 -->
<g id="edge47" class="edge">
<title>37&#45;&#45;38</title>
<path fill="none" stroke="black" d="M444.43,-362.83C432.02,-350.77 414.27,-333.51 401.8,-321.38"/>
</g>
<!-- 43 -->
<g id="node46" class="node">
<title>43</title>
<ellipse fill="none" stroke="black" cx="495" cy="-306" rx="27" ry="18"/>
<text text-anchor="middle" x="495" y="-301.8" font-family="Times,serif" font-size="14.00">E&#39;</text>
</g>
<!-- 37&#45;&#45;43 -->
<g id="edge48" class="edge">
<title>37&#45;&#45;43</title>
<path fill="none" stroke="black" d="M467.35,-360.76C473.17,-349.46 480.89,-334.44 486.7,-323.15"/>
</g>
<!-- 39 -->
<g id="node47" class="node">
<title>39</title>
<ellipse fill="none" stroke="black" cx="315" cy="-234" rx="27" ry="18"/>
<text text-anchor="middle" x="315" y="-229.8" font-family="Times,serif" font-size="14.00">S</text>
</g>
<!-- 38&#45;&#45;39 -->
<g id="edge49" class="edge">
<title>38&#45;&#45;39</title>
<path fill="none" stroke="black" d="M372.43,-290.83C360.02,-278.77 342.27,-261.51 329.8,-249.38"/>
</g>
<!-- 42 -->
<g id="node48" class="node">
<title>42</title>
<ellipse fill="none" stroke="black" cx="387" cy="-234" rx="27" ry="18"/>
<text text-anchor="middle" x="387" y="-229.8" font-family="Times,serif" font-size="14.00">T&#39;</text>
</g>
<!-- 38&#45;&#45;42 -->
<g id="edge50" class="edge">
<title>38&#45;&#45;42</title>
<path fill="none" stroke="black" d="M387,-287.7C387,-276.85 387,-262.92 387,-252.1"/>
</g>
<!-- 44 -->
<g id="node51" class="node">
<title>44</title>
<ellipse fill="none" stroke="black" cx="459" cy="-234" rx="27" ry="18"/>
<text text-anchor="middle" x="459" y="-229.8" font-family="Times,serif" font-size="14.00">&#45;</text>
</g>
<!-- 43&#45;&#45;44 -->
<g id="edge51" class="edge">
<title>43&#45;&#45;44</title>
<path fill="none" stroke="black" d="M486.65,-288.76C480.83,-277.46 473.11,-262.44 467.3,-251.15"/>
</g>
<!-- 45 -->
<g id="node52" class="node">
<title>45</title>
<ellipse fill="none" stroke="black" cx="531" cy="-234" rx="27" ry="18"/>
<text text-anchor="middle" x="531" y="-229.8" font-family="Times,serif" font-size="14.00">T</text>
</g>
<!-- 43&#45;&#45;45 -->
<g id="edge52" class="edge">
<title>43&#45;&#45;45</title>
<path fill="none" stroke="black" d="M503.35,-288.76C509.17,-277.46 516.89,-262.44 522.7,-251.15"/>
</g>
<!-- 50 -->
<g id="node53" class="node">
<title>50</title>
<ellipse fill="none" stroke="black" cx="603" cy="-234" rx="27" ry="18"/>
<text text-anchor="middle" x="603" y="-229.8" font-family="Times,serif" font-size="14.00">E&#39;</text>
</g>
<!-- 43&#45;&#45;50 -->
<g id="edge53" class="edge">
<title>43&#45;&#45;50</title>
<path fill="none" stroke="black" d="M513.81,-292.81C533.63,-279.96 564.66,-259.85 584.4,-247.05"/>
</g>
<!-- 40 -->
<g id="node49" class="node">
<title>40</title>
<ellipse fill="none" stroke="black" cx="315" cy="-162" rx="27" ry="18"/>
<text text-anchor="middle" x="315" y="-157.8" font-family="Times,serif" font-size="14.00">F</text>
</g>
<!-- 39&#45;&#45;40 -->
<g id="edge54" class="edge">
<title>39&#45;&#45;40</title>
<path fill="none" stroke="black" d="M315,-215.7C315,-204.85 315,-190.92 315,-180.1"/>
</g>
<!-- 41 -->
<g id="node50" class="node">
<title>41</title>
<ellipse fill="none" stroke="black" cx="315" cy="-90" rx="27" ry="18"/>
<text text-anchor="middle" x="315" y="-85.8" font-family="Times,serif" font-size="14.00">n</text>
</g>
<!-- 40&#45;&#45;41 -->
<g id="edge55" class="edge">
<title>40&#45;&#45;41</title>
<path fill="none" stroke="black" d="M315,-143.7C315,-132.85 315,-118.92 315,-108.1"/>
</g>
<!-- 46 -->
<g id="node54" class="node">
<title>46</title>
<ellipse fill="none" stroke="black" cx="495" cy="-162" rx="27" ry="18"/>
<text text-anchor="middle" x="495" y="-157.8" font-family="Times,serif" font-size="14.00">S</text>
</g>
<!-- 45&#45;&#45;46 -->
<g id="edge56" class="edge">
<title>45&#45;&#45;46</title>
<path fill="none" stroke="black" d="M522.65,-216.76C516.83,-205.46 509.11,-190.44 503.3,-179.15"/>
</g>
<!-- 49 -->
<g id="node55" class="node">
<title>49</title>
<ellipse fill="none" stroke="black" cx="567" cy="-162" rx="27" ry="18"/>
<text text-anchor="middle" x="567" y="-157.8" font-family="Times,serif" font-size="14.00">T&#39;</text>
</g>
<!-- 45&#45;&#45;49 -->
<g id="edge57" class="edge">
<title>45&#45;&#45;49</title>
<path fill="none" stroke="black" d="M539.35,-216.76C545.17,-205.46 552.89,-190.44 558.7,-179.15"/>
</g>
<!-- 47 -->
<g id="node56" class="node">
<title>47</title>
<ellipse fill="none" stroke="black" cx="495" cy="-90" rx="27" ry="18"/>
<text text-anchor="middle" x="495" y="-85.8" font-family="Times,serif" font-size="14.00">F</text>
</g>
<!-- 46&#45;&#45;47 -->
<g id="edge58" class="edge">
<title>46&#45;&#45;47</title>
<path fill="none" stroke="black" d="M495,-143.7C495,-132.85 495,-118.92 495,-108.1"/>
</g>
<!-- 48 -->
<g id="node57" class="node">
<title>48</title>
<ellipse fill="none" stroke="black" cx="495" cy="-18" rx="27" ry="18"/>
<text text-anchor="middle" x="495" y="-13.8" font-family="Times,serif" font-size="14.00">n</text>
</g>
<!-- 47&#45;&#45;48 -->
<g id="edge59" class="edge">
<title>47&#45;&#45;48</title>
<path fill="none" stroke="black" d="M495,-71.7C495,-60.85 495,-46.92 495,-36.1"/>
</g>
<!-- 56 -->
<g id="node61" class="node">
<title>56</title>
<ellipse fill="none" stroke="black" cx="603" cy="-522" rx="27" ry="18"/>
<text text-anchor="middle" x="603" y="-517.8" font-family="Times,serif" font-size="14.00">S</text>
</g>
<!-- 55&#45;&#45;56 -->
<g id="edge60" class="edge">
<title>55&#45;&#45;56</title>
<path fill="none" stroke="black" d="M603,-575.7C603,-564.85 603,-550.92 603,-540.1"/>
</g>
<!-- 59 -->
<g id="node62" class="node">
<title>59</title>
<ellipse fill="none" stroke="black" cx="675" cy="-522" rx="27" ry="18"/>
<text text-anchor="middle" x="675" y="-517.8" font-family="Times,serif" font-size="14.00">T&#39;</text>
</g>
<!-- 55&#45;&#45;59 -->
<g id="edge61" class="edge">
<title>55&#45;&#45;59</title>
<path fill="none" stroke="black" d="M617.57,-578.83C629.98,-566.77 647.73,-549.51 660.2,-537.38"/>
</g>
<!-- 57 -->
<g id="node63" class="node">
<title>57</title>
<ellipse fill="none" stroke="black" cx="603" cy="-450" rx="27" ry="18"/>
<text text-anchor="middle" x="603" y="-445.8" font-family="Times,serif" font-size="14.00">F</text>
</g>
<!-- 56&#45;&#45;57 -->
<g id="edge62" class="edge">
<title>56&#45;&#45;57</title>
<path fill="none" stroke="black" d="M603,-503.7C603,-492.85 603,-478.92 603,-468.1"/>
</g>
<!-- 58 -->
<g id="node64" class="node">
<title>58</title>
<ellipse fill="none" stroke="black" cx="603" cy="-378" rx="27" ry="18"/>
<text text-anchor="middle" x="603" y="-373.8" font-family="Times,serif" font-size="14.00">n</text>
</g>
<!-- 57&#45;&#45;58 -->
<g id="edge63" class="edge">
<title>57&#45;&#45;58</title>
<path fill="none" stroke="black" d="M603,-431.7C603,-420.85 603,-406.92 603,-396.1"/>
</g>
</g>
</svg>
