<svg width="458px" height="620px"
 viewBox="0.00 0.00 458.00 620.00" xmlns="http://www.w3.org/2000/svg" xmlns:xlink="http://www.w3.org/1999/xlink">
<g id="graph0" class="graph" transform="scale(1.0 1.0) rotate(0.0) translate(4.0 616.0)">
<polygon fill="white" stroke="transparent" points="-4,4 -4,-616 454,-616 454,4 -4,4"/>
<!-- 0 -->
<g id="node1" class="node">
<title>0</title>
<ellipse fill="none" stroke="black" cx="171" cy="-594" rx="27" ry="18"/>
<text text-anchor="middle" x="171" y="-589.8" font-family="Times,serif" font-size="14.00">E</text>
</g>
<!-- 1 -->
<g id="node2" class="node">
<title>1</title>
<ellipse fill="none" stroke="black" cx="135" cy="-522" rx="27" ry="18"/>
<text text-anchor="middle" x="135" y="-517.8" font-family="Times,serif" font-size="14.00">T</text>
</g>
<!-- 0&#45;&#45;1 -->
<g id="edge1" class="edge">
<title>0&#45;&#45;1</title>
<path fill="none" stroke="black" d="M162.65,-576.76C156.83,-565.46 149.11,-550.44 143.3,-539.15"/>
</g>
<!-- 30 -->
<g id="node3" class="node">
<title>30</title>
<ellipse fill="none" stroke="black" cx="207" cy="-522" rx="27" ry="18"/>
<text text-anchor="middle" x="207" y="-517.8" font-family="Times,serif" font-size="14.00">E1</text>
</g>
<!-- 0&#45;&#45;30 -->
<g id="edge2" class="edge">
<title>0&#45;&#45;30</title>
<path fill="none" stroke="black" d="M179.35,-576.76C185.17,-565.46 192.89,-550.44 198.7,-539.15"/>
</g>
<!-- 2 -->
<g id="node4" class="node">
<title>2</title>
<ellipse fill="none" stroke="black" cx="27" cy="-450" rx="27" ry="18"/>
<text text-anchor="middle" x="27" y="-445.8" font-family="Times,serif" font-size="14.00">F</text>
</g>
<!-- 1&#45;&#45;2 -->
<g id="edge3" class="edge">
<title>1&#45;&#45;2</title>
<path fill="none" stroke="black" d="M116.19,-508.81C96.37,-495.96 65.34,-475.85 45.6,-463.05"/>
</g>
<!-- 4 -->
<g id="node5" class="node">
<title>4</title>
<ellipse fill="none" stroke="black" cx="135" cy="-450" rx="27" ry="18"/>
<text text-anchor="middle" x="135" y="-445.8" font-family="Times,serif" font-size="14.00">T1</text>
</g>
<!-- 1&#45;&#45;4 -->
<g id="edge4" class="edge">
<title>1&#45;&#45;4</title>
<path fill="none" stroke="black" d="M135,-503.7C135,-492.85 135,-478.92 135,-468.1"/>
</g>
<!-- 31 -->
<g id="node32" class="node">
<title>31</title>
<ellipse fill="none" stroke="black" cx="207" cy="-450" rx="27" ry="18"/>
<text text-anchor="middle" x="207" y="-445.8" font-family="Times,serif" font-size="14.00">eps</text>
</g>
<!-- 30&#45;&#45;31 -->
<g id="edge5" class="edge">
<title>30&#45;&#45;31</title>
<path fill="none" stroke="black" d="M207,-503.7C207,-492.85 207,-478.92 207,-468.1"/>
</g>
<!-- 3 -->
<g id="node6" class="node">
<title>3</title>
<ellipse fill="none" stroke="black" cx="27" cy="-378" rx="27" ry="18"/>
<text text-anchor="middle" x="27" y="-373.8" font-family="Times,serif" font-size="14.00">16</text>
</g>
<!-- 2&#45;&#45;3 -->
<g id="edge6" class="edge">
<title>2&#45;&#45;3</title>
<path fill="none" stroke="black" d="M27,-431.7C27,-420.85 27,-406.92 27,-396.1"/>
</g>
<!-- 5 -->
<g id="node7" class="node">
<title>5</title>
<ellipse fill="none" stroke="black" cx="99" cy="-378" rx="27" ry="18"/>
<text text-anchor="middle" x="99" y="-373.8" font-family="Times,serif" font-size="14.00">/</text>
</g>
<!-- 4&#45;&#45;5 -->
<g id="edge7" class="edge">
<title>4&#45;&#45;5</title>
<path fill="none" stroke="black" d="M126.65,-432.76C120.83,-421.46 113.11,-406.44 107.3,-395.15"/>
</g>
<!-- 6 -->
<g id="node8" class="node">
<title>6</title>
<ellipse fill="none" stroke="black" cx="171" cy="-378" rx="27" ry="18"/>
<text text-anchor="middle" x="171" y="-373.8" font-family="Times,serif" font-size="14.00">F</text>
</g>
<!-- 4&#45;&#45;6 -->
<g id="edge8" class="edge">
<title>4&#45;&#45;6</title>
<path fill="none" stroke="black" d="M143.35,-432.76C149.17,-421.46 156.89,-406.44 162.7,-395.15"/>
</g>
<!-- 24 -->
<g id="node9" class="node">
<title>24</title>
<ellipse fill="none" stroke="black" cx="315" cy="-378" rx="27" ry="18"/>
<text text-anchor="middle" x="315" y="-373.8" font-family="Times,serif" font-size="14.00">T1</text>
</g>
<!-- 4&#45;&#45;24 -->
<g id="edge9" class="edge">
<title>4&#45;&#45;24</title>
<path fill="none" stroke="black" d="M156.18,-438.62C161.01,-436.35 166.16,-434.03 171,-432 212.77,-414.49 262.56,-396.87 291.31,-387"/>
</g>
<!-- 7 -->
<g id="node10" class="node">
<title>7</title>
<ellipse fill="none" stroke="black" cx="63" cy="-306" rx="27" ry="18"/>
<text text-anchor="middle" x="63" y="-301.8" font-family="Times,serif" font-size="14.00">(</text>
</g>
<!-- 6&#45;&#45;7 -->
<g id="edge10" class="edge">
<title>6&#45;&#45;7</title>
<path fill="none" stroke="black" d="M152.19,-364.81C132.37,-351.96 101.34,-331.85 81.6,-319.05"/>
</g>
<!-- 8 -->
<g id="node11" class="node">
<title>8</title>
<ellipse fill="none" stroke="black" cx="135" cy="-306" rx="27" ry="18"/>
<text text-anchor="middle" x="135" y="-301.8" font-family="Times,serif" font-size="14.00">E</text>
</g>
<!-- 6&#45;&#45;8 -->
<g id="edge11" class="edge">
<title>6&#45;&#45;8</title>
<path fill="none" stroke="black" d="M162.65,-360.76C156.83,-349.46 149.11,-334.44 143.3,-323.15"/>
</g>
<!-- 23 -->
<g id="node12" class="node">
<title>23</title>
<ellipse fill="none" stroke="black" cx="207" cy="-306" rx="27" ry="18"/>
<text text-anchor="middle" x="207" y="-301.8" font-family="Times,serif" font-size="14.00">)</text>
</g>
<!-- 6&#45;&#45;23 -->
<g id="edge12" class="edge">
<title>6&#45;&#45;23</title>
<path fill="none" stroke="black" d="M179.35,-360.76C185.17,-349.46 192.89,-334.44 198.7,-323.15"/>
</g>
<!-- 25 -->
<g id="node27" class="node">
<title>25</title>
<ellipse fill="none" stroke="black" cx="279" cy="-306" rx="27" ry="18"/>
<text text-anchor="middle" x="279" y="-301.8" font-family="Times,serif" font-size="14.00">/</text>
</g>
<!-- 24&#45;&#45;25 -->
<g id="edge13" class="edge">
<title>24&#45;&#45;25</title>
<path fill="none" stroke="black" d="M306.65,-360.76C300.83,-349.46 293.11,-334.44 287.3,-323.15"/>
</g>
<!-- 26 -->
<g id="node28" class="node">
<title>26</title>
<ellipse fill="none" stroke="black" cx="351" cy="-306" rx="27" ry="18"/>
<text text-anchor="middle" x="351" y="-301.8" font-family="Times,serif" font-size="14.00">F</text>
</g>
<!-- 24&#45;&#45;26 -->
<g id="edge14" class="edge">
<title>24&#45;&#45;26</title>
<path fill="none" stroke="black" d="M323.35,-360.76C329.17,-349.46 336.89,-334.44 342.7,-323.15"/>
</g>
<!-- 28 -->
<g id="node29" class="node">
<title>28</title>
<ellipse fill="none" stroke="black" cx="423" cy="-306" rx="27" ry="18"/>
<text text-anchor="middle" x="423" y="-301.8" font-family="Times,serif" font-size="14.00">T1</text>
</g>
<!-- 24&#45;&#45;28 -->
<g id="edge15" class="edge">
<title>24&#45;&#45;28</title>
<path fill="none" stroke="black" d="M333.81,-364.81C353.63,-351.96 384.66,-331.85 404.4,-319.05"/>
</g>
<!-- 9 -->
<g id="node13" class="node">
<title>9</title>
<ellipse fill="none" stroke="black" cx="135" cy="-234" rx="27" ry="18"/>
<text text-anchor="middle" x="135" y="-229.8" font-family="Times,serif" font-size="14.00">T</text>
</g>
<!-- 8&#45;&#45;9 -->
<g id="edge16" class="edge">
<title>8&#45;&#45;9</title>
<path fill="none" stroke="black" d="M135,-287.7C135,-276.85 135,-262.92 135,-252.1"/>
</g>
<!-- 14 -->
<g id="node14" class="node">
<title>14</title>
<ellipse fill="none" stroke="black" cx="243" cy="-234" rx="27" ry="18"/>
<text text-anchor="middle" x="243" y="-229.8" font-family="Times,serif" font-size="14.00">E1</text>
</g>
<!-- 8&#45;&#45;14 -->
<g id="edge17" class="edge">
<title>8&#45;&#45;14</title>
<path fill="none" stroke="black" d="M153.81,-292.81C173.63,-279.96 204.66,-259.85 224.4,-247.05"/>
</g>
<!-- 10 -->
<g id="node15" class="node">
<title>10</title>
<ellipse fill="none" stroke="black" cx="63" cy="-162" rx="27" ry="18"/>
<text text-anchor="middle" x="63" y="-157.8" font-family="Times,serif" font-size="14.00">F</text>
</g>
<!-- 9&#45;&#45;10 -->
<g id="edge18" class="edge">
<title>9&#45;&#45;10</title>
<path fill="none" stroke="black" d="M120.43,-218.83C108.02,-206.77 90.27,-189.51 77.8,-177.38"/>
</g>
<!-- 12 -->
<g id="node16" class="node">
<title>12</title>
<ellipse fill="none" stroke="black" cx="135" cy="-162" rx="27" ry="18"/>
<text text-anchor="middle" x="135" y="-157.8" font-family="Times,serif" font-size="14.00">T1</text>
</g>
<!-- 9&#45;&#45;12 -->
<g id="edge19" class="edge">
<title>9&#45;&#45;12</title>
<path fill="none" stroke="black" d="M135,-215.7C135,-204.85 135,-190.92 135,-180.1"/>
</g>
<!-- 15 -->
<g id="node19" class="node">
<title>15</title>
<ellipse fill="none" stroke="black" cx="207" cy="-162" rx="27" ry="18"/>
<text text-anchor="middle" x="207" y="-157.8" font-family="Times,serif" font-size="14.00">+</text>
</g>
<!-- 14&#45;&#45;15 -->
<g id="edge20" class="edge">
<title>14&#45;&#45;15</title>
<path fill="none" stroke="black" d="M234.65,-216.76C228.83,-205.46 221.11,-190.44 215.3,-179.15"/>
</g>
<!-- 16 -->
<g id="node20" class="node">
<title>16</title>
<ellipse fill="none" stroke="black" cx="279" cy="-162" rx="27" ry="18"/>
<text text-anchor="middle" x="279" y="-157.8" font-family="Times,serif" font-size="14.00">T</text>
</g>
<!-- 14&#45;&#45;16 -->
<g id="edge21" class="edge">
<title>14&#45;&#45;16</title>
<path fill="none" stroke="black" d="M251.35,-216.76C257.17,-205.46 264.89,-190.44 270.7,-179.15"/>
</g>
<!-- 21 -->
<g id="node21" class="node">
<title>21</title>
<ellipse fill="none" stroke="black" cx="351" cy="-162" rx="27" ry="18"/>
<text text-anchor="middle" x="351" y="-157.8" font-family="Times,serif" font-size="14.00">E1</text>
</g>
<!-- 14&#45;&#45;21 -->
<g id="edge22" class="edge">
<title>14&#45;&#45;21</title>
<path fill="none" stroke="black" d="M261.81,-220.81C281.63,-207.96 312.66,-187.85 332.4,-175.05"/>
</g>
<!-- 11 -->
<g id="node17" class="node">
<title>11</title>
<ellipse fill="none" stroke="black" cx="63" cy="-90" rx="27" ry="18"/>
<text text-anchor="middle" x="63" y="-85.8" font-family="Times,serif" font-size="14.00">3</text>
</g>
<!-- 10&#45;&#45;11 -->
<g id="edge23" class="edge">
<title>10&#45;&#45;11</title>
<path fill="none" stroke="black" d="M63,-143.7C63,-132.85 63,-118.92 63,-108.1"/>
</g>
<!-- 13 -->
<g id="node18" class="node">
<title>13</title>
<ellipse fill="none" stroke="black" cx="135" cy="-90" rx="27" ry="18"/>
<text text-anchor="middle" x="135" y="-85.8" font-family="Times,serif" font-size="14.00">eps</text>
</g>
<!-- 12&#45;&#45;13 -->
<g id="edge24" class="edge">
<title>12&#45;&#45;13</title>
<path fill="none" stroke="black" d="M135,-143.7C135,-132.85 135,-118.92 135,-108.1"/>
</g>
<!-- 17 -->
<g id="node22" class="node">
<title>17</title>
<ellipse fill="none" stroke="black" cx="207" cy="-90" rx="27" ry="18"/>
<text text-anchor="middle" x="207" y="-85.8" font-family="Times,serif" font-size="14.00">F</text>
</g>
<!-- 16&#45;&#45;17 -->
<g id="edge25" class="edge">
<title>16&#45;&#45;17</title>
<path fill="none" stroke="black" d="M264.43,-146.83C252.02,-134.77 234.27,-117.51 221.8,-105.38"/>
</g>
<!-- 19 -->
<g id="node23" class="node">
<title>19</title>
<ellipse fill="none" stroke="black" cx="279" cy="-90" rx="27" ry="18"/>
<text text-anchor="middle" x="279" y="-85.8" font-family="Times,serif" font-size="14.00">T1</text>
</g>
<!-- 16&#45;&#45;19 -->
<g id="edge26" class="edge">
<title>16&#45;&#45;19</title>
<path fill="none" stroke="black" d="M279,-143.7C279,-132.85 279,-118.92 279,-108.1"/>
</g>
<!-- 22 -->
<g id="node26" class="node">
<title>22</title>
<ellipse fill="none" stroke="black" cx="351" cy="-90" rx="27" ry="18"/>
<text text-anchor="middle" x="351" y="-85.8" font-family="Times,serif" font-size="14.00">eps</text>
</g>
<!-- 21&#45;&#45;22 -->
<g id="edge27" class="edge">
<title>21&#45;&#45;22</title>
<path fill="none" stroke="black" d="M351,-143.7C351,-132.85 351,-118.92 351,-108.1"/>
</g>
<!-- 18 -->
<g id="node24" class="node">
<title>18</title>
<ellipse fill="none" stroke="black" cx="207" cy="-18" rx="27" ry="18"/>
<text text-anchor="middle" x="207" y="-13.8" font-family="Times,serif" font-size="14.00">1</text>
</g>
<!-- 17&#45;&#45;18 -->
<g id="edge28" class="edge">
<title>17&#45;&#45;18</title>
<path fill="none" stroke="black" d="M207,-71.7C207,-60.85 207,-46.92 207,-36.1"/>
</g>
<!-- 20 -->
<g id="node25" class="node">
<title>20</title>
<ellipse fill="none" stroke="black" cx="279" cy="-18" rx="27" ry="18"/>
<text text-anchor="middle" x="279" y="-13.8" font-family="Times,serif" font-size="14.00">eps</text>
</g>
<!-- 19&#45;&#45;20 -->
<g id="edge29" class="edge">
<title>19&#45;&#45;20</title>
<path fill="none" stroke="black" d="M279,-71.7C279,-60.85 279,-46.92 279,-36.1"/>
</g>
<!-- 27 -->
<g id="node30" class="node">
<title>27</title>
<ellipse fill="none" stroke="black" cx="351" cy="-234" rx="27" ry="18"/>
<text text-anchor="middle" x="351" y="-229.8" font-family="Times,serif" font-size="14.00">2</text>
</g>
<!-- 26&#45;&#45;27 -->
<g id="edge30" class="edge">
<title>26&#45;&#45;27</title>
<path fill="none" stroke="black" d="M351,-287.7C351,-276.85 351,-262.92 351,-252.1"/>
</g>
<!-- 29 -->
<g id="node31" class="node">
<title>29</title>
<ellipse fill="none" stroke="black" cx="423" cy="-234" rx="27" ry="18"/>
<text text-anchor="middle" x="423" y="-229.8" font-family="Times,serif" font-size="14.00">eps</text>
</g>
<!-- 28&#45;&#45;29 -->
<g id="edge31" class="edge">
<title>28&#45;&#45;29</title>
<path fill="none" stroke="black" d="M423,-287.7C423,-276.85 423,-262.92 423,-252.1"/>
</g>
</g>
</svg>
